<?xml version="1.0" encoding="UTF-8" standalone="no"?>
<!-- Created with Inkscape (http://www.inkscape.org/) -->

<svg
   version="1.1"
   id="svg80618"
   width="512"
   height="512"
   viewBox="0 0 512 512"
   sodipodi:docname="fun.svg"
   inkscape:version="1.1.1 (3bf5ae0d25, 2021-09-20)"
   xmlns:inkscape="http://www.inkscape.org/namespaces/inkscape"
   xmlns:sodipodi="http://sodipodi.sourceforge.net/DTD/sodipodi-0.dtd"
   xmlns="http://www.w3.org/2000/svg"
   xmlns:svg="http://www.w3.org/2000/svg">
  <defs
     id="defs80622" />
  <sodipodi:namedview
     id="namedview80620"
     pagecolor="#ffffff"
     bordercolor="#666666"
     borderopacity="1.0"
     inkscape:pageshadow="2"
     inkscape:pageopacity="0.0"
     inkscape:pagecheckerboard="0"
     showgrid="false"
     inkscape:zoom="0.57866746"
     inkscape:cx="254.89596"
     inkscape:cy="417.33813"
     inkscape:window-width="1920"
     inkscape:window-height="1001"
     inkscape:window-x="-9"
     inkscape:window-y="-9"
     inkscape:window-maximized="1"
     inkscape:current-layer="g80624" />
  <g
     inkscape:groupmode="layer"
     inkscape:label="Image"
     id="g80624">
    <g
       id="g52583"
       transform="matrix(0.99384973,0,0,1.0140421,-0.56602819,-0.44121546)"
       style="display:inline">
      <g
         id="g52564">
        <rect
           style="fill:#eaddcf;fill-rule:evenodd;stroke-width:6.17121;stroke-linecap:round;stroke-linejoin:round;stroke-dasharray:6.17121, 74.0546"
           id="rect47190"
           width="36.967228"
           height="35.284012"
           x="442.80365"
           y="85.078758" />
        <rect
           style="fill:#eaddcf;fill-rule:evenodd;stroke-width:6.17121;stroke-linecap:round;stroke-linejoin:round;stroke-dasharray:6.17121, 74.0546"
           id="rect47190-4"
           width="36.967228"
           height="35.284012"
           x="33.037041"
           y="87.314796" />
        <path
           id="rect47190-4-3"
           style="fill:#f25042;fill-opacity:1;fill-rule:evenodd;stroke-width:14.1586;stroke-linecap:round;stroke-linejoin:round;stroke-dasharray:14.1586, 169.901"
           d="m 243.22461,19.136719 c 0.47343,0.159609 0.94915,0.310316 1.43164,0.441406 0.16383,0.04452 0.0929,-0.203505 0.0137,-0.441406 z m 1.53125,0 c 0.0592,0.185472 0.10041,0.373073 0.0762,0.564453 -0.14205,1.112568 -0.67436,2.139324 -1.01172,3.208984 -0.0655,0.0434 -0.13155,0.08584 -0.19726,0.128906 -0.19178,0.413157 -0.38034,0.828454 -0.59766,1.228516 -0.0841,0.154844 -0.21596,0.278927 -0.32422,0.417969 -0.0407,0.01749 -0.0982,0.01403 -0.12305,0.05078 -0.30732,0.455348 -0.42569,1.095123 -0.79687,1.525391 -0.0573,0.06031 -0.11186,0.12401 -0.16797,0.185547 -0.0749,0.196953 -0.15379,0.39104 -0.2539,0.576172 -0.49674,0.918382 -0.96258,1.371574 -1.62305,2.109374 -0.17966,0.170402 -0.39173,0.310751 -0.53906,0.509766 -0.12855,0.173639 -0.18406,0.392118 -0.27539,0.587891 -0.0257,0.05516 -0.57529,1.251316 -0.64649,1.347656 -0.21843,0.295485 -0.45794,0.574084 -0.69922,0.851563 0.0636,-0.09389 0.20805,-0.403448 0.15235,-0.304688 -0.067,0.118841 -0.13184,0.240519 -0.19727,0.361328 0.009,-0.01011 0.0166,-0.02113 0.0254,-0.03125 -0.0145,0.02118 -0.0218,0.02781 -0.0352,0.04688 -0.2985,0.551044 -0.60431,1.104059 -1.10742,1.507813 0.25992,-0.532144 -0.0187,0.03338 -0.24804,0.40625 -0.0385,0.114966 -0.0797,0.229136 -0.11914,0.34375 -0.50283,0.604363 -1.00791,1.207721 -1.50782,1.814453 -0.004,0.01653 -0.0178,0.06824 -0.0215,0.08008 0.0969,-0.103164 0.19381,-0.205211 0.30078,-0.296875 -0.10405,0.111072 -0.20845,0.220959 -0.3125,0.332031 -0.0244,0.06914 -0.0569,0.08125 -0.16602,0.212891 -0.0393,0.137415 -0.0675,0.27882 -0.12304,0.410156 -0.0944,0.223286 -0.24872,0.415239 -0.38282,0.617188 -0.0959,0.144491 -0.19898,0.280679 -0.29882,0.419921 -0.0419,0.07703 -0.0816,0.155215 -0.12305,0.232422 -0.85768,1.010153 -1.78155,1.835867 -3.00781,2.369141 -0.1416,0.06158 0.27363,-0.144647 0.41015,-0.216797 0.18942,-0.169953 0.80321,-0.607796 0.56836,-0.509766 -0.91624,0.382448 -1.67332,1.159844 -2.64258,1.375 -0.70993,-0.105405 -1.41897,-0.211002 -2.1289,-0.316406 0.18309,0.08848 0.63423,0.0811 0.54883,0.265625 -0.0928,0.20039 -0.4413,-0.01808 -0.66211,-0.02148 -0.28119,-0.0043 -0.56252,-0.0014 -0.84375,-0.002 -0.37245,0.0059 -0.81913,0.01008 -1.25391,-0.02734 -0.13956,0.172016 -0.28047,0.341954 -0.42773,0.507812 -0.844,0.590496 -1.68045,1.222699 -2.58789,1.71875 -0.32757,0.179064 -0.64514,0.396018 -1.00586,0.492188 -0.67793,0.18075 -1.38794,0.217097 -2.08008,0.332031 -0.62989,0.104598 1.26196,-0.200645 1.89258,-0.300781 0.054,-0.02656 0.22231,-0.07818 0.16211,-0.08008 -0.96183,-0.03097 -1.71121,0.0061 -2.36719,0.04297 v 27.042968 c 0.43547,-0.211901 0.89498,-0.320312 1.35547,-0.320312 1.30454,0 2.60422,0.853891 3.3457,2.550781 0.59647,-0.002 0.64435,0.468919 0.62891,1.642578 0.18846,0.03177 -0.005,0.396244 -0.006,0.59375 0,0 0,0.002 0,0.002 -1.6e-4,0.01018 1.5e-4,0.01513 0,0.02539 -3.9e-4,0.341354 -5e-5,0.682083 0,1.023437 10e-5,0.02009 0.002,0.0384 0.002,0.05859 v 1.892578 c 0.0215,0.648741 0.0594,1.297482 0.14062,1.945313 -0.0468,0.580395 -0.0719,1.163975 -0.14062,1.742187 v 2.771485 c 0,0.10899 0.0214,0.219302 0,0.326171 v 0.0039 c 8e-5,1.617694 3.6e-4,3.235821 0,4.853515 -4.4e-4,1.012118 -2e-5,2.023038 0,3.035157 -5e-5,0.475127 -1e-5,0.950654 0,1.425781 0.0593,2.748419 -1.38089,3.359496 -3.08984,4.285156 -1.24189,0.67267 -1.91837,0.720534 -2.23633,0.378906 v 6.656245 h 77.54687 v -9.841791 c -1.29675,1.003574 -2.36668,1.116591 -2.55859,-1.539063 -0.0181,-0.250217 -0.0422,-0.525752 -0.041,-0.794922 -0.007,-0.02446 -0.0129,-0.04961 -0.0195,-0.07422 -0.0429,0.01956 -0.0534,-0.03782 -0.0391,-0.148437 -0.12081,-0.511125 -0.17262,-1.060923 -0.20898,-1.726563 -8.3e-4,-0.01507 0.002,-0.02993 0.002,-0.04492 -0.0319,-0.159069 -0.0638,-0.317872 -0.0859,-0.478515 -0.0448,-0.326523 -0.0825,-0.654408 -0.11523,-0.982422 -0.43137,-0.660134 -0.4276,-1.164271 -0.41992,-2.367187 3.5e-4,-1.747807 0.0106,-3.496389 0,-5.244141 -0.002,-0.102895 -0.002,-0.207165 -0.004,-0.310547 -0.21778,-0.560544 -0.42901,-1.122747 -0.56836,-1.708984 -0.12692,-0.533931 -0.21219,-1.076794 -0.31836,-1.615235 -0.0402,-0.337072 -0.10179,-0.672803 -0.12109,-1.011719 -0.0111,-0.192819 -0.0175,-0.386757 -0.0195,-0.580078 -0.15336,-0.27634 -0.30669,-0.552164 -0.45703,-0.830078 -0.0593,-0.45883 -0.16073,-0.914624 -0.17773,-1.376953 -0.10513,-2.850601 1.37136,-4.261844 5.15234,-4.849609 V 43.951172 c -0.43253,0.129984 -0.85163,0.168847 -1.21484,0.04492 -0.19279,-0.06577 -0.38271,-0.141742 -0.57031,-0.220703 -0.83282,-0.06347 -1.22769,-0.280073 -1.73633,-0.623047 -0.24192,-0.05397 -0.63582,-0.199461 -1.05469,-0.378906 -0.65311,-0.0013 -1.30638,-0.0056 -1.95898,-0.02734 0.0376,-0.005 0.14717,-0.03445 0.10937,-0.03125 -0.52842,0.04537 -1.77991,0.318531 -2.16015,0.130859 -0.0484,-0.02388 -0.0948,-0.05126 -0.14258,-0.07617 -1.50614,-0.08835 -2.82782,-0.498175 -3.95313,-1.636719 -0.31725,-0.172167 -0.6439,-0.348182 -1.07812,-0.572265 -0.005,-0.0087 -0.0439,-0.07661 -0.0527,-0.0918 -0.44022,-0.303605 -0.89963,-0.648 -1.1914,-1.0625 -0.012,-0.01702 -0.0214,-0.03558 -0.0332,-0.05273 -0.0957,-0.01287 -0.1912,-0.01294 -0.28711,-0.0293 -0.0907,0.03926 -0.17781,0.02305 -0.26171,-0.05078 -0.28881,-0.05749 -0.57902,-0.126426 -0.87305,-0.214844 -1.79508,-0.829401 -1.35519,-0.564872 -0.52149,-2.113282 -0.80901,-0.808984 -1.46893,-1.733 -2.06835,-2.732421 -0.17625,-0.346068 -0.39356,-0.759215 -0.60938,-1.179688 -0.41297,-0.335953 -0.82457,-0.714649 -1.22852,-1.193359 -0.98708,-1.169775 -1.95814,-2.376004 -2.54296,-3.808594 -0.24553,-0.517654 -0.48209,-1.04017 -0.71875,-1.5625 -0.42996,-0.581548 -0.92242,-1.132059 -1.38477,-1.675781 -0.9696,-0.957376 -1.4843,-2.237919 -1.875,-3.513672 -0.0608,-0.198494 -0.10604,-0.401152 -0.15234,-0.603516 -0.0328,-0.143311 -0.0954,-0.58017 -0.084,-0.433593 0.0151,0.193832 0.0636,0.384423 0.0957,0.576171 -0.30499,-0.517964 -0.59907,-1.041968 -0.86329,-1.582031 -0.0165,-0.03376 -0.0362,-0.06632 -0.0547,-0.09961 z M 292.875,93.748047 c 0.0118,0.0499 0.0258,0.09923 0.0391,0.148437 0.006,-0.0027 0.0122,-0.0077 0.0195,-0.01367 0.004,-0.142533 0.0161,-0.281674 0.0469,-0.412109 0.12215,-0.517669 0.35252,-1.006798 0.4707,-1.525391 0.10134,-0.44472 -0.50691,1.266998 -0.57617,1.802735 z M 234.50586,36.689453 c 0.002,-0.0045 0.01,-0.02987 0.0117,-0.03516 -0.049,0.05212 -0.099,0.102863 -0.14844,0.154297 -0.004,0.01453 -0.01,0.02846 -0.0137,0.04297 0.0502,-0.05397 0.0999,-0.108242 0.15039,-0.162109 z m 3.01562,-4.1875 c 0.003,-0.0054 0.007,-0.01022 0.01,-0.01563 -0.1798,0.206293 -0.36188,0.411174 -0.53711,0.621094 -0.007,0.0084 0.0154,-0.01594 0.0234,-0.02344 0.22242,-0.22089 0.31464,-0.311322 0.5039,-0.582031 z m 6.29883,-12.707031 c -0.0493,-0.02331 -0.0741,0.54544 -0.0371,2.134766 0.0452,-0.07069 0.0963,-0.137756 0.14063,-0.208985 0.0856,-0.137255 0.0741,-0.316907 0.0781,-0.478515 0.007,-0.268642 -0.10845,-1.41266 -0.18164,-1.447266 z m -1.41601,4.046875 c -0.17022,0.113855 -0.34243,0.22569 -0.50977,0.34375 -0.12032,0.08489 0.30289,-0.08161 0.39649,-0.195313 0.0395,-0.04806 0.0741,-0.100037 0.11328,-0.148437 z m -0.43164,1.695312 c -0.004,0.0018 -0.011,0.01654 -0.0254,0.04883 -0.11683,0.26264 -0.21153,0.537001 -0.3125,0.80664 0.003,-0.0037 0.009,-0.0101 0.0117,-0.01367 0.14356,-0.20143 0.35287,-0.854487 0.32618,-0.841797 z m -5.57227,8.195313 c -0.0419,0.112202 -0.0782,0.226599 -0.11719,0.339844 0.0135,-0.02029 0.0324,-0.03946 0.043,-0.06055 0.0431,-0.0862 0.10804,-0.369567 0.0742,-0.279297 z m 55.02734,9.042969 c -0.043,8.4e-5 -0.0859,0.0019 -0.1289,0.002 0.0134,0.0051 0.035,0.02433 0.0469,0.02734 0.0639,0.01619 0.12909,0.02498 0.19336,0.03906 -0.0312,-0.02058 -0.0789,-0.0473 -0.11133,-0.06836 z m 0.45313,0.130859 c 0.005,0.003 0.009,0.0067 0.0137,0.0098 0.004,6.55e-4 0.008,0.0013 0.0117,0.002 -0.008,-0.0038 -0.0169,-0.0079 -0.0254,-0.01172 z m 0.39844,0.28125 c 0.19473,0.142252 0.391,0.280429 0.61328,0.369141 0.14948,0.05966 0.42523,0.1064 0.6875,0.146484 -0.35657,-0.156507 -0.70914,-0.322559 -1.06055,-0.492187 -0.0807,-0.0019 -0.16022,-0.01507 -0.24023,-0.02344 z m -0.86328,35.232422 c 0.0101,0.07089 0.0195,0.142601 0.0332,0.21289 0.038,0.194127 0.42629,0.665248 0.33789,0.488282 -0.11801,-0.236306 -0.24585,-0.468633 -0.37109,-0.701172 z m 1.48632,12.652344 c -0.0236,0.07428 -0.0404,0.123744 -0.0605,0.185546 -10e-4,0.0083 -0.003,0.01705 -0.004,0.02539 0.0251,-0.06932 0.0454,-0.139114 0.0664,-0.208984 z m -0.19922,1.09375 c -0.003,0.116376 0.005,0.231653 0.0391,0.34375 0.0209,0.069 -0.004,-0.143634 -0.0156,-0.214844 -0.007,-0.0431 -0.0156,-0.08598 -0.0234,-0.128906 z" />
        <path
           id="rect48215"
           style="fill:#8c7851;fill-opacity:1;fill-rule:evenodd;stroke-width:5.052;stroke-linecap:round;stroke-linejoin:round;stroke-dasharray:5.052, 60.624"
           d="m 248.70898,195.51367 c 0.006,0.23469 0.008,0.47099 -0.002,0.71485 0.15845,0.2664 -0.008,0.64711 -0.0742,0.95898 -0.003,0.0145 -0.009,0.0285 -0.0117,0.043 -0.006,0.0479 -0.007,0.0943 -0.0137,0.14258 0.73734,4.13673 0.60537,4.02908 -1.83203,8.57031 -1.50105,1.49179 -3.09077,2.88867 -4.75,4.19531 -1.00463,1.12229 -2.12609,2.02238 -3.35937,2.44336 -2.0553,1.38306 -4.19747,2.63839 -6.42383,3.74024 -0.63893,0.31621 -1.33305,0.50408 -2,0.75585 -0.35306,0.11418 -4.95443,1.85998 -5.85157,1.30665 -0.27765,-0.17125 -0.5791,-0.34349 -0.86718,-0.51368 -0.24191,0.15013 -0.48797,0.25736 -0.73438,0.3418 0.005,0.10115 0.003,0.21135 0.0215,0.29492 0.67512,2.97843 1.41034,5.9457 1.99414,8.94336 0.0371,0.19046 0.0454,0.26326 0.0801,0.44336 0.37393,0.0269 0.75716,0.17695 1.14453,0.37109 0.0856,0.003 0.16946,-0.003 0.25586,0.004 2.10993,0.17938 3.1215,2.49907 4.04687,4.73047 0.17898,0.2639 0.34912,0.53228 0.52344,0.79883 1.04839,0.2739 2.09716,0.54603 3.15039,0.79492 7e-5,0.84742 -0.001,1.69555 0,2.54297 10e-4,3.78175 -0.002,7.56394 -0.002,11.3457 0.18516,2.07469 0.29582,4.14229 0.21875,6.25977 -0.0737,0.51551 -0.14701,1.02941 -0.22071,1.54492 -4.1e-4,0.51495 -7e-5,1.02994 0,1.54492 h 46.38672 c -0.37101,-1.49425 -0.53264,-2.24708 -0.54687,-3 -0.004,-0.0184 -0.01,-0.0363 -0.0137,-0.0547 -0.0258,-0.12195 -0.0257,-0.24579 -0.0195,-0.37109 -0.38981,-1.09531 -0.49911,-1.55826 -0.29687,-0.55469 -0.48186,-2.18165 -0.55479,-2.92389 -0.7168,-5.21094 -0.33128,-0.83473 -0.724,-1.64288 -1.0039,-2.50195 -0.79487,-2.43963 -1.16036,-4.98375 -1.01758,-7.55078 0.43667,-7.85075 4.40734,-11.78212 8.26953,-11.78516 0.93357,-7.3e-4 1.85917,0.23101 2.72851,0.68946 v -6.26172 c -0.21015,-0.005 -0.38537,-0.0186 -0.45898,-0.0566 -1.49706,-0.77399 -2.94478,-1.65003 -4.43359,-2.43945 -0.40349,-0.10529 -1.01262,-0.26101 -1.13477,-0.29297 -0.26629,-0.14912 -0.54019,-0.28606 -0.8125,-0.42579 0.0313,0.0371 0.0549,0.0707 0.0859,0.10743 0.2565,0.24433 0.57184,0.5304 0.72265,0.69922 1.44257,1.78626 0.46596,0.70675 -0.72265,-0.69922 -0.0509,-0.0485 -0.0821,-0.0828 -0.12696,-0.12696 -0.79126,-0.40531 -1.58881,-0.80401 -2.30664,-1.32421 -0.38999,-0.28264 -0.73492,-0.60531 -1.04492,-0.95704 -2.61963,-0.60592 -4.96215,-1.90102 -7.36914,-3.40234 1.34827,0.70177 -2.52594,-1.56868 -1.8418,-1.27148 0.58819,0.25552 1.05277,0.82363 1.68555,0.92773 0.36209,0.0596 0.90025,0.13897 1.48047,0.21289 -0.1965,-0.16132 -0.39225,-0.32289 -0.59375,-0.47656 -0.3867,-0.67963 -0.79454,-1.34837 -1.20117,-2.01758 -0.0357,-0.0152 -0.088,-0.0419 -0.12305,-0.0566 -0.51743,-0.0536 -1.00337,-0.17416 -1.22656,-0.40234 -0.0331,-0.0339 -0.059,-0.0659 -0.0918,-0.0996 -2.78308,-0.90336 -1.83859,0.62299 -1.71484,0.90625 0.0489,0.0225 0.0942,0.044 0.14453,0.0664 1.06962,0.38969 2.20951,0.59869 3.26367,1.03321 1.011,0.41672 -1.51295,-0.25516 -3.26367,-1.03321 -0.0446,-0.0163 -0.0904,-0.03 -0.13477,-0.0469 0.0186,0.0469 -0.006,0.0425 -0.0898,-0.0371 -0.12891,-0.0508 -0.25664,-0.10225 -0.38281,-0.16016 -1.59119,-0.73025 -2.57938,-2.45095 -3.2461,-4.14453 -0.0948,-0.0849 -0.18885,-0.17177 -0.2871,-0.25 -0.70133,-1.39263 -1.51464,-2.73475 -2.10547,-4.17773 -0.22757,-0.55579 -0.24204,-1.17769 -0.33203,-1.77149 -0.14471,-0.9549 -0.26943,-1.91259 -0.3711,-2.87305 -0.0318,-0.29668 -0.10638,-0.60683 -0.0273,-0.89453 0.0283,-0.10302 0.21928,0.35198 0.20508,0.2461 -0.0216,-0.16066 -0.05,-0.31974 -0.082,-0.47852 z m 19.54883,13.61524 c 0.36724,0.1192 0.80851,0.28746 1.31836,0.50195 0.0307,0.003 0.0609,9.1e-4 0.0918,0.004 -0.16596,-0.27321 -0.33235,-0.5459 -0.49609,-0.82032 -0.0808,-0.0317 -0.17519,-0.0746 -0.26172,-0.11133 -0.39326,-0.0304 -0.78467,-0.0815 -1.17383,-0.14257 0.17292,0.18902 0.33474,0.37583 0.52148,0.56836 z m 12.63281,8.86718 c 0.0135,0.007 0.0275,0.0126 0.041,0.0195 -0.10058,-0.11931 -0.1798,-0.22031 -0.28125,-0.34179 -0.0681,0.002 0.0539,0.13881 0.24023,0.32226 z m -15.60937,-9.17968 c -0.35582,0.30272 0.25302,0.73985 1.14258,1.16211 -0.16275,-0.15893 -0.48514,-0.49353 -1.14258,-1.16211 z m -36.5918,7.51171 c -2.46419,0.14564 -4.74949,-0.09 -0.43554,0.24024 0.14614,-0.0795 0.28687,-0.16603 0.43554,-0.24024 z m 51.93164,0.44336 c 0.12319,0.26174 0.98746,0.25319 2.46094,0.22266 -0.0754,-0.0235 -0.14944,-0.0533 -0.22461,-0.0781 -0.85778,-0.0188 -1.5979,-0.0518 -2.23633,-0.14454 z m -66.11328,22.73243 c -0.24675,0.0523 -0.43955,0.0999 -0.66601,0.15039 v 1.26367 c 0.36356,0.22207 0.77329,0.44053 1.26758,0.64844 0.0725,-0.46152 0.15437,-0.92124 0.21289,-1.38477 0.0206,-0.16351 0.0291,-0.32833 0.0469,-0.49219 -0.27953,-0.062 -0.55911,-0.12273 -0.86133,-0.18554 z m 64.5,9.70507 c 0.0534,0.16022 0.10741,0.32142 0.15821,0.48243 0.0464,0.14713 -0.0952,-0.2946 -0.14258,-0.44141 -0.005,-0.0139 -0.0109,-0.0272 -0.0156,-0.041 z m 1.80274,6.4668 c -0.019,0.0538 -0.0704,0.28514 -0.12305,0.6211 0.0469,-0.23021 0.095,-0.45726 0.11328,-0.5586 0.003,-0.0208 0.007,-0.0417 0.01,-0.0625 z m -66.96875,1.61133 v 0.54492 h 0.29687 c -0.10104,-0.18003 -0.19789,-0.3632 -0.29687,-0.54492 z" />
        <path
           id="rect48215-1"
           style="fill:#8c7851;fill-opacity:1;fill-rule:evenodd;stroke-width:5.052;stroke-linecap:round;stroke-linejoin:round;stroke-dasharray:5.052, 60.624"
           d="m 247.56055,335.25195 c -0.0426,0.17021 -0.071,0.34563 -0.15235,0.5 -0.0204,0.0387 -0.1219,-0.0687 -0.1289,-0.0254 -0.0549,0.34918 -0.0239,0.70529 -0.0352,1.0586 -0.0762,0.43666 -0.12674,0.87912 -0.22852,1.31054 -0.6536,2.77043 -2.1558,5.22937 -3.97851,7.38282 -0.27243,0.33992 -0.55159,0.67364 -0.81641,1.01953 -0.63697,0.83196 -0.5871,0.9449 -1.41992,1.85937 -0.21076,0.23143 -0.39452,0.67555 -0.70312,0.62305 -1.1942,-0.20307 -2.09557,-0.32593 -2.875,-0.42774 -0.52645,0.4462 -1.04791,0.89745 -1.58985,1.32422 -1.00463,1.12229 -2.12609,2.02238 -3.35937,2.44336 -2.0553,1.38306 -4.19747,2.63839 -6.42383,3.74024 -0.63893,0.31621 -1.33305,0.50409 -2,0.75586 -0.35306,0.11418 -4.95442,1.85997 -5.85156,1.30664 -0.27765,-0.17125 -0.57911,-0.34349 -0.86719,-0.51367 -0.24191,0.15012 -0.48797,0.25735 -0.73438,0.34179 0.005,0.10115 0.003,0.21135 0.0215,0.29492 0.67512,2.97843 1.41034,5.9457 1.99414,8.94336 0.0371,0.19046 0.0454,0.26326 0.0801,0.44336 0.37393,0.0269 0.75716,0.17696 1.14453,0.3711 0.0856,0.003 0.16946,-0.003 0.25586,0.004 2.10993,0.17938 3.1215,2.49907 4.04687,4.73047 0.17898,0.2639 0.34912,0.53228 0.52344,0.79883 0.90211,0.23568 1.80566,0.46421 2.71094,0.68359 0.21928,10e-4 0.43878,5e-5 0.6582,0.004 1.28877,0.005 2.52219,-0.0841 3.5625,1.05273 0.17503,0.088 0.39818,0.21771 0.78906,0.4336 0.74101,0.4277 1.16121,0.75297 1.69922,1.40429 0.93838,0.38056 0.91641,0.33944 2.11133,1.27149 -0.29863,-0.36498 -0.59798,-0.71426 -0.84766,-1.01953 0.37062,0.2148 0.74557,0.4278 1.11914,0.64258 0.0256,-0.0298 0.0863,0.0145 0.16797,0.0976 0.62033,0.35916 1.23615,0.7291 1.81641,1.14453 0.24972,0.17879 0.6594,0.26938 0.7207,0.57032 0.0347,0.17042 0.0629,0.34237 0.0918,0.51367 2.24008,1.92935 2.66311,2.65884 3.54688,5.54883 0.0323,0.10546 0.0495,0.21474 0.0742,0.32226 0.17771,0.27752 0.356,0.55762 0.5293,0.83594 0.42401,0.55005 1.69334,2.21273 2.12695,2.70703 0.20447,0.23309 0.44674,0.42939 0.67188,0.64258 0.93696,0.88722 1.93196,1.7093 2.74023,2.72461 0.52191,0.77651 1.00068,1.57417 1.45703,2.39062 0.15561,0.2784 0.35038,0.54069 0.46094,0.83985 0.14736,0.39875 0.25209,0.81067 0.35742,1.22265 h 14.15039 c 1.2e-4,-6.4e-4 -1.1e-4,-0.001 0,-0.002 -0.49488,-0.30193 -0.99285,-0.59901 -1.49609,-0.88672 -0.0421,-0.0241 -0.0217,0.17524 0.004,0.36719 -0.0202,-0.12887 -0.0331,-0.21425 -0.084,-0.51172 -0.0184,-0.39107 -0.0889,-0.78187 -0.0547,-1.17188 0.20656,-2.35581 1.16486,-2.39222 1.75976,-3.78711 0.18757,-0.36396 0.39912,-0.71718 0.56445,-1.09179 0.53476,-1.21167 0.53472,-1.8779 1.33594,-3.11328 0.89763,-1.38403 2.27566,-2.35701 3.85938,-2.72852 -0.54373,-2.06024 -0.80457,-4.17857 -0.68555,-6.31836 0.43667,-7.85075 4.40734,-11.78211 8.26953,-11.78515 0.93357,-7.3e-4 1.85918,0.231 2.72852,0.68945 v -6.26172 c -0.21015,-0.005 -0.38538,-0.0186 -0.45899,-0.0566 -1.49706,-0.77399 -2.94478,-1.65003 -4.43359,-2.43945 -0.40349,-0.10529 -1.01262,-0.26101 -1.13477,-0.29297 -0.26629,-0.14912 -0.54019,-0.28605 -0.8125,-0.42578 0.0313,0.0371 0.0549,0.0707 0.0859,0.10742 0.2565,0.24433 0.57185,0.5304 0.72266,0.69922 1.44257,1.78626 0.46595,0.70675 -0.72266,-0.69922 -0.0509,-0.0485 -0.0821,-0.0828 -0.12695,-0.12695 -0.79126,-0.40531 -1.58881,-0.80402 -2.30664,-1.32422 -0.38999,-0.28264 -0.73493,-0.60529 -1.04493,-0.95704 -2.61963,-0.60592 -4.96215,-1.90102 -7.36914,-3.40234 1.34827,0.70177 -2.52593,-1.56868 -1.84179,-1.27148 0.58819,0.25552 1.05276,0.82363 1.68554,0.92773 0.36209,0.0596 0.90025,0.13897 1.48047,0.21289 -0.1965,-0.16132 -0.39225,-0.32289 -0.59375,-0.47656 -0.3867,-0.67963 -0.79454,-1.34837 -1.20117,-2.01758 -0.0357,-0.0152 -0.088,-0.0419 -0.12305,-0.0566 -0.51743,-0.0536 -1.00337,-0.17416 -1.22656,-0.40234 -0.0331,-0.0339 -0.059,-0.0659 -0.0918,-0.0996 -2.78308,-0.90336 -1.83859,0.62299 -1.71484,0.90625 0.0489,0.0225 0.0942,0.044 0.14453,0.0664 1.06962,0.38969 2.20951,0.59869 3.26367,1.03321 1.011,0.41672 -1.51295,-0.25516 -3.26367,-1.03321 -0.0446,-0.0163 -0.0904,-0.03 -0.13476,-0.0469 0.0186,0.0469 -0.006,0.0425 -0.0899,-0.0371 -0.12891,-0.0508 -0.25664,-0.10225 -0.38281,-0.16016 -1.59119,-0.73025 -2.57937,-2.45095 -3.24609,-4.14453 -0.0948,-0.0849 -0.18886,-0.17177 -0.28711,-0.25 -0.70133,-1.39263 -1.51464,-2.73475 -2.10547,-4.17773 -0.22757,-0.55579 -0.24204,-1.17769 -0.33203,-1.77149 -0.14471,-0.9549 -0.26943,-1.91258 -0.3711,-2.87304 -0.0318,-0.29668 -0.10654,-0.60687 -0.0273,-0.89453 0.0283,-0.10303 0.21928,0.35197 0.20508,0.24609 -0.0216,-0.16066 -0.05,-0.31974 -0.082,-0.47852 z m 14.30468,13.61524 c 0.36724,0.1192 0.80851,0.28746 1.31836,0.50195 0.0307,0.003 0.0609,5.5e-4 0.0918,0.004 -0.16596,-0.27321 -0.33235,-0.5459 -0.49609,-0.82032 -0.0808,-0.0317 -0.17519,-0.0746 -0.26172,-0.11132 -0.39326,-0.0304 -0.78467,-0.0815 -1.17383,-0.14258 0.17292,0.18902 0.33474,0.37583 0.52148,0.56836 z m 12.63282,8.86719 c 0.0135,0.007 0.0275,0.0126 0.041,0.0195 -0.10058,-0.11931 -0.1798,-0.22032 -0.28125,-0.3418 -0.0681,0.002 0.0539,0.1388 0.24024,0.32227 z m -15.60938,-9.17969 c -0.35582,0.30272 0.25302,0.73985 1.14258,1.16211 -0.16275,-0.15893 -0.48514,-0.49353 -1.14258,-1.16211 z m -36.59179,7.51172 c -2.46423,0.14564 -4.7495,-0.09 -0.43555,0.24023 0.14614,-0.0795 0.28684,-0.16602 0.43555,-0.24023 z m 51.93164,0.44336 c 0.12319,0.26174 0.98745,0.25318 2.46093,0.22265 -0.0754,-0.0235 -0.14944,-0.0533 -0.22461,-0.0781 -0.85778,-0.0188 -1.59789,-0.0518 -2.23632,-0.14453 z m -44.83204,18.41015 c -0.22996,-0.0222 -0.47875,0.0265 -0.7246,0.0606 0.47347,0.0443 0.83952,0.0719 1.13281,0.0879 -0.0234,-0.014 -0.0446,-0.0313 -0.0684,-0.0449 -0.10574,-0.0608 -0.22089,-0.092 -0.33985,-0.10352 z m 2.80274,2.2461 c 0.0368,0.61199 -0.0224,1.2593 0.0137,1.88086 0.0724,0.0128 0.14774,0.0287 0.22266,0.043 0.0588,-0.0134 0.11701,-0.0253 0.17578,-0.0371 0.0182,-0.30787 0.0396,-0.64526 0.0469,-0.83398 0.0105,-0.27002 -0.12074,-0.52775 -0.18164,-0.79102 -0.0951,-0.0834 -0.18484,-0.17469 -0.27734,-0.26171 z m 7.99609,4.66015 c -0.002,0.002 4.8e-4,0.009 0.008,0.0254 0.0576,0.13574 0.12196,0.26855 0.1836,0.40235 7.7e-4,-0.005 9e-4,-0.009 0.002,-0.0137 0.0209,-0.12345 -0.18035,-0.42806 -0.19336,-0.41406 z m 4.63477,9.74414 c 0.0213,0.0338 0.0457,0.0653 0.0664,0.0996 0.068,0.0545 0.1336,0.11106 0.20118,0.16602 -0.0563,-0.0739 -0.16187,-0.16924 -0.26758,-0.26563 z m -10.27344,0.67578 c 0.059,0.19361 0.11931,0.38686 0.17969,0.58008 0.0471,0.0395 0.0937,0.0797 0.14062,0.11914 0.0475,-0.0376 0.0957,-0.0777 0.14258,-0.11328 -0.17758,-0.23179 -0.33384,-0.42846 -0.46289,-0.58594 z m 0.53906,0.68946 c -0.0532,0.0211 -0.10591,0.0401 -0.15625,0.0605 0.0144,0.0122 0.0285,0.025 0.043,0.0371 0.0491,-0.0188 0.0995,-0.0337 0.14844,-0.0527 -0.0115,-0.0153 -0.0239,-0.03 -0.0352,-0.0449 z m 0.28711,0.4707 c 0.0324,0.044 0.0663,0.0876 0.11133,0.14258 0.0227,0.018 0.0445,0.0364 0.0684,0.0547 -0.0565,-0.0628 -0.10554,-0.11781 -0.17969,-0.19727 z m -27.93359,3.61914 v 0.54492 h 0.29687 c -0.10104,-0.18003 -0.19789,-0.3632 -0.29687,-0.54492 z" />
        <ellipse
           style="fill:#f25042;fill-opacity:1;fill-rule:evenodd;stroke-width:5.052;stroke-linecap:round;stroke-linejoin:round;stroke-dasharray:5.052, 60.624"
           id="path49129"
           cx="375.90454"
           cy="169.24104"
           rx="11.455847"
           ry="15.579952" />
        <ellipse
           style="fill:#f25042;fill-opacity:1;fill-rule:evenodd;stroke-width:5.052;stroke-linecap:round;stroke-linejoin:round;stroke-dasharray:5.052, 60.624"
           id="path49129-7"
           cx="139.60858"
           cy="168.01909"
           rx="11.455847"
           ry="15.579952"
           inkscape:transform-center-x="-199.78998"
           inkscape:transform-center-y="-6.4152745" />
      </g>
      <path
         style="fill:#000000"
         d="m 225.66328,511.09291 c -2.18688,-1.72021 -2.58027,-3.02207 -3.19225,-10.56445 -1.87469,-23.10457 -10.81862,-41.87408 -28.25471,-59.29463 -7.04768,-7.0414 -8.32849,-8.82456 -8.32849,-11.59502 0,-4.17684 2.63488,-6.58392 7.20701,-6.58392 2.98642,0 4.67723,1.04409 10.65802,6.58138 13.90635,12.87514 25.4036,31.41886 30.01996,48.41862 2.52464,9.29699 4.43987,24.42211 3.63684,28.72126 -1.08873,5.82879 -7.04254,8.0168 -11.74638,4.31676 z m 53.48697,0.43324 c -2.99655,-2.09887 -3.57712,-6.40164 -2.2899,-16.97126 3.0832,-25.31687 14.44209,-47.62583 32.96829,-64.75 6.29343,-5.81715 7.8172,-6.75 11.02593,-6.75 4.51318,0 7.03325,2.42133 7.03325,6.75768 0,2.55269 -1.47083,4.56971 -8.32849,11.42126 -17.42381,17.40827 -26.56946,36.63563 -28.33183,59.5634 -0.56089,7.297 -0.95512,8.5966 -3.12562,10.30392 -2.98481,2.34785 -6.00187,2.49109 -8.95163,0.425 z m 76.03986,-53.07806 -2.60679,-2.60679 0.61139,-16.64321 c 2.79873,-76.18614 28.72662,-146.22505 74.29664,-200.69716 16.26549,-19.44295 20.63109,-22.30234 25.94193,-16.99149 4.24757,4.24756 3.35414,6.44628 -7.56427,18.6156 -48.35454,53.89449 -74.42516,120.98981 -77.82737,200.29644 -0.68706,16.01563 -0.84091,16.96162 -3.04947,18.75 -3.22476,2.61126 -6.72578,2.35288 -9.80206,-0.72339 z m -207.07122,-0.82658 c -1.64628,-2.09291 -2.00059,-4.78638 -2.53228,-19.25 -1.7208,-46.81187 -13.49281,-93.99714 -33.31868,-133.54996 -2.95906,-5.90334 -5.3801,-11.58016 -5.3801,-12.61514 0,-3.49997 3.84056,-7.15152 7.52169,-7.15152 4.57133,0 6.96163,3.31542 14.8774,20.63537 19.84425,43.41988 31.54209,95.42425 31.59059,140.44032 0.009,8.72344 -0.19567,9.7692 -2.30413,11.75 -3.18264,2.98993 -7.99258,2.87073 -10.45449,-0.25907 z m 267.66343,-29.75477 c -5.16708,-1.7495 -5.88366,-7.51319 -3.45771,-27.81185 1.7044,-14.26129 5.17832,-29.30311 7.40172,-32.04888 1.96556,-2.42737 7.29334,-2.91652 9.73103,-0.89341 3.03444,2.51835 3.30921,5.2994 1.33482,13.50994 -2.39716,9.9686 -4.90435,28.65327 -4.90435,36.54931 0,3.30799 -0.4405,6.83761 -0.97889,7.8436 -1.34388,2.51106 -5.9143,3.93893 -9.12662,2.85129 z M 90.506761,425.76473 c -2.02253,-2.02253 -2.36737,-3.62932 -2.95091,-13.75 -1.74186,-30.20992 -9.81949,-55.76009 -25.82466,-81.68533 -4.46964,-7.23994 -4.78918,-10.4196 -1.38882,-13.81996 6.24432,-6.24432 12.25296,-0.23562 24.04519,24.04545 9.45165,19.46163 15.186109,39.95006 17.452669,62.35595 1.66183,16.42789 1.45076,19.8318 -1.40695,22.6895 -3.07497,3.07498 -6.951729,3.13918 -9.926519,0.16439 z M 251.64257,413.30489 c -0.85538,-0.9625 -2.05935,-5.04567 -2.67549,-9.07371 -2.68259,-17.53733 -13.96685,-28.78191 -31.29298,-31.18294 -8.04052,-1.11425 -10.78627,-3.12858 -10.78627,-7.913 0,-4.70822 2.03359,-6.20076 10.44042,-7.66266 9.81783,-1.70728 15.82335,-4.59299 21.5915,-10.37492 5.56668,-5.57998 8.89449,-12.45811 10.08093,-20.83586 0.49577,-3.50077 1.36118,-7.22414 1.92313,-8.27416 2.00267,-3.74202 9.92535,-3.74202 11.92802,0 0.56195,1.05002 1.44357,4.88782 1.95914,8.52845 1.19916,8.46754 4.31864,14.86612 10.03408,20.58157 5.78465,5.78464 11.78927,8.66847 21.60235,10.37492 8.40683,1.4619 10.44042,2.95444 10.44042,7.66266 0,4.78442 -2.74575,6.79875 -10.78627,7.913 -17.32614,2.40103 -28.6104,13.64561 -31.29299,31.18294 -0.61614,4.02804 -1.82011,8.11121 -2.67549,9.07371 -2.06595,2.32469 -8.42455,2.32469 -10.4905,0 z m 8.14064,-35.78089 c 2.37436,-3.48636 6.5882,-7.56797 11.20734,-10.85567 2.35053,-1.673 2.35827,-1.72785 0.39727,-2.81308 -2.53773,-1.40439 -11.82252,-10.65689 -13.34678,-13.30036 l -1.15322,-2 -1.15322,2 c -1.52426,2.64347 -10.80905,11.89597 -13.34678,13.30036 -1.961,1.08523 -1.95326,1.14008 0.39727,2.81308 4.61914,3.2877 8.83298,7.36931 11.20734,10.85567 1.31746,1.93447 2.62039,3.51722 2.89539,3.51722 0.275,0 1.57793,-1.58275 2.89539,-3.51722 z m 172.55917,-30.92366 c -1.35,-1.35 -2.45455,-3.38996 -2.45455,-4.53324 0,-4.07305 11.63079,-24.20906 15.0361,-26.03153 4.7429,-2.53832 10.98853,0.93433 10.9418,6.08377 -0.0233,2.57181 -10.25732,20.8589 -13.81474,24.68555 -2.73331,2.94017 -6.64634,2.85773 -9.70861,-0.20455 z M 18.960271,287.09481 c -1.836647,-0.45084 -4.322437,-3.87519 -10.212107,-14.0679 -4.2815001,-7.40961 -7.7872801,-14.37202 -7.7906301,-15.47202 -0.0136,-4.47665 5.4031501,-7.92833 9.9530001,-6.34224 2.7172,0.94722 10.872257,13.03383 15.412087,22.84224 3.07086,6.63468 3.09513,7.05659 0.58933,10.2422 -2.25814,2.87076 -4.47567,3.65098 -7.95168,2.79772 z M 488.2246,286.57822 c -3.76336,-2.63596 -3.69961,-5.85064 0.27298,-13.76474 9.40838,-18.74314 14.48434,-23.90001 20.30775,-20.63142 4.0335,2.26395 4.95565,6.3116 2.44066,10.71295 -1.15021,2.01293 -4.13994,7.25988 -6.64383,11.65988 -6.36086,11.17771 -8.35078,13.5 -11.56788,13.5 -1.48579,0 -3.65015,-0.6645 -4.80968,-1.47667 z M 355.65053,271.48957 c -3.27607,-1.77757 -4.35786,-5.28869 -2.90953,-9.44335 1.42013,-4.07379 11.81165,-21.65615 14.22633,-24.07083 2.57142,-2.57142 8.06549,-2.52276 10.43218,0.0924 2.79997,3.09393 2.18289,6.86541 -2.3239,14.20339 -2.26873,3.69397 -5.47,9.38079 -7.11392,12.63738 -2.29439,4.54516 -3.73061,6.17961 -6.18062,7.03369 -1.75543,0.61195 -3.23704,1.09461 -3.29246,1.07259 -0.0554,-0.022 -1.33256,-0.70839 -2.83808,-1.52528 z M 93.132471,270.30489 c -1.08731,-0.9625 -5.44538,-6.34295 -9.68461,-11.95655 -4.23922,-5.6136 -11.72446,-14.53183 -16.63385,-19.81829 -8.76664,-9.43994 -9.93535,-11.68172 -8.305,-15.93036 1.09052,-2.84184 5.81149,-4.63853 9.13964,-3.47833 6.40151,2.23158 37.239179,39.97964 37.239179,45.58408 0,3.14049 -4.20571,7.34945 -7.34376,7.34945 -1.33907,0 -3.324289,-0.7875 -4.411599,-1.75 z m 57.498329,0.66596 c -0.96637,-0.56277 -2.71074,-2.91158 -3.87638,-5.21959 -1.16563,-2.308 -4.55992,-8.30358 -7.54285,-13.32351 -5.86214,-9.86529 -6.24333,-12.91492 -1.98697,-15.89619 6.33425,-4.43668 11.85192,0.87823 22.05036,21.24009 3.24616,6.48116 3.27601,8.71101 0.15832,11.82869 -2.57841,2.57841 -5.85287,3.08824 -8.80248,1.37051 z m 80.25702,-3.91596 c -2.41363,-2.41363 -2.46069,-4.36363 -0.41576,-17.2261 l 1.58423,-9.96476 -8.08423,-8.28238 c -6.41097,-6.56811 -8.08423,-8.89254 -8.08423,-11.23026 0,-5.01673 3.21404,-6.88544 14.99999,-8.72129 5.775,-0.89954 10.62808,-1.95946 10.78462,-2.35537 0.15654,-0.39591 2.40654,-4.99484 5,-10.21984 8.01244,-16.14253 12.43375,-16.14253 20.4087,0 2.58133,5.225 4.83133,9.8128 5,10.19511 0.16867,0.38231 5.03168,1.43611 10.80668,2.34179 11.78193,1.84773 15,3.727 15,8.7596 0,2.33772 -1.67326,4.66215 -8.08424,11.23026 l -8.08423,8.28238 1.58423,9.96476 c 2.04493,12.86247 1.99787,14.81247 -0.41576,17.2261 -3.18342,3.18342 -7.22668,2.45549 -17.01735,-3.0637 l -8.98265,-5.0637 -8.98265,5.0637 c -9.79067,5.51919 -13.83393,6.24712 -17.01735,3.0637 z m 26.09021,-24 c 1.22874,0 4.18611,1.14397 6.57193,2.54215 2.38582,1.39819 4.31826,2.18569 4.29431,1.75 -0.024,-0.43568 -0.42954,-2.79218 -0.9013,-5.23666 -1.05962,-5.49056 -0.0414,-8.41766 4.58499,-13.1802 l 3.52106,-3.6247 -5.45969,-0.68215 c -5.95666,-0.74423 -8.43362,-2.67693 -10.66099,-8.31844 -1.61463,-4.08956 -2.46641,-4.08956 -4.08104,0 -2.22737,5.64151 -4.70433,7.57421 -10.66099,8.31844 l -5.45969,0.68215 3.52106,3.6247 c 4.62636,4.76254 5.64461,7.68964 4.58499,13.1802 -0.47176,2.44448 -0.87735,4.82477 -0.9013,5.28953 -0.024,0.46476 1.94908,-0.32274 4.38452,-1.75 2.43544,-1.42726 5.4334,-2.59502 6.66214,-2.59502 z M 132.10962,190.63397 c -12.60975,-4.08143 -19.7457,-17.46081 -16.16367,-30.30566 1.71085,-6.13496 9.62667,-14.30487 15.5579,-16.0573 13.61057,-4.02137 27.07286,3.15317 30.9829,16.5119 1.99161,6.8044 1.08751,12.73373 -2.95931,19.40783 -5.4797,9.03722 -17.5535,13.63604 -27.41782,10.44323 z m 13.37821,-16.97908 c 3.73654,-3.73654 4.17499,-6.20066 1.88965,-10.62002 -3.0156,-5.83152 -9.82975,-6.79373 -14.56657,-2.0569 -4.65753,4.65752 -3.79023,11.45616 1.85206,14.51812 4.31952,2.34411 7.11503,1.86863 10.82486,-1.8412 z m 219.82228,16.98157 c -4.60051,-2.00322 -10.26986,-7.37054 -12.66142,-11.98689 -2.91177,-5.62051 -2.9253,-15.55782 -0.0287,-21.09468 4.69364,-8.97193 12.25047,-13.5 22.52997,-13.5 5.35899,0 7.1551,0.49696 11.74621,3.25 16.79617,10.07178 15.39781,34.75688 -2.42751,42.85268 -4.84498,2.20046 -14.64243,2.44536 -19.15854,0.47889 z m 15.98883,-16.6583 c 2.93628,-3.48957 3.26223,-6.72049 1.09986,-10.90206 -4.21022,-8.14166 -16.96552,-4.31863 -16.96552,5.08492 0,8.4339 10.44221,12.26254 15.86566,5.81714 z M 47.904431,152.76889 c -2.64213,-1.33682 -3.23457,-2.79699 -4.90808,-12.09671 -2.96203,-16.46015 -14.36409,-27.10823 -31.639547,-29.54735 -7.5036701,-1.05944 -10.4689701,-3.2036 -10.4689701,-7.56994 0,-4.43787 2.99418,-6.553822 11.3199401,-7.999612 9.249047,-1.60614 14.645277,-4.19303 20.514237,-9.83433 5.69546,-5.47452 9.10344,-12.34685 10.70967,-21.59646 1.40037,-8.06413 3.56051,-11.0696 7.95615,-11.0696 4.4708,0 6.75155,3.11974 7.63291,10.44072 2.03616,16.91325 13.01388,28.70392 29.48437,31.66781 9.445939,1.69981 10.803149,2.2817 12.220769,5.239452 1.05886,2.20924 1.09407,3.40169 0.16654,5.64094 -1.35255,3.26533 -4.32576,4.62419 -11.782399,5.38496 -6.57461,0.67078 -16.04854,5.58463 -20.70549,10.73932 -4.82678,5.34266 -8.5364,13.12823 -9.15534,19.21475 -0.72304,7.11021 -2.06123,10.21427 -4.976,11.54233 -3.06948,1.39855 -3.30731,1.39271 -6.36876,-0.15628 z m 10.97582,-41.82764 c 4.4625,-4.4625 7.97727,-8.1932 7.81061,-8.29045 -3.34676,-1.95277 -8.7152,-6.808712 -11.69523,-10.578742 l -3.80671,-4.81585 -3.85488,4.86658 c -2.12018,2.67663 -5.75435,6.289812 -8.07594,8.029302 l -4.22106,3.16271 4.985,3.94041 c 2.74174,2.16723 6.19567,5.69167 7.67539,7.83209 1.47972,2.14043 2.77562,3.90877 2.87979,3.92964 0.10417,0.0209 3.84053,-3.61319 8.30303,-8.07569 z m 398.480159,41.08334 c -1.13041,-1.24909 -2.13826,-4.52935 -2.6193,-8.5251 -1.03228,-8.5746 -3.67289,-14.26835 -9.51275,-20.51163 -6.0677,-6.48687 -12.27259,-9.63755 -21.75847,-11.0484 -8.39121,-1.24804 -10.91539,-3.08718 -10.91539,-7.95303 0,-4.63882 2.85861,-6.733402 10.70395,-7.843062 9.00769,-1.27407 16.28605,-4.94494 22.07464,-11.13341 5.73798,-6.13436 8.38043,-11.86407 9.40802,-20.39966 0.93389,-7.75731 3.00202,-10.55541 7.80171,-10.55541 4.94927,0 6.9135,2.57901 7.68551,10.09092 1.71698,16.70698 14.1924,29.5776 30.97282,31.954 8.26625,1.17064 9.19002,1.56963 10.55123,4.557152 1.58128,3.47053 1.43482,4.74762 -0.88227,7.69333 -1.5761,2.00369 -3.27234,2.71786 -7.75,3.263 -18.08,2.20115 -31.103,14.9391 -32.87096,32.15144 -0.41361,4.02683 -1.30601,6.92704 -2.53853,8.25 -2.5172,2.7019 -7.9093,2.70703 -10.35021,0.01 z m 17.47414,-51.08347 c -1.95431,-1.43757 -5.56536,-4.913882 -8.02457,-7.725122 l -4.47128,-5.11134 -3.42419,4.27636 c -1.8833,2.352 -5.35975,5.826222 -7.72543,7.720482 -2.36569,1.89425 -4.30125,3.70006 -4.30125,4.01289 0,0.31284 1.97719,2.05024 4.39375,3.86089 2.41657,1.81066 5.82639,5.20415 7.57739,7.5411 l 3.18364,4.24899 8.17261,-8.10524 8.17261,-8.10524 z m -258.77241,21.79932 c -1.19587,-1.27295 -2.17431,-3.01342 -2.17431,-3.86772 0,-0.85429 1.84602,-10.22029 4.10227,-20.81331 2.45882,-11.544132 3.72022,-19.509342 3.14863,-19.882292 -5.38991,-3.51681 -28.46325,-24.1201 -28.88251,-25.79059 -0.76739,-3.05751 0.39775,-6.1323 2.95987,-7.81106 1.25621,-0.82311 9.82453,-2.34873 20.26333,-3.60797 l 18.08675,-2.18182 8.87172,-17.83143 c 7.42575,-14.92514 9.34868,-18.02899 11.79806,-19.04356 5.38238,-2.22945 7.26056,-0.11262 17.08946,19.26086 l 8.93759,17.61665 18.01195,2.14908 c 10.97888,1.30994 18.90401,2.73358 20.29653,3.646 2.54852,1.66985 3.81734,5.31774 2.87851,8.27574 -0.34013,1.07166 -6.59202,6.9136 -13.89309,12.98209 -7.30107,6.06849 -13.81578,11.68562 -14.47713,12.4825 -0.95286,1.14812 -0.37105,5.34263 2.80279,20.206662 2.20289,10.31677 4.00526,19.52687 4.00526,20.46688 0,2.57199 -4.2621,6.05774 -7.40694,6.05774 -1.71809,0 -8.89096,-3.62464 -18.79971,-9.5 -8.81193,-5.225 -16.36894,-9.5 -16.79335,-9.5 -0.42441,0 -7.98142,4.275 -16.79335,9.5 -17.27572,10.24358 -20.30779,11.15015 -24.03233,7.18555 z m 27.94064,-26.852212 c 5.61439,-3.39167 11.38016,-6.16667 12.81282,-6.16667 1.43266,0 7.31853,2.7869 13.07971,6.19311 5.76119,3.406212 10.62769,5.734682 10.81445,5.174392 0.18677,-0.56029 -0.8335,-6.480762 -2.26725,-13.156612 -1.43376,-6.67586 -2.34187,-12.97274 -2.01802,-13.99308 0.32384,-1.02035 4.61057,-5.26731 9.52607,-9.4377 4.91549,-4.1704 8.93726,-7.92862 8.93726,-8.35162 0,-0.423 -5.06065,-1.31796 -11.24589,-1.98881 -8.7907,-0.95343 -11.71564,-1.66102 -13.39753,-3.24108 -1.18341,-1.11175 -4.56025,-7.15847 -7.50411,-13.43715 -2.94386,-6.27869 -5.58042,-11.41856 -5.85902,-11.42195 -0.27861,-0.003 -3.02959,5.34315 -6.11329,11.88121 -3.4878,7.39479 -6.53691,12.49684 -8.06796,13.50002 -1.46148,0.9576 -6.79759,2.08614 -13.13671,2.77831 -5.87152,0.64111 -10.67549,1.48183 -10.67549,1.86826 0,0.38644 4.01293,4.11565 8.91763,8.28713 4.9047,4.17148 9.19297,8.45201 9.52949,9.5123 0.33652,1.06028 -0.52641,7.19252 -1.91763,13.6272 -2.52396,11.673822 -2.93312,14.539402 -2.076,14.539402 0.24942,0 5.04708,-2.775 10.66147,-6.166662 z M 361.2246,110.57822 c -3.83427,-2.68563 -3.77246,-6.04773 0.25504,-13.873122 9.76825,-18.97958 14.52269,-23.78018 20.32569,-20.52303 3.86089,2.16705 4.94887,6.30878 2.68051,10.2041 -1.01488,1.7428 -4.00572,6.99372 -6.6463,11.668722 -2.64059,4.675 -5.76919,9.7375 -6.95245,11.25 -2.43525,3.11285 -6.30764,3.62316 -9.66249,1.27333 z m -217.11731,-0.19579 c -0.7043,-0.28301 -2.35264,-2.63026 -3.66299,-5.2161 -1.31034,-2.58584 -4.67074,-8.506262 -7.46755,-13.156482 -2.7968,-4.65023 -5.07165,-9.35496 -5.05521,-10.45496 0.069,-4.61333 5.45479,-7.92287 10.20093,-6.26835 2.74734,0.95772 9.04372,10.30234 15.15042,22.48511 3.15499,6.294152 3.2044,7.264152 0.54236,10.648382 -2.01107,2.55666 -6.148,3.39292 -9.70796,1.9624 z"
         id="path46698" />
    </g>
  </g>
</svg>
