<?xml version="1.0" encoding="UTF-8" standalone="no"?>
<!-- Created with Inkscape (http://www.inkscape.org/) -->

<svg
   width="793.70081"
   height="200.51968"
   viewBox="0 0 210 53.054168"
   version="1.1"
   id="svg64940"
   inkscape:version="1.1.1 (3bf5ae0d25, 2021-09-20)"
   sodipodi:docname="letter.svg"
   xmlns:inkscape="http://www.inkscape.org/namespaces/inkscape"
   xmlns:sodipodi="http://sodipodi.sourceforge.net/DTD/sodipodi-0.dtd"
   xmlns="http://www.w3.org/2000/svg"
   xmlns:svg="http://www.w3.org/2000/svg">
  <sodipodi:namedview
     id="namedview64942"
     pagecolor="#ffffff"
     bordercolor="#666666"
     borderopacity="1.0"
     inkscape:pageshadow="2"
     inkscape:pageopacity="0.0"
     inkscape:pagecheckerboard="0"
     inkscape:document-units="mm"
     showgrid="false"
     units="px"
     inkscape:zoom="0.74653479"
     inkscape:cx="497.63253"
     inkscape:cy="133.28247"
     inkscape:window-width="1920"
     inkscape:window-height="1001"
     inkscape:window-x="-9"
     inkscape:window-y="-9"
     inkscape:window-maximized="1"
     inkscape:current-layer="layer1" />
  <defs
     id="defs64937" />
  <g
     inkscape:label="Calque 1"
     inkscape:groupmode="layer"
     id="layer1">
    <path
       d="m 20.77827,38.353116 q -0.136888,0 -0.246725,-0.0903 -0.08213,-0.12027 -0.08213,-0.27052 v -20.3155 q 0,-0.15025 0.08213,-0.24053 0.109511,-0.12027 0.246725,-0.12027 h 3.205767 q 0.136889,0 0.219348,0.12027 0.109511,0.0903 0.109511,0.24053 v 16.8895 q 0,0.15026 0.136888,0.15026 h 7.343126 q 0.136888,0 0.219347,0.12026 0.109511,0.0903 0.109511,0.24053 v 2.91508 q 0,0.15025 -0.109511,0.27052 -0.08213,0.0903 -0.219347,0.0903 z"
       style="font-weight:bold;font-stretch:semi-condensed;font-size:53.3333px;line-height:1.25;font-family:'Barlow Semi Condensed';-inkscape-font-specification:'Barlow Semi Condensed, Bold Semi-Condensed';white-space:pre;shape-inside:url(#rect5278);display:inline;fill:#f25042;fill-opacity:1;stroke:#000000;stroke-width:1.54151;stroke-linecap:round;stroke-linejoin:round;stroke-miterlimit:4;stroke-dasharray:none"
       id="path15015" />
    <path
       d="m 34.450666,38.353116 q -0.136889,0 -0.246725,-0.0903 -0.08213,-0.12027 -0.08213,-0.27052 v -20.3155 q 0,-0.15025 0.08213,-0.24053 0.10951,-0.12027 0.246725,-0.12027 h 3.205767 q 0.136888,0 0.219347,0.12027 0.109511,0.0903 0.109511,0.24053 v 20.3155 q 0,0.15025 -0.109511,0.27052 -0.08213,0.0903 -0.219347,0.0903 z"
       style="font-weight:bold;font-stretch:semi-condensed;font-size:53.3333px;line-height:1.25;font-family:'Barlow Semi Condensed';-inkscape-font-specification:'Barlow Semi Condensed, Bold Semi-Condensed';white-space:pre;shape-inside:url(#rect5278);display:inline;fill:#f25042;fill-opacity:1;stroke:#000000;stroke-width:1.54151;stroke-linecap:round;stroke-linejoin:round;stroke-miterlimit:4;stroke-dasharray:none"
       id="path15017" />
    <path
       d="m 45.246088,38.353116 q -0.301481,0 -0.383582,-0.30051 l -4.767567,-20.34554 v -0.12027 q 0,-0.27052 0.301481,-0.27052 h 3.479739 q 0.301481,0 0.356204,0.33059 l 2.767365,13.97443 q 0.02607,0.12026 0.08213,0.12026 0.05476,0 0.08213,-0.12026 l 2.739987,-13.97443 q 0.05476,-0.33059 0.356171,-0.33059 h 3.370164 q 0.383614,0 0.30148,0.39069 l -4.822355,20.34555 q -0.08213,0.3005 -0.383581,0.3005 z"
       style="font-weight:bold;font-stretch:semi-condensed;font-size:53.3333px;line-height:1.25;font-family:'Barlow Semi Condensed';-inkscape-font-specification:'Barlow Semi Condensed, Bold Semi-Condensed';white-space:pre;shape-inside:url(#rect5278);display:inline;fill:#f25042;fill-opacity:1;stroke:#000000;stroke-width:1.54151;stroke-linecap:round;stroke-linejoin:round;stroke-miterlimit:4;stroke-dasharray:none"
       id="path15019" />
    <path
       d="m 67.65898,20.592056 q 0,0.15025 -0.109511,0.27051 -0.08213,0.0903 -0.219348,0.0903 h -7.343092 q -0.136889,0 -0.136889,0.15025 v 4.68817 q 0,0.15025 0.136889,0.15025 h 4.575727 q 0.136889,0 0.219348,0.12027 0.109511,0.0903 0.109511,0.24053 v 2.91511 q 0,0.15025 -0.109511,0.27051 -0.08213,0.0903 -0.219348,0.0903 h -4.575727 q -0.136889,0 -0.136889,0.15025 v 4.83845 q 0,0.15025 0.136889,0.15025 h 7.343092 q 0.136889,0 0.219348,0.12027 0.109511,0.0903 0.109511,0.24053 v 2.91508 q 0,0.15025 -0.109511,0.27052 -0.08213,0.0903 -0.219348,0.0903 H 56.315482 q -0.136888,0 -0.246725,-0.0903 -0.08213,-0.12027 -0.08213,-0.27052 v -20.3155 q 0,-0.15025 0.08213,-0.24053 0.109511,-0.12027 0.246725,-0.12027 h 11.014639 q 0.136889,0 0.219348,0.12027 0.109511,0.0903 0.109511,0.24053 z"
       style="font-weight:bold;font-stretch:semi-condensed;font-size:53.3333px;line-height:1.25;font-family:'Barlow Semi Condensed';-inkscape-font-specification:'Barlow Semi Condensed, Bold Semi-Condensed';white-space:pre;shape-inside:url(#rect5278);display:inline;fill:#f25042;fill-opacity:1;stroke:#000000;stroke-width:1.54151;stroke-linecap:round;stroke-linejoin:round;stroke-miterlimit:4;stroke-dasharray:none"
       id="path15021" />
    <path
       d="m 79.879182,38.323066 q -0.13689,0 -0.24672,-0.0903 -0.0821,-0.12027 -0.0821,-0.27052 v -7.69346 l -0.0261,-0.18024 -4.740158,-12.35159 q -0.02607,-0.06 -0.02607,-0.18023 0,-0.24053 0.274103,-0.24053 h 3.452355 q 0.30148,0 0.38358,0.3005 l 2.54818,7.60331 q 0.0261,0.0903 0.0821,0.0903 0.0547,0 0.0821,-0.0903 l 2.54815,-7.60331 q 0.0821,-0.3005 0.38361,-0.3005 h 3.45236 q 0.19165,0 0.24673,0.12026 0.0547,0.12027 0,0.3005 l -4.76757,12.35159 -0.0261,0.18024 v 7.69346 q 0,0.15025 -0.10951,0.27052 -0.0821,0.0903 -0.21935,0.0903 z"
       style="font-weight:bold;font-stretch:semi-condensed;font-size:53.3333px;line-height:1.25;font-family:'Barlow Semi Condensed';-inkscape-font-specification:'Barlow Semi Condensed, Bold Semi-Condensed';white-space:pre;shape-inside:url(#rect5278);display:inline;fill:#ffffff;fill-opacity:1;stroke:#000000;stroke-width:1.54151;stroke-linecap:round;stroke-linejoin:round;stroke-miterlimit:4;stroke-dasharray:none"
       id="path15023" />
    <path
       d="m 95.661322,38.623596 q -1.89056,0 -3.34275,-0.84147 -1.42478,-0.84147 -2.21939,-2.37417 -0.79457,-1.53266 -0.79457,-3.57625 v -7.99396 q 0,-2.01353 0.79457,-3.5462 0.79461,-1.53269 2.21939,-2.37417 1.45219,-0.84147 3.34275,-0.84147 1.890601,0 3.342757,0.84147 1.452191,0.84148 2.246791,2.37417 0.79458,1.53267 0.79458,3.5462 v 7.99396 q 0,2.04359 -0.79458,3.57625 -0.7946,1.5327 -2.246791,2.37417 -1.452156,0.84147 -3.342757,0.84147 z m 0,-3.63638 q 1.150811,0 1.835781,-0.81142 0.68499,-0.84144 0.68499,-2.16378 v -8.2945 q 0,-1.35237 -0.68499,-2.16376 -0.68497,-0.84147 -1.835781,-0.84147 -1.12336,0 -1.80836,0.84147 -0.685,0.81139 -0.685,2.16376 v 8.2945 q 0,1.32234 0.685,2.16378 0.685,0.81142 1.80836,0.81142 z"
       style="font-weight:bold;font-stretch:semi-condensed;font-size:53.3333px;line-height:1.25;font-family:'Barlow Semi Condensed';-inkscape-font-specification:'Barlow Semi Condensed, Bold Semi-Condensed';white-space:pre;shape-inside:url(#rect5278);display:inline;fill:#ffffff;fill-opacity:1;stroke:#000000;stroke-width:1.54151;stroke-linecap:round;stroke-linejoin:round;stroke-miterlimit:4;stroke-dasharray:none"
       id="path15025" />
    <path
       d="m 110.75853,38.593546 q -1.86318,0 -3.28796,-0.84147 -1.42478,-0.84147 -2.21939,-2.34412 -0.7672,-1.53266 -0.7672,-3.51615 v -14.21483 q 0,-0.15025 0.0821,-0.24053 0.10951,-0.12027 0.24672,-0.12027 h 3.20577 q 0.13689,0 0.21935,0.12027 0.10951,0.0903 0.10951,0.24053 v 14.42522 q 0,1.29226 0.65762,2.0736 0.65758,0.78137 1.75357,0.78137 1.09599,0 1.75358,-0.78137 0.65758,-0.78134 0.65758,-2.0736 v -14.42522 q 0,-0.15025 0.0821,-0.24053 0.10951,-0.12027 0.24672,-0.12027 h 3.20577 q 0.13689,0 0.21935,0.12027 0.10951,0.0903 0.10951,0.24053 v 14.21483 q 0,1.98349 -0.79461,3.51615 -0.76716,1.50265 -2.19197,2.34412 -1.42479,0.84147 -3.28794,0.84147 z"
       style="font-weight:bold;font-stretch:semi-condensed;font-size:53.3333px;line-height:1.25;font-family:'Barlow Semi Condensed';-inkscape-font-specification:'Barlow Semi Condensed, Bold Semi-Condensed';white-space:pre;shape-inside:url(#rect5278);display:inline;fill:#ffffff;fill-opacity:1;stroke:#000000;stroke-width:1.54151;stroke-linecap:round;stroke-linejoin:round;stroke-miterlimit:4;stroke-dasharray:none"
       id="path15027" />
    <path
       d="m 128.81488,38.353116 q -0.30148,0 -0.38361,-0.30051 l -2.76737,-8.2945 q -0.0547,-0.12026 -0.13689,-0.12026 h -1.72619 q -0.13689,0 -0.13689,0.15025 v 8.20435 q 0,0.15025 -0.10951,0.27052 -0.0821,0.0903 -0.21935,0.0903 h -3.20577 q -0.13689,0 -0.24672,-0.0903 -0.0821,-0.12027 -0.0821,-0.27052 v -20.3155 q 0,-0.15025 0.0821,-0.24053 0.10951,-0.12027 0.24672,-0.12027 h 6.68551 q 1.61659,0 2.87697,0.81142 1.26039,0.78138 1.94538,2.22389 0.685,1.44251 0.685,3.30576 0,1.92338 -0.76719,3.33584 -0.7672,1.41246 -2.16457,2.10369 -0.13689,0.06 -0.0821,0.21022 l 3.12357,8.62508 q 0.0261,0.06 0.0261,0.15026 0,0.27051 -0.30148,0.27051 z m -5.01416,-17.40043 q -0.13689,0 -0.13689,0.15025 v 5.13896 q 0,0.15025 0.13689,0.15025 h 2.38378 q 1.01379,0 1.644,-0.72127 0.63018,-0.75132 0.63018,-1.98348 0,-1.26218 -0.63018,-1.98345 -0.63021,-0.75132 -1.644,-0.75132 z"
       style="font-weight:bold;font-stretch:semi-condensed;font-size:53.3333px;line-height:1.25;font-family:'Barlow Semi Condensed';-inkscape-font-specification:'Barlow Semi Condensed, Bold Semi-Condensed';white-space:pre;shape-inside:url(#rect5278);display:inline;fill:#ffffff;fill-opacity:1;stroke:#000000;stroke-width:1.54151;stroke-linecap:round;stroke-linejoin:round;stroke-miterlimit:4;stroke-dasharray:none"
       id="path15029" />
    <path
       d="m 152.07713,17.316346 q 0.13689,0 0.21903,0.12026 0.10951,0.0903 0.10951,0.24054 v 2.94512 q 0,0.15025 -0.10951,0.27052 -0.0821,0.0903 -0.21903,0.0903 h -4.16473 q -0.13689,0 -0.13689,0.15025 v 16.85945 q 0,0.15026 -0.10951,0.27052 -0.0821,0.0903 -0.21935,0.0903 h -3.20577 q -0.13688,0 -0.24672,-0.0903 -0.0821,-0.12026 -0.0821,-0.27052 v -16.85945 q 0,-0.15025 -0.13689,-0.15025 h -4.02775 q -0.13689,0 -0.24673,-0.0903 -0.0821,-0.12027 -0.0821,-0.27052 v -2.94512 q 0,-0.15026 0.0821,-0.24054 0.10951,-0.12026 0.24673,-0.12026 z"
       style="font-weight:bold;font-stretch:semi-condensed;font-size:53.3333px;line-height:1.25;font-family:'Barlow Semi Condensed';-inkscape-font-specification:'Barlow Semi Condensed, Bold Semi-Condensed';white-space:pre;shape-inside:url(#rect5278);display:inline;fill:#f25042;fill-opacity:1;stroke:#000000;stroke-width:1.54151;stroke-linecap:round;stroke-linejoin:round;stroke-miterlimit:4;stroke-dasharray:none"
       id="path15031" />
    <path
       d="m 163.58496,38.353116 q -0.30148,0 -0.38358,-0.30051 l -2.76736,-8.2945 q -0.0548,-0.12026 -0.13689,-0.12026 h -1.72617 q -0.13688,0 -0.13688,0.15025 v 8.20435 q 0,0.15025 -0.10952,0.27052 -0.0821,0.0903 -0.21934,0.0903 h -3.20574 q -0.13689,0 -0.24672,-0.0903 -0.0821,-0.12027 -0.0821,-0.27052 v -20.3155 q 0,-0.15025 0.0821,-0.24053 0.10951,-0.12027 0.24672,-0.12027 h 6.68551 q 1.61659,0 2.87697,0.81142 1.26039,0.78138 1.94538,2.22389 0.68497,1.44251 0.68497,3.30576 0,1.92338 -0.76716,3.33584 -0.7672,1.41246 -2.1646,2.10369 -0.13689,0.06 -0.0821,0.21022 l 3.12357,8.62508 q 0.0261,0.06 0.0261,0.15026 0,0.27051 -0.30148,0.27051 z m -5.01413,-17.40043 q -0.13689,0 -0.13689,0.15025 v 5.13896 q 0,0.15025 0.13689,0.15025 h 2.38379 q 1.01375,0 1.64396,-0.72127 0.63018,-0.75132 0.63018,-1.98348 0,-1.26218 -0.63018,-1.98345 -0.63021,-0.75132 -1.64396,-0.75132 z"
       style="font-weight:bold;font-stretch:semi-condensed;font-size:53.3333px;line-height:1.25;font-family:'Barlow Semi Condensed';-inkscape-font-specification:'Barlow Semi Condensed, Bold Semi-Condensed';white-space:pre;shape-inside:url(#rect5278);display:inline;fill:#f25042;fill-opacity:1;stroke:#000000;stroke-width:1.54151;stroke-linecap:round;stroke-linejoin:round;stroke-miterlimit:4;stroke-dasharray:none"
       id="path15033" />
    <path
       d="m 169.77728,38.353116 q -0.13689,0 -0.24673,-0.0903 -0.0821,-0.12027 -0.0821,-0.27052 v -20.3155 q 0,-0.15025 0.0821,-0.24053 0.10951,-0.12027 0.24673,-0.12027 h 3.20577 q 0.13688,0 0.21934,0.12027 0.10951,0.0903 0.10951,0.24053 v 20.3155 q 0,0.15025 -0.10951,0.27052 -0.0821,0.0903 -0.21934,0.0903 z"
       style="font-weight:bold;font-stretch:semi-condensed;font-size:53.3333px;line-height:1.25;font-family:'Barlow Semi Condensed';-inkscape-font-specification:'Barlow Semi Condensed, Bold Semi-Condensed';white-space:pre;shape-inside:url(#rect5278);display:inline;fill:#f25042;fill-opacity:1;stroke:#000000;stroke-width:1.54151;stroke-linecap:round;stroke-linejoin:round;stroke-miterlimit:4;stroke-dasharray:none"
       id="path15035" />
    <path
       d="m 183.06606,17.286296 q 1.64397,0 2.90435,0.81142 1.2878,0.81142 1.97279,2.28398 0.71238,1.47257 0.71238,3.3659 0,1.86325 -0.71238,3.30576 -0.68499,1.41246 -1.97279,2.19383 -1.26038,0.78138 -2.90435,0.78138 h -2.95917 q -0.13689,0 -0.13689,0.15025 v 7.81366 q 0,0.15025 -0.10951,0.27052 -0.0821,0.0903 -0.21935,0.0903 h -3.20576 q -0.13689,0 -0.24673,-0.0903 -0.0821,-0.12027 -0.0821,-0.27052 v -20.34555 q 0,-0.15025 0.0821,-0.24053 0.10951,-0.12027 0.24673,-0.12027 z m -0.63018,9.37637 q 1.06858,0 1.69876,-0.75132 0.65759,-0.78134 0.65759,-2.0736 0,-1.32231 -0.65759,-2.10368 -0.63018,-0.78138 -1.69876,-0.78138 h -2.32899 q -0.13689,0 -0.13689,0.15025 v 5.40945 q 0,0.15025 0.13689,0.15025 z"
       style="font-weight:bold;font-stretch:semi-condensed;font-size:53.3333px;line-height:1.25;font-family:'Barlow Semi Condensed';-inkscape-font-specification:'Barlow Semi Condensed, Bold Semi-Condensed';white-space:pre;shape-inside:url(#rect5278);display:inline;fill:#f25042;fill-opacity:1;stroke:#000000;stroke-width:1.54151;stroke-linecap:round;stroke-linejoin:round;stroke-miterlimit:4;stroke-dasharray:none"
       id="path15037" />
  </g>
</svg>
