<?xml version="1.0" encoding="UTF-8" standalone="no"?>
<!-- Created with Inkscape (http://www.inkscape.org/) -->

<svg
   width="300"
   height="150"
   viewBox="0 0 79.374996 39.687501"
   version="1.1"
   id="svg35429"
   inkscape:version="1.1.1 (3bf5ae0d25, 2021-09-20)"
   sodipodi:docname="logo.svg"
   xmlns:inkscape="http://www.inkscape.org/namespaces/inkscape"
   xmlns:sodipodi="http://sodipodi.sourceforge.net/DTD/sodipodi-0.dtd"
   xmlns="http://www.w3.org/2000/svg"
   xmlns:svg="http://www.w3.org/2000/svg">
  <sodipodi:namedview
     id="namedview35431"
     pagecolor="#ffffff"
     bordercolor="#666666"
     borderopacity="1.0"
     inkscape:pageshadow="2"
     inkscape:pageopacity="0.0"
     inkscape:pagecheckerboard="0"
     inkscape:document-units="px"
     showgrid="false"
     units="px"
     inkscape:zoom="16"
     inkscape:cx="32.5"
     inkscape:cy="90.28125"
     inkscape:window-width="1920"
     inkscape:window-height="1001"
     inkscape:window-x="-9"
     inkscape:window-y="-9"
     inkscape:window-maximized="1"
     inkscape:current-layer="layer8" />
  <defs
     id="defs35426" />
  <g
     inkscape:groupmode="layer"
     id="layer8"
     inkscape:label="Calque 4"
     style="display:none">
    <rect
       style="fill:#f9f4ef;fill-opacity:1;stroke:#ffffff;stroke-width:3.78354;stroke-linecap:round;stroke-linejoin:round;stroke-miterlimit:4;stroke-dasharray:none;stroke-opacity:1"
       id="rect38401"
       width="75.116104"
       height="42.74976"
       x="-0.65481037"
       y="-3.8353179" />
  </g>
  <g
     inkscape:groupmode="layer"
     id="layer10"
     inkscape:label="Calque 6">
    <path
       id="rect39606"
       style="fill:#ffffff;fill-opacity:1;stroke:none;stroke-width:3.21686;stroke-linecap:round;stroke-linejoin:round;stroke-miterlimit:4;stroke-dasharray:none;stroke-opacity:1"
       d="m 12.798702,24.486877 v 0.769979 L 8.3307575,25.70334 7.9834919,29.540832 h 0.6779948 v 0.681096 h 1.0759036 v 1.052131 h 0.9741007 v 0.186037 h 2.087211 v 0.197403 h 1.824178 v -7.170622 z"
       sodipodi:nodetypes="ccccccccccccccc" />
  </g>
  <g
     inkscape:groupmode="layer"
     id="layer9"
     inkscape:label="Calque 5"
     style="display:inline">
    <rect
       style="fill:#ffffff;fill-opacity:1;stroke:none;stroke-width:7.6441;stroke-linecap:round;stroke-linejoin:round;stroke-miterlimit:4;stroke-dasharray:none;stroke-opacity:1"
       id="rect38763"
       width="2.0113258"
       height="16.375456"
       x="10.181538"
       y="8.5125341" />
    <rect
       style="fill:#ffffff;fill-opacity:1;stroke:none;stroke-width:3.78354;stroke-linecap:round;stroke-linejoin:round;stroke-miterlimit:4;stroke-dasharray:none;stroke-opacity:1"
       id="rect39245"
       width="4.1436186"
       height="0.61468005"
       x="10.850111"
       y="32.017609" />
  </g>
  <g
     inkscape:label="Calque 1"
     inkscape:groupmode="layer"
     id="layer1"
     style="display:inline">
    <g
       id="g28490"
       transform="matrix(0.09183491,0,0,0.09476152,-32.312323,208.167)"
       style="display:inline">
      <path
         id="rect18889"
         style="display:inline;fill:#f25042;fill-opacity:1;stroke:none;stroke-width:7.4183;stroke-linecap:round;stroke-linejoin:round;stroke-miterlimit:4;stroke-dasharray:none;stroke-dashoffset:0;stroke-opacity:1"
         d="m 488.84468,-2083.0174 v 102.9629 h 2.0156 v 2.8008 h 21.9727 v -0.5527 h 17.29097 v -5.2032 h 20.49219 v -4.4531 h 16.57226 v -7.4082 h 14.0293 v -6.4785 h 11.87305 v -4.2422 h 13.19141 v -8.5117 h 13.87304 v -6.9356 h 5.17188 l 0.40625,1.0489 2.70703,-1.0489 h 2.43359 v -0.9414 l 36.45899,-14.123 -2.22461,-5.7442 h 24.8789 v -2.207 h 16.07813 v -10.0879 h -16.07813 v -8.3301 H 593.09075 582.1845 550.61614 v -4 h -20.49219 v -1.3398 h -17.29097 v -8.5898 h -10.1172 v -6.6153 z" />
      <path
         style="display:inline;fill:#000000;stroke-width:0.594671"
         d="m 462.34648,-1843.2615 -1.7744,-1.0884 v -8.7576 c 0,-4.8166 -0.3252,-9.7028 -0.7181,-10.858 -0.5883,-1.7298 -2.8362,-3.7223 -12.7372,-11.29 -7.2313,-5.5273 -12.5664,-10.0481 -13.3871,-11.3438 -2.3264,-3.6736 -2.9557,-8.3903 -2.6764,-20.0612 0.2602,-10.8665 0.2602,-10.8671 2.3374,-14.2802 2.4664,-4.0527 6.6449,-7.414 11.536,-9.28 2.7305,-1.0417 4.9526,-1.4176 9.601,-1.6243 l 6.0482,-0.2689 v -66.021 c 0,-65.9967 4e-4,-66.0217 1.3957,-67.4048 1.0672,-1.0578 1.9939,-1.3835 3.9363,-1.3835 4.76388,0 4.80013,-5.0379 4.77452,51.8328 -0.002,5.0344 -0.005,10.5539 -0.005,16.605 v 66.5172 h 5.0508 5.0509 v -84.725 c 0,-80.0397 -0.065,-84.7686 -1.1786,-85.5142 -1.8332,-1.2278 -3.3298,-1.4753 -5.4441,-0.9006 -3.0401,0.8263 -3.479,2.3037 -3.479,11.7101 0,7.4883 -0.1473,8.6609 -1.1784,9.3786 -2.5829,1.7977 -6.9936,1.1821 -8.2317,-1.1488 -0.5784,-1.0886 -0.7554,-4.2792 -0.5904,-10.6403 0.229,-8.8297 0.2883,-9.1552 2.1055,-11.5657 4.926,-6.5343 17.8585,-7.555 24.3823,-1.9244 3.3269,2.8715 3.7159,3.9284 3.7159,10.0971 v 5.3614 l 4.8824,3.7066 c 23.5632,17.8884 47.91288,24.6449 82.20077,22.8089 5.9962,-0.3211 18.32686,-1.2854 27.40144,-2.1428 9.07458,-0.8575 21.59798,-1.838 27.82975,-2.1789 23.64,-1.2932 43.89553,1.4763 61.51154,8.4102 10.113,3.9807 25.76176,13.4848 33.29858,20.2235 3.16302,2.8281 3.66235,4.8778 1.61745,6.6397 -1.67744,1.4453 -5.02687,1.3534 -9.08297,-0.2493 -1.81837,-0.7185 -5.89447,-1.8912 -9.058,-2.6061 -15.01109,-3.392 -30.04859,-1.8242 -50.68488,5.2842 -6.76704,2.331 -8.50415,2.7399 -9.89226,2.3284 -2.15314,-0.6383 -3.24924,-2.2472 -2.98455,-4.3808 0.19417,-1.5652 0.68975,-1.87 7.11432,-4.3762 13.98887,-5.457 27.51033,-8.1773 41.07689,-8.2642 4.90769,-0.032 8.92307,-0.1118 8.92307,-0.1786 0,-0.067 -2.24206,-1.3011 -4.98235,-2.743 -13.93793,-7.3337 -27.90526,-11.0432 -46.02963,-12.2247 -11.39481,-0.7428 -23.24809,-0.2061 -48.52459,2.1972 -9.00181,0.8558 -21.28636,1.7981 -27.29905,2.094 -33.27886,1.6373 -58.16083,-4.2447 -81.35573,-19.2319 -2.8321,-1.8301 -5.3323,-3.3274 -5.5558,-3.3274 -0.2235,0 -0.4064,21.124 -0.4064,46.9422 v 46.9421 l 4.288,1.3385 c 7.4888,2.3377 14.4638,3.1547 23.9753,2.8085 21.38469,-0.7785 38.52183,-7.1471 82.18067,-30.5405 29.17288,-15.6315 27.94699,-15.132 30.97302,-12.6203 2.1406,1.7767 2.11697,4.3757 -0.0509,5.6056 -8.10278,4.5967 -46.74889,24.9098 -53.8593,28.3094 -19.44221,9.2957 -34.53864,14.2739 -50.13089,16.5313 -8.1908,1.1858 -21.3839,0.8125 -28.9579,-0.8192 -2.9632,-0.6384 -6.074,-1.2821 -6.9129,-1.4304 l -1.5254,-0.2697 0.1784,15.6849 0.1787,15.685 5.0634,0.3213 c 8.3895,0.5323 14.9589,3.8297 18.888,9.4806 l 2.3126,3.326 0.3551,32.8199 0.355,32.8198 5.2009,10.1191 c 2.8604,5.5656 5.2008,10.5977 5.2008,11.1826 0,0.5849 -0.7439,1.6435 -1.653,2.3524 l -1.653,1.2889 H 494.706 c -29.9186,0 -30.6197,-0.024 -32.3557,-1.0883 z m 53.4476,-7.1283 c 0,-0.187 -0.6467,-1.723 -1.4372,-3.4133 l -1.437,-3.0733 h -21.1231 -21.123 v 3.4132 3.4133 h 22.5601 c 12.4081,0 22.5602,-0.153 22.5602,-0.3399 z m -7.4078,-47.0936 -0.3368,-32.7308 -2.0202,-2.5428 c -2.606,-3.2799 -6.5619,-4.9875 -11.5544,-4.9875 h -3.5981 v 5.7382 c 0,8.3461 1.1582,7.9118 -21.1357,7.9264 -15.5538,0.01 -17.899,0.1221 -20.2865,0.9678 -3.3951,1.2027 -6.779,4.1705 -7.6983,6.7518 -0.3885,1.0909 -0.7081,6.4895 -0.7101,11.9967 -0.01,14.3048 -0.3957,13.5784 12.294,22.8801 11.9449,8.7557 13.3346,10.008 15.3827,13.861 l 1.5252,2.8693 19.2374,3e-4 19.2375,2e-4 z"
         id="path250"
         sodipodi:nodetypes="ccsscccssscscssscccsccscccscscsscscssscsssscscscccsscscssccssscccssccccsscsccsccccccsscccscsccscsscccc" />
      <g
         aria-label="LIVE YOUR TRIP"
         transform="matrix(1.7164104,0,0,1.8244537,1455.5953,-2925.4937)"
         id="text5276"
         style="font-size:40px;line-height:1.25;white-space:pre;shape-inside:url(#rect5278);display:inline;fill:none;stroke:#000000;stroke-width:2.86504;stroke-linecap:round;stroke-linejoin:round;stroke-miterlimit:4;stroke-dasharray:none">
        <path
           d="m -523.66615,590.85522 q -0.26666,0 -0.48,-0.16 -0.16,-0.21333 -0.16,-0.48 v -36.05331 q 0,-0.26667 0.16,-0.42667 0.21334,-0.21333 0.48,-0.21333 h 6.24 q 0.26666,0 0.42666,0.21333 0.21334,0.16 0.21334,0.42667 v 29.97332 q 0,0.26666 0.26666,0.26666 h 14.29333 q 0.26667,0 0.42667,0.21333 0.21333,0.16 0.21333,0.42667 v 5.17333 q 0,0.26667 -0.21333,0.48 -0.16,0.16 -0.42667,0.16 z"
           style="font-weight:bold;font-stretch:semi-condensed;font-size:53.3333px;font-family:'Barlow Semi Condensed';-inkscape-font-specification:'Barlow Semi Condensed, Bold Semi-Condensed';fill:#f25042;fill-opacity:1;stroke-width:2.86504;stroke-miterlimit:4;stroke-dasharray:none"
           id="path15015" />
        <path
           d="m -497.0529,590.85522 q -0.26667,0 -0.48,-0.16 -0.16,-0.21333 -0.16,-0.48 v -36.05331 q 0,-0.26667 0.16,-0.42667 0.21333,-0.21333 0.48,-0.21333 h 6.23999 q 0.26667,0 0.42667,0.21333 0.21333,0.16 0.21333,0.42667 v 36.05331 q 0,0.26667 -0.21333,0.48 -0.16,0.16 -0.42667,0.16 z"
           style="font-weight:bold;font-stretch:semi-condensed;font-size:53.3333px;font-family:'Barlow Semi Condensed';-inkscape-font-specification:'Barlow Semi Condensed, Bold Semi-Condensed';fill:#f25042;fill-opacity:1;stroke-width:2.86504;stroke-miterlimit:4;stroke-dasharray:none"
           id="path15017" />
        <path
           d="m -476.03967,590.85522 q -0.58667,0 -0.74667,-0.53333 l -9.27999,-36.10665 v -0.21333 q 0,-0.48 0.58667,-0.48 h 6.77333 q 0.58666,0 0.69333,0.58667 l 5.38666,24.79998 q 0.0533,0.21333 0.16,0.21333 0.10667,0 0.16,-0.21333 l 5.33333,-24.79998 q 0.10667,-0.58667 0.69334,-0.58667 h 6.55999 q 0.74667,0 0.58667,0.69333 l -9.38666,36.10665 q -0.16,0.53333 -0.74667,0.53333 z"
           style="font-weight:bold;font-stretch:semi-condensed;font-size:53.3333px;font-family:'Barlow Semi Condensed';-inkscape-font-specification:'Barlow Semi Condensed, Bold Semi-Condensed';fill:#f25042;fill-opacity:1;stroke-width:2.86504;stroke-miterlimit:4;stroke-dasharray:none"
           id="path15019" />
        <path
           d="m -432.41313,559.33524 q 0,0.26667 -0.21333,0.48 -0.16,0.16 -0.42667,0.16 h -14.29332 q -0.26667,0 -0.26667,0.26667 v 8.31999 q 0,0.26667 0.26667,0.26667 h 8.90666 q 0.26667,0 0.42667,0.21333 0.21333,0.16 0.21333,0.42667 v 5.17333 q 0,0.26666 -0.21333,0.48 -0.16,0.16 -0.42667,0.16 h -8.90666 q -0.26667,0 -0.26667,0.26666 v 8.58667 q 0,0.26666 0.26667,0.26666 h 14.29332 q 0.26667,0 0.42667,0.21333 0.21333,0.16 0.21333,0.42667 v 5.17333 q 0,0.26667 -0.21333,0.48 -0.16,0.16 -0.42667,0.16 h -21.43998 q -0.26667,0 -0.48,-0.16 -0.16,-0.21333 -0.16,-0.48 v -36.05331 q 0,-0.26667 0.16,-0.42667 0.21333,-0.21333 0.48,-0.21333 h 21.43998 q 0.26667,0 0.42667,0.21333 0.21333,0.16 0.21333,0.42667 z"
           style="font-weight:bold;font-stretch:semi-condensed;font-size:53.3333px;font-family:'Barlow Semi Condensed';-inkscape-font-specification:'Barlow Semi Condensed, Bold Semi-Condensed';fill:#f25042;fill-opacity:1;stroke-width:2.86504;stroke-miterlimit:4;stroke-dasharray:none"
           id="path15021" />
        <path
           d="m -408.62655,590.80189 q -0.26667,0 -0.48,-0.16 -0.16,-0.21334 -0.16,-0.48 v -13.65333 l -0.0533,-0.32 -9.22666,-21.91998 q -0.0533,-0.10667 -0.0533,-0.32 0,-0.42667 0.53333,-0.42667 h 6.72 q 0.58667,0 0.74667,0.53333 l 4.95999,13.49333 q 0.0533,0.16 0.16,0.16 0.10667,0 0.16,-0.16 l 4.96,-13.49333 q 0.16,-0.53333 0.74667,-0.53333 h 6.71999 q 0.37333,0 0.48,0.21333 0.10667,0.21334 0,0.53334 l -9.27999,21.91998 -0.0533,0.32 v 13.65333 q 0,0.26666 -0.21333,0.48 -0.16,0.16 -0.42667,0.16 z"
           style="font-weight:bold;font-stretch:semi-condensed;font-size:53.3333px;font-family:'Barlow Semi Condensed';-inkscape-font-specification:'Barlow Semi Condensed, Bold Semi-Condensed';fill:#ffffff;fill-opacity:1;stroke-width:2.86504;stroke-miterlimit:4;stroke-dasharray:none"
           id="path15023" />
        <path
           d="m -377.90667,591.33522 q -3.68,0 -6.50666,-1.49333 -2.77333,-1.49333 -4.32,-4.21333 -1.54666,-2.72 -1.54666,-6.34667 v -14.18665 q 0,-3.57333 1.54666,-6.29333 1.54667,-2.72 4.32,-4.21333 2.82666,-1.49334 6.50666,-1.49334 3.68,0 6.50666,1.49334 2.82667,1.49333 4.37334,4.21333 1.54666,2.72 1.54666,6.29333 v 14.18665 q 0,3.62667 -1.54666,6.34667 -1.54667,2.72 -4.37334,4.21333 -2.82666,1.49333 -6.50666,1.49333 z m 0,-6.45333 q 2.24,0 3.57333,-1.44 1.33334,-1.49333 1.33334,-3.84 V 564.8819 q 0,-2.4 -1.33334,-3.83999 -1.33333,-1.49334 -3.57333,-1.49334 -2.18666,0 -3.52,1.49334 -1.33333,1.43999 -1.33333,3.83999 v 14.71999 q 0,2.34667 1.33333,3.84 1.33334,1.44 3.52,1.44 z"
           style="font-weight:bold;font-stretch:semi-condensed;font-size:53.3333px;font-family:'Barlow Semi Condensed';-inkscape-font-specification:'Barlow Semi Condensed, Bold Semi-Condensed';fill:#ffffff;fill-opacity:1;stroke-width:2.86504;stroke-miterlimit:4;stroke-dasharray:none"
           id="path15025" />
        <path
           d="m -348.52007,591.28189 q -3.62667,0 -6.4,-1.49333 -2.77333,-1.49334 -4.32,-4.16 -1.49333,-2.72 -1.49333,-6.24 v -25.22665 q 0,-0.26667 0.16,-0.42667 0.21334,-0.21333 0.48,-0.21333 h 6.24 q 0.26666,0 0.42666,0.21333 0.21334,0.16 0.21334,0.42667 v 25.59998 q 0,2.29334 1.28,3.68 1.28,1.38667 3.41333,1.38667 2.13333,0 3.41333,-1.38667 1.28,-1.38666 1.28,-3.68 v -25.59998 q 0,-0.26667 0.16,-0.42667 0.21333,-0.21333 0.48,-0.21333 h 6.23999 q 0.26667,0 0.42667,0.21333 0.21333,0.16 0.21333,0.42667 v 25.22665 q 0,3.52 -1.54666,6.24 -1.49333,2.66666 -4.26667,4.16 -2.77333,1.49333 -6.39999,1.49333 z"
           style="font-weight:bold;font-stretch:semi-condensed;font-size:53.3333px;font-family:'Barlow Semi Condensed';-inkscape-font-specification:'Barlow Semi Condensed, Bold Semi-Condensed';fill:#ffffff;fill-opacity:1;stroke-width:2.86504;stroke-miterlimit:4;stroke-dasharray:none"
           id="path15027" />
        <path
           d="m -313.37347,590.85522 q -0.58667,0 -0.74667,-0.53333 l -5.38666,-14.71999 q -0.10667,-0.21334 -0.26667,-0.21334 h -3.36 q -0.26667,0 -0.26667,0.26667 v 14.55999 q 0,0.26667 -0.21333,0.48 -0.16,0.16 -0.42666,0.16 h -6.24 q -0.26667,0 -0.48,-0.16 -0.16,-0.21333 -0.16,-0.48 v -36.05331 q 0,-0.26667 0.16,-0.42667 0.21333,-0.21333 0.48,-0.21333 h 13.01332 q 3.14667,0 5.6,1.44 2.45333,1.38667 3.78667,3.94666 1.33333,2.56 1.33333,5.86667 0,3.41333 -1.49333,5.91999 -1.49334,2.50667 -4.21334,3.73333 -0.26666,0.10667 -0.16,0.37334 l 6.08,15.30666 q 0.0533,0.10666 0.0533,0.26666 0,0.48 -0.58666,0.48 z m -9.76,-30.87998 q -0.26667,0 -0.26667,0.26667 v 9.11999 q 0,0.26667 0.26667,0.26667 h 4.64 q 1.97333,0 3.2,-1.28 1.22666,-1.33333 1.22666,-3.52 0,-2.24 -1.22666,-3.52 -1.22667,-1.33333 -3.2,-1.33333 z"
           style="font-weight:bold;font-stretch:semi-condensed;font-size:53.3333px;font-family:'Barlow Semi Condensed';-inkscape-font-specification:'Barlow Semi Condensed, Bold Semi-Condensed';fill:#ffffff;fill-opacity:1;stroke-width:2.86504;stroke-miterlimit:4;stroke-dasharray:none"
           id="path15029" />
        <path
           d="m -268.0936,553.52191 q 0.26666,0 0.42666,0.21333 0.21334,0.16 0.21334,0.42667 v 5.22666 q 0,0.26667 -0.21334,0.48 -0.16,0.16 -0.42666,0.16 h -8.10667 q -0.26666,0 -0.26666,0.26667 v 29.91998 q 0,0.26667 -0.21333,0.48 -0.16,0.16 -0.42667,0.16 h -6.24 q -0.26666,0 -0.48,-0.16 -0.16,-0.21333 -0.16,-0.48 v -29.91998 q 0,-0.26667 -0.26666,-0.26667 h -7.84 q -0.26667,0 -0.48,-0.16 -0.16,-0.21333 -0.16,-0.48 v -5.22666 q 0,-0.26667 0.16,-0.42667 0.21333,-0.21333 0.48,-0.21333 z"
           style="font-weight:bold;font-stretch:semi-condensed;font-size:53.3333px;font-family:'Barlow Semi Condensed';-inkscape-font-specification:'Barlow Semi Condensed, Bold Semi-Condensed';fill:#f25042;fill-opacity:1;stroke-width:2.86504;stroke-miterlimit:4;stroke-dasharray:none"
           id="path15031" />
        <path
           d="m -245.69366,590.85522 q -0.58667,0 -0.74667,-0.53333 l -5.38666,-14.71999 q -0.10667,-0.21334 -0.26667,-0.21334 h -3.36 q -0.26667,0 -0.26667,0.26667 v 14.55999 q 0,0.26667 -0.21333,0.48 -0.16,0.16 -0.42667,0.16 h -6.23999 q -0.26667,0 -0.48,-0.16 -0.16,-0.21333 -0.16,-0.48 v -36.05331 q 0,-0.26667 0.16,-0.42667 0.21333,-0.21333 0.48,-0.21333 h 13.01332 q 3.14667,0 5.6,1.44 2.45333,1.38667 3.78667,3.94666 1.33333,2.56 1.33333,5.86667 0,3.41333 -1.49333,5.91999 -1.49334,2.50667 -4.21334,3.73333 -0.26666,0.10667 -0.16,0.37334 l 6.08,15.30666 q 0.0533,0.10666 0.0533,0.26666 0,0.48 -0.58666,0.48 z m -9.76,-30.87998 q -0.26667,0 -0.26667,0.26667 v 9.11999 q 0,0.26667 0.26667,0.26667 h 4.64 q 1.97333,0 3.2,-1.28 1.22666,-1.33333 1.22666,-3.52 0,-2.24 -1.22666,-3.52 -1.22667,-1.33333 -3.2,-1.33333 z"
           style="font-weight:bold;font-stretch:semi-condensed;font-size:53.3333px;font-family:'Barlow Semi Condensed';-inkscape-font-specification:'Barlow Semi Condensed, Bold Semi-Condensed';fill:#f25042;fill-opacity:1;stroke-width:2.86504;stroke-miterlimit:4;stroke-dasharray:none"
           id="path15033" />
        <path
           d="m -233.64039,590.85522 q -0.26667,0 -0.48,-0.16 -0.16,-0.21333 -0.16,-0.48 v -36.05331 q 0,-0.26667 0.16,-0.42667 0.21333,-0.21333 0.48,-0.21333 h 6.24 q 0.26666,0 0.42666,0.21333 0.21333,0.16 0.21333,0.42667 v 36.05331 q 0,0.26667 -0.21333,0.48 -0.16,0.16 -0.42666,0.16 z"
           style="font-weight:bold;font-stretch:semi-condensed;font-size:53.3333px;font-family:'Barlow Semi Condensed';-inkscape-font-specification:'Barlow Semi Condensed, Bold Semi-Condensed';fill:#f25042;fill-opacity:1;stroke-width:2.86504;stroke-miterlimit:4;stroke-dasharray:none"
           id="path15035" />
        <path
           d="m -207.77383,553.46858 q 3.2,0 5.65333,1.44 2.50667,1.44 3.84,4.05333 1.38667,2.61333 1.38667,5.97333 0,3.30666 -1.38667,5.86666 -1.33333,2.50667 -3.84,3.89333 -2.45333,1.38667 -5.65333,1.38667 h -5.75999 q -0.26667,0 -0.26667,0.26666 v 13.86666 q 0,0.26667 -0.21333,0.48 -0.16,0.16 -0.42667,0.16 h -6.24 q -0.26666,0 -0.48,-0.16 -0.16,-0.21333 -0.16,-0.48 v -36.10664 q 0,-0.26667 0.16,-0.42667 0.21334,-0.21333 0.48,-0.21333 z m -1.22666,16.63999 q 2.07999,0 3.30666,-1.33334 1.28,-1.38666 1.28,-3.67999 0,-2.34667 -1.28,-3.73333 -1.22667,-1.38667 -3.30666,-1.38667 h -4.53333 q -0.26667,0 -0.26667,0.26667 v 9.59999 q 0,0.26667 0.26667,0.26667 z"
           style="font-weight:bold;font-stretch:semi-condensed;font-size:53.3333px;font-family:'Barlow Semi Condensed';-inkscape-font-specification:'Barlow Semi Condensed, Bold Semi-Condensed';fill:#f25042;fill-opacity:1;stroke-width:2.86504;stroke-miterlimit:4;stroke-dasharray:none"
           id="path15037" />
      </g>
      <ellipse
         style="display:inline;fill:#000000;fill-opacity:1;stroke:none;stroke-width:9.99378;stroke-linecap:round;stroke-linejoin:round;stroke-miterlimit:4;stroke-dasharray:none;stroke-dashoffset:0;stroke-opacity:1"
         id="path16525"
         cx="757.2215"
         cy="-2023.8317"
         rx="3.1527092"
         ry="2.5221674" />
      <ellipse
         style="display:inline;fill:#000000;fill-opacity:1;stroke:none;stroke-width:9.99378;stroke-linecap:round;stroke-linejoin:round;stroke-miterlimit:4;stroke-dasharray:none;stroke-dashoffset:0;stroke-opacity:1"
         id="path16525-3"
         cx="790.51343"
         cy="-2009.3292"
         rx="3.1527092"
         ry="2.5221674" />
      <ellipse
         style="display:inline;fill:#000000;fill-opacity:1;stroke:none;stroke-width:9.99378;stroke-linecap:round;stroke-linejoin:round;stroke-miterlimit:4;stroke-dasharray:none;stroke-dashoffset:0;stroke-opacity:1"
         id="path16525-30"
         cx="832.34009"
         cy="-1998.8395"
         rx="3.1527092"
         ry="2.5221674" />
      <ellipse
         style="display:inline;fill:#000000;fill-opacity:1;stroke:none;stroke-width:9.99378;stroke-linecap:round;stroke-linejoin:round;stroke-miterlimit:4;stroke-dasharray:none;stroke-dashoffset:0;stroke-opacity:1"
         id="path16525-30-0"
         cx="871.48401"
         cy="-2003.2532"
         rx="3.1527092"
         ry="2.5221674" />
      <ellipse
         style="display:inline;fill:#000000;fill-opacity:1;stroke:none;stroke-width:9.99378;stroke-linecap:round;stroke-linejoin:round;stroke-miterlimit:4;stroke-dasharray:none;stroke-dashoffset:0;stroke-opacity:1"
         id="path16525-30-25"
         cx="906.96051"
         cy="-2016.17"
         rx="3.1527092"
         ry="2.5221674" />
      <ellipse
         style="display:inline;fill:#000000;fill-opacity:1;stroke:none;stroke-width:9.99378;stroke-linecap:round;stroke-linejoin:round;stroke-miterlimit:4;stroke-dasharray:none;stroke-dashoffset:0;stroke-opacity:1"
         id="path16525-30-25-49"
         cx="940.75397"
         cy="-2027.0292"
         rx="3.1527092"
         ry="2.5221674" />
      <ellipse
         style="display:inline;fill:#000000;fill-opacity:1;stroke:none;stroke-width:9.99378;stroke-linecap:round;stroke-linejoin:round;stroke-miterlimit:4;stroke-dasharray:none;stroke-dashoffset:0;stroke-opacity:1"
         id="path16525-30-25-3-9"
         cx="972.74005"
         cy="-2022.953"
         rx="3.1527092"
         ry="2.5221674" />
      <ellipse
         style="display:inline;fill:#000000;fill-opacity:1;stroke:none;stroke-width:9.99378;stroke-linecap:round;stroke-linejoin:round;stroke-miterlimit:4;stroke-dasharray:none;stroke-dashoffset:0;stroke-opacity:1"
         id="path16525-30-4"
         cx="1000.4746"
         cy="-2008.1895"
         rx="3.1527092"
         ry="2.5221674" />
      <ellipse
         style="display:inline;fill:#000000;fill-opacity:1;stroke:none;stroke-width:9.99378;stroke-linecap:round;stroke-linejoin:round;stroke-miterlimit:4;stroke-dasharray:none;stroke-dashoffset:0;stroke-opacity:1"
         id="path16525-30-3"
         cx="1022.94"
         cy="-1992.8175"
         rx="3.1527092"
         ry="2.5221674" />
      <ellipse
         style="display:inline;fill:#000000;fill-opacity:1;stroke:none;stroke-width:9.99378;stroke-linecap:round;stroke-linejoin:round;stroke-miterlimit:4;stroke-dasharray:none;stroke-dashoffset:0;stroke-opacity:1"
         id="path16525-30-3-7"
         cx="1038.9917"
         cy="-1980.369"
         rx="3.1527092"
         ry="2.5221674" />
      <g
         id="g36378"
         transform="matrix(1.4838156,0,0,1.4421171,-513.76634,851.85374)">
        <path
           id="path22293"
           style="display:inline;fill:#f25042;fill-opacity:1;stroke:none;stroke-width:10.1419;stroke-linecap:round;stroke-linejoin:round;stroke-miterlimit:4;stroke-dasharray:none;stroke-dashoffset:0;stroke-opacity:1"
           d="m 1063.4057,-1972.5808 a 13.3327,15.662469 5.6382289 0 0 -14.6503,14.5005 13.3327,15.662469 5.6382289 0 0 7.5557,15.3928 v 1.3699 1.3167 h 2.4128 v 2.2898 h 1.2984 v 0.078 h 1.0319 0.203 2.7766 v -2.3683 h 1.5691 v -2.0455 a 13.3327,15.662469 5.6382289 0 0 9.7275,-13.8293 13.3327,15.662469 5.6382289 0 0 -11.9247,-16.7051 z" />
        <ellipse
           style="display:inline;fill:#ffffff;fill-opacity:1;stroke:none;stroke-width:13.5642;stroke-linecap:round;stroke-linejoin:round;stroke-miterlimit:4;stroke-dasharray:none;stroke-dashoffset:0;stroke-opacity:1"
           id="path22518"
           cx="1061.5072"
           cy="-1958.0219"
           rx="5.0043998"
           ry="5.4254966" />
        <path
           d="m 1058.8799,-1931.2336 c -2.9802,-0.1434 -5.833,-1.0749 -7.0685,-2.3079 -1.3927,-1.3898 -1.2656,-3.2259 0.3248,-4.6942 0.5904,-0.5451 2.2666,-1.5106 3.001,-1.7285 0.2984,-0.089 0.2529,-0.1792 -0.5805,-1.1589 -3.5204,-4.1387 -5.7145,-8.2209 -6.5939,-12.2684 -0.3719,-1.7122 -0.5204,-4.0954 -0.293,-4.7012 0.2799,-0.7455 1.1589,-0.9946 1.6966,-0.4809 0.2309,0.2203 0.305,0.5439 0.3486,1.5208 0.1152,2.5891 0.6248,4.5994 1.8095,7.1398 1.7256,3.7004 4.2525,7.0767 8.074,10.7881 l 1.4554,1.4134 0.5545,-0.454 c 0.3049,-0.2498 1.4018,-1.3129 2.4374,-2.3624 7.9946,-8.1017 11.3328,-15.7798 9.5493,-21.9641 -0.5353,-1.8561 -1.316,-3.1659 -2.7975,-4.6923 -2.2104,-2.2775 -4.5404,-3.3293 -7.6161,-3.4378 -4.7409,-0.1673 -9.5318,2.6863 -11.8105,7.0348 -0.2729,0.5207 -0.6311,1.0836 -0.7961,1.2511 -0.6562,0.6658 -1.7588,0.2183 -1.7233,-0.6994 0.011,-0.249 0.2585,-0.913 0.553,-1.4755 1.9095,-3.6475 5.4691,-6.5842 9.4154,-7.768 2.0171,-0.605 5.0693,-0.7372 6.9873,-0.3026 4.9159,1.114 8.7999,4.9074 10.0006,9.7676 0.7896,3.1959 0.5219,6.4405 -0.836,10.1348 -1.2903,3.5104 -3.739,7.3935 -6.9642,11.0438 -0.9728,1.1009 -1.0354,1.2081 -0.7459,1.2768 0.7185,0.1705 2.3244,1.0293 2.8737,1.537 1.0628,0.9821 1.3736,2.307 0.8302,3.538 -1.1204,2.5375 -6.4444,4.3217 -12.0859,4.0501 z m 3.8241,-2.3518 c 3.4379,-0.4216 6.2748,-1.6924 6.3187,-2.8304 0.015,-0.3817 -0.6954,-1.0019 -1.6264,-1.4205 -0.5605,-0.2519 -1.8676,-0.6201 -2.1783,-0.6136 -0.086,0 -0.8334,0.6286 -1.6623,1.3929 -1.7336,1.5985 -2.2785,1.9567 -2.7979,1.8392 -0.2003,-0.045 -0.9192,-0.5867 -1.5975,-1.2032 -0.6782,-0.6163 -1.4207,-1.2763 -1.6498,-1.4665 l -0.4169,-0.3458 -0.8965,0.2809 c -1.7455,0.5469 -3.1081,1.4494 -3.1323,2.0744 -0.041,1.0624 2.7529,2.2135 5.8287,2.4012 1.883,0.1146 2.0193,0.111 3.8105,-0.1074 z m -2.1945,-18.1723 c -3.2533,-0.4563 -5.5287,-3.8726 -4.8342,-7.2582 0.4423,-2.1561 1.856,-3.9942 3.8503,-5.006 0.9439,-0.4789 1.1101,-0.5147 2.6183,-0.5638 1.5245,-0.05 1.6658,-0.027 2.6493,0.4204 2.7273,1.2411 4.0818,4.3703 3.2002,7.3925 -0.7226,2.4772 -2.8613,4.463 -5.3364,4.9548 -0.9733,0.1935 -1.1614,0.1987 -2.1476,0.06 z m 2.4246,-2.389 c 1.731,-0.5751 3.0625,-2.3111 3.131,-4.0824 0.096,-2.4775 -1.6071,-4.2553 -4.0053,-4.1815 -1.3083,0.04 -2.2851,0.5054 -3.1599,1.5049 -2.0995,2.3989 -1.2447,6.0082 1.6197,6.839 0.8329,0.2417 1.5145,0.2191 2.4145,-0.08 z"
           style="display:inline;fill:#000000;stroke-width:0.147932"
           id="path31849-3" />
      </g>
    </g>
  </g>
</svg>
