<?xml version="1.0" encoding="UTF-8" standalone="no"?>
<!-- Created with Inkscape (http://www.inkscape.org/) -->

<svg
   version="1.1"
   id="svg80771"
   width="512"
   height="512"
   viewBox="0 0 512 512"
   sodipodi:docname="people.svg"
   inkscape:version="1.1.1 (3bf5ae0d25, 2021-09-20)"
   xmlns:inkscape="http://www.inkscape.org/namespaces/inkscape"
   xmlns:sodipodi="http://sodipodi.sourceforge.net/DTD/sodipodi-0.dtd"
   xmlns="http://www.w3.org/2000/svg"
   xmlns:svg="http://www.w3.org/2000/svg">
  <defs
     id="defs80775">
    <clipPath
       clipPathUnits="userSpaceOnUse"
       id="clipPath84287">
      <path
         id="path84289"
         style="fill:#ff0000;fill-opacity:1;fill-rule:nonzero;stroke:none"
         d="M 59.003906,299.08984 V 499.78125 H 281.05078 V 299.08984 Z m 6.542969,153.47657 c 0.881679,-0.0344 1.860302,0.27797 2.810547,1.00195 0.377451,-0.53686 1.686903,0.81175 7.326172,1.67969 -0.05612,-0.1763 -0.104656,-0.3534 -0.123047,-0.53711 -0.02399,-0.23967 0.119795,0.18712 0.240234,0.55664 0.100713,0.0152 0.187556,0.032 0.291016,0.0469 0.161812,0.0233 -0.04404,0.32926 -0.01563,0.49024 0.146058,0.82746 0.368443,1.63974 0.537109,2.46289 0.20917,1.02082 0.373906,2.05021 0.595703,3.06836 0.374561,1.71941 0.795688,3.42837 1.19336,5.14258 0.27724,1.1211 1.141703,4.46217 1.394531,5.93554 0.136341,0.79455 0.135063,1.61364 0.166016,2.42578 0.01874,0.0915 0.04382,0.18154 0.06055,0.27344 0.0816,0.44834 0.185303,1.61189 0.25,2.56445 0.02703,0.19445 0.05049,0.38938 0.07617,0.58399 0.171783,2.99474 1.751405,5.51672 3.00586,8.14648 0.478738,1.06352 0.646197,1.32674 0.96289,2.52149 0.07497,0.28284 0.112472,0.5743 0.160157,0.86328 0.0057,0.0131 0.01191,0.026 0.01758,0.0391 0.02262,0.0522 0.02667,0.22575 0.01563,0.16992 -0.01365,-0.069 -0.02175,-0.13955 -0.0332,-0.20898 -0.204795,-0.46819 -0.437648,-0.92479 -0.65625,-1.38672 -3.363362,-7.10724 -2.817557,11.90857 -6.289063,4.85352 -0.249376,-0.5068 -0.536716,-0.99769 -0.748047,-1.52149 -0.08928,-0.2213 -0.114504,-0.46274 -0.146484,-0.69922 -0.0097,-0.0718 0.08818,0.27317 0.08008,0.20117 -0.05907,-0.52379 -0.329542,-0.96169 -0.542969,-1.4375 -0.568475,-1.21628 -1.223084,-2.38744 -1.771484,-3.61328 -0.957399,-2.14006 -1.695162,-4.38979 -1.914063,-6.73437 -0.02324,-0.006 -0.04709,-0.0114 -0.07031,-0.0176 -0.196779,-0.0527 -0.178617,-0.28479 -0.140625,-0.53516 -0.210352,-0.41518 -0.417802,-0.83158 -0.599609,-1.25976 -0.421742,-0.99327 -0.761263,-2.01935 -1.146485,-3.02735 -0.935336,-2.44744 -1.909104,-4.87441 -2.890625,-7.30273 0.0101,-0.18873 0.02473,-0.37774 0.03711,-0.56641 -0.01925,-0.0262 -0.03698,-0.0525 -0.03711,-0.0742 -1.68e-4,-0.0275 0.0038,-0.0831 0.0039,-0.11329 -0.219048,-0.30781 -0.450449,-0.60826 -0.658203,-0.92382 -1.670368,-2.53721 -1.822326,-2.88931 -3.371093,-5.56446 -2.462247,-4.25297 -0.699695,-7.40125 1.929687,-7.5039 z m 2.099609,13.99218 c 0.01466,0.0206 0.02847,0.0418 0.04297,0.0625 0.0713,-1.05784 0.159709,-2.11603 0.160156,-3.17578 4.43e-4,-1.04982 -0.198893,1.96086 -0.203126,3.11328 z m 0.04297,0.0625 c -0.0028,0.0417 -0.007,0.0833 -0.0098,0.125 0.07236,0.0986 0.234973,0.20364 0.191406,0.13477 -0.0565,-0.0893 -0.121046,-0.17319 -0.181641,-0.25977 z m 10.699219,13.82813 c -0.39875,0.85874 -0.886161,1.4323 -1.462891,1.68945 0.79616,-0.14189 1.542996,-0.4236 1.988281,-0.82422 0.26647,-0.23974 0.457334,-0.53987 0.615235,-0.86328 -0.379669,0.0123 -0.760496,0.0122 -1.140625,-0.002 z m -4.792969,0.51172 c -0.111638,0.87322 0.909375,1.26552 2.125,1.27929 -0.548449,-0.11534 -1.146625,-0.42221 -1.800781,-0.95898 -0.117645,-0.0965 -0.224043,-0.2064 -0.324219,-0.32031 z" />
    </clipPath>
    <inkscape:path-effect
       effect="bspline"
       id="path-effect93567"
       is_visible="true"
       lpeversion="1"
       weight="33.333333"
       steps="2"
       helper_size="0"
       apply_no_weight="true"
       apply_with_weight="true"
       only_selected="false" />
    <inkscape:path-effect
       effect="bspline"
       id="path-effect93741"
       is_visible="true"
       lpeversion="1"
       weight="33.333333"
       steps="2"
       helper_size="0"
       apply_no_weight="true"
       apply_with_weight="true"
       only_selected="false" />
  </defs>
  <sodipodi:namedview
     id="namedview80773"
     pagecolor="#ffffff"
     bordercolor="#666666"
     borderopacity="1.0"
     inkscape:pageshadow="2"
     inkscape:pageopacity="0.0"
     inkscape:pagecheckerboard="0"
     showgrid="false"
     inkscape:zoom="0.81835938"
     inkscape:cx="659.24582"
     inkscape:cy="473.50835"
     inkscape:window-width="1920"
     inkscape:window-height="1001"
     inkscape:window-x="-9"
     inkscape:window-y="-9"
     inkscape:window-maximized="1"
     inkscape:current-layer="g80777" />
  <g
     inkscape:groupmode="layer"
     inkscape:label="Image"
     id="g80777">
    <path
       id="path63521"
       style="display:inline;fill:#c38959;fill-opacity:1;fill-rule:evenodd;stroke-width:6.40236;stroke-linecap:round;stroke-linejoin:round;stroke-dasharray:6.40236, 76.8279"
       d="m 302.17071,110.56351 v 8.8376 h -5.23055 v 21.92651 a 105.79199,92.826442 0 0 0 -0.49167,0.23609 h -18.51441 v 11.76328 a 105.79199,92.826442 0 0 0 -2.68118,2.35265 v -5.17342 h -10.25841 v 15.39111 a 105.79199,92.826442 0 0 0 -21.70699,55.9452 105.79199,92.826442 0 0 0 105.7908,92.82499 105.79199,92.826442 0 0 0 105.79237,-92.82499 105.79199,92.826442 0 0 0 -103.4733,-92.77859 v -3.35142 h -6.15316 v -6.31141 h -20.92202 v -8.8376 h -9.86094 z" />
    <rect
       style="display:inline;fill:#c38959;fill-opacity:1;fill-rule:evenodd;stroke-width:5.1532;stroke-linecap:round;stroke-linejoin:round;stroke-dasharray:5.1532, 61.8385"
       id="rect64137"
       width="16.614456"
       height="22.407019"
       x="290.47824"
       y="130.76186" />
    <rect
       style="display:inline;fill:#c38959;fill-opacity:1;fill-rule:evenodd;stroke-width:5.1532;stroke-linecap:round;stroke-linejoin:round;stroke-dasharray:5.1532, 61.8385"
       id="rect64139"
       width="9.7750368"
       height="26.122433"
       x="277.93417"
       y="141.56367" />
    <rect
       style="display:inline;fill:#c38959;fill-opacity:1;fill-rule:evenodd;stroke-width:5.1532;stroke-linecap:round;stroke-linejoin:round;stroke-dasharray:5.1532, 61.8385"
       id="rect64141"
       width="7.1470985"
       height="22.091423"
       x="270.7869"
       y="145.59471" />
    <rect
       style="display:inline;fill:#c38959;fill-opacity:1;fill-rule:evenodd;stroke-width:5.1532;stroke-linecap:round;stroke-linejoin:round;stroke-dasharray:5.1532, 61.8385"
       id="rect64143"
       width="10.40761"
       height="26.016493"
       x="264.99457"
       y="150.50624" />
    <rect
       style="display:inline;fill:#c38959;fill-opacity:1;fill-rule:evenodd;stroke-width:5.1532;stroke-linecap:round;stroke-linejoin:round;stroke-dasharray:5.1532, 61.8385"
       id="rect64145"
       width="16.30678"
       height="30.612408"
       x="258.17245"
       y="154.43129" />
    <rect
       style="display:inline;fill:#c38959;fill-opacity:1;fill-rule:evenodd;stroke-width:5.1532;stroke-linecap:round;stroke-linejoin:round;stroke-dasharray:5.1532, 61.8385"
       id="rect64251"
       width="34.151936"
       height="38.817795"
       x="417.54785"
       y="151.59097" />
    <rect
       style="display:inline;fill:#c38959;fill-opacity:1;fill-rule:evenodd;stroke-width:5.1532;stroke-linecap:round;stroke-linejoin:round;stroke-dasharray:5.1532, 61.8385"
       id="rect64253"
       width="66.457825"
       height="19.251102"
       x="331.39883"
       y="304.3374" />
    <rect
       style="display:inline;fill:#c38959;fill-opacity:1;fill-rule:evenodd;stroke-width:5.1532;stroke-linecap:round;stroke-linejoin:round;stroke-dasharray:5.1532, 61.8385"
       id="rect64255"
       width="23.998657"
       height="29.034449"
       x="390.78021"
       y="285.7175" />
    <rect
       style="display:inline;fill:#c38959;fill-opacity:1;fill-rule:evenodd;stroke-width:5.1532;stroke-linecap:round;stroke-linejoin:round;stroke-dasharray:5.1532, 61.8385"
       id="rect64257"
       width="20.306557"
       height="32.190369"
       x="407.70224"
       y="273.09387" />
    <rect
       style="display:inline;fill:#c38959;fill-opacity:1;fill-rule:evenodd;stroke-width:5.1532;stroke-linecap:round;stroke-linejoin:round;stroke-dasharray:5.1532, 61.8385"
       id="rect64259"
       width="15.691428"
       height="27.1409"
       x="418.47107"
       y="269.62234" />
    <path
       id="path87788"
       style="display:inline;fill:#c38959;fill-opacity:1;fill-rule:evenodd;stroke-width:1.57425;stroke-linecap:round;stroke-linejoin:round;stroke-dasharray:1.57425, 18.8911"
       d="m 326.1065,1.8934238 c -7.45041,-0.1003228 -14.34874,3.0817494 -21.05399,9.6527502 -1.86978,1.832434 -2.6853,2.934019 -3.79052,5.129017 -2.96949,5.89712 -3.84422,8.378348 -39.24762,111.246729 -5.61532,16.31609 -10.2991,29.83271 -10.40996,30.03772 -0.13902,0.25586 -1.06163,-0.12595 -2.94272,-1.21667 -5.04521,-2.92551 -9.0238,-4.05177 -14.28507,-4.0435 -1.63499,0.002 -3.83873,0.21592 -4.89812,0.47211 -6.26351,1.51475 -12.25776,7.08276 -16.08688,14.94523 -2.36694,4.85981 -3.44693,9.41069 -3.84972,16.21637 l -0.22035,3.70854 -7.88014,0.004 c -19.65291,0.009 -29.59384,1.94839 -45.10957,8.81136 -5.82983,2.57868 -9.37904,3.80744 -10.99413,3.80744 h -0.85174 v 7.73189 7.73389 l 1.46167,-0.009 c 2.07536,-0.009 5.31275,-0.5276 7.05192,-1.12992 0.81741,-0.28312 3.75223,-1.57358 6.52298,-2.86917 9.10927,-4.25947 16.83084,-6.82022 25.11583,-8.33116 5.34158,-0.97415 14.82017,-1.1886 19.91704,-0.44996 4.06869,0.58967 7.99769,1.72533 9.03477,2.6109 0.35524,0.30328 1.44194,1.82961 2.41569,3.39178 2.58352,4.14552 7.25134,8.72045 12.55979,12.30808 l 4.20377,2.83892 0.0172,6.2186 c 0.0172,10.65597 1.49804,18.76834 5.37608,29.44451 2.42444,6.67454 7.54601,16.27149 11.18686,20.96406 5.00144,6.44643 12.4987,14.13563 18.8645,19.34587 1.68476,1.37889 2.21232,2.42141 2.86206,5.66776 0.88537,4.42261 2.39921,18.01729 2.44315,21.93054 l 0.0429,3.84375 -0.91662,0.98263 c -0.63875,0.68525 -1.15068,0.95448 -1.68973,0.88982 -0.64976,-0.0781 -0.93669,-0.49562 -1.79993,-2.61698 -3.10335,-7.62658 -4.6213,-10.18628 -6.62716,-11.18219 -1.31288,-0.65197 -1.67687,-0.66901 -11.92842,-0.58515 -9.08353,0.0743 -10.98402,0.007 -13.48447,-0.4762 -7.09912,-1.36888 -15.35973,-5.19306 -24.01044,-11.1176 -5.06494,-3.46875 -9.05882,-6.94173 -16.15381,-14.04532 -3.32337,-3.32724 -6.36751,-6.10366 -7.05398,-6.43449 -0.71873,-0.34636 -1.86566,-0.57632 -2.8346,-0.56701 -3.15416,0.029 -5.01174,1.83001 -8.557,8.29683 -3.60276,6.57197 -6.06255,10.68293 -8.45061,14.12199 -5.39066,7.7631 -12.37066,15.91787 -20.41265,23.84738 l -5.1576,5.08666 0.0807,9.87673 0.0807,9.87873 4.30793,-3.99107 c 14.58693,-13.5171 29.84937,-30.72243 37.013,-41.72431 1.74964,-2.68724 2.47163,-3.54915 2.97225,-3.54915 0.93976,0 2.66143,1.20514 8.72415,6.1056 7.03338,5.68529 11.19184,8.48716 17.30844,11.66036 10.53197,5.46398 21.0643,8.36992 30.59231,8.44213 5.13958,0.0388 8.35964,0.42418 9.07425,1.08753 0.65181,0.60493 2.18864,4.49794 8.17138,20.69369 7.08779,19.18749 11.51414,31.92227 12.13899,34.93069 0.17162,0.82416 0.3815,1.82018 0.46818,2.21142 l 0.15788,0.70821 h 11.56065 11.55858 l 2.51008,-2.61697 c 6.95668,-7.25322 10.97612,-16.09672 11.90491,-26.19802 0.80231,-8.72761 -1.49135,-18.09309 -6.25546,-25.55435 -3.82636,-5.99277 -7.79775,-9.11614 -14.09816,-11.08735 -3.83376,-1.19946 -3.99938,-1.46488 -4.84099,-7.78232 -0.81483,-6.11549 -1.03724,-9.19863 -0.70224,-9.71935 0.34683,-0.53954 -1.44846,-1.14076 24.19526,8.08499 31.7955,11.43886 39.10605,13.8157 47.53503,15.44965 4.0294,0.78147 20.74404,0.7787 26.30599,-0.004 8.80019,-1.23851 21.84755,-6.12062 30.22642,-11.30928 5.92198,-3.66722 14.49873,-11.22112 23.91605,-21.06496 l 2.14607,-2.24369 h 6.93985 c 10.46246,0 12.75579,-0.42128 18.95511,-3.47854 4.443,-2.19117 9.40547,-5.69129 12.19185,-8.5995 8.17568,-8.53281 12.87112,-22.00528 11.19099,-32.10387 -0.72491,-4.35609 -2.3297,-7.55121 -5.49209,-10.92995 -4.27928,-4.57198 -9.35417,-7.3453 -14.87715,-8.1294 -1.68391,-0.23899 -3.06439,-0.59483 -3.2046,-0.82725 -0.34789,-0.57741 2.30206,-8.50083 24.15613,-72.26649 11.47004,-33.46765 20.62924,-61.05049 22.77892,-68.592227 1.19874,-4.20506 1.30481,-5.973838 0.60598,-10.084541 -0.22551,-1.325657 -0.63979,-2.649057 -1.04858,-3.968835 -0.18415,-0.256186 -0.31543,-0.551646 -0.39541,-0.861564 -0.0172,-0.04393 -0.0584,-0.0858 -0.0481,-0.131085 0.0172,-0.03298 0.0309,0.06631 0.0601,0.08272 0.0292,0.01539 0.0601,0.03042 0.091,0.04461 -0.12527,-0.271227 -0.16989,-0.5847 -0.23992,-0.885783 -0.0807,-0.216775 -0.20062,-0.416119 -0.28523,-0.631544 -0.0343,0.09058 0.0635,0.61565 0.0669,0.829281 0.0618,0.09724 0.15617,0.178151 0.18294,0.290538 0.0223,0.09041 -0.10984,-0.14561 -0.16475,-0.219938 -0.20509,-0.278847 -0.41172,-0.561319 -0.57045,-0.871648 -0.14588,-0.282932 -0.26739,-0.523276 -0.36778,-0.813147 -0.16133,-0.216195 -0.29433,-0.487626 -0.40331,-0.718296 -0.0378,-0.07828 -0.0669,-0.159967 -0.10125,-0.240103 -0.0378,-0.128179 -0.0772,-0.256375 -0.11155,-0.385373 -8.5e-4,-0.0034 -8.5e-4,-0.0085 0,-0.01367 -0.0858,-0.158258 -0.17402,-0.394858 -0.22619,-0.526643 -0.20234,-0.591997 -0.35541,-1.193325 -0.543,-1.789697 -0.0618,-0.243334 -0.0823,-0.321933 -0.10297,-0.399524 -1.70467,-2.919394 -3.74519,-5.555138 -6.03903,-7.495812 -1.08428,-0.917331 -3.16789,-2.264283 -4.63058,-2.994285 -5.73905,-2.864364 -18.87531,-7.721612 -21.86625,-8.08499 -1.76303,-0.214161 -3.19036,0.360011 -4.96093,1.997552 -3.17355,2.934998 -3.24821,7.365532 -0.17318,10.134974 1.58765,1.429892 3.72239,2.476119 11.44653,5.61128 7.59406,3.082318 10.65777,4.56907 11.91675,5.778733 2.11192,2.029425 4.20754,6.914822 4.20754,9.810119 0,1.940862 -1.32541,6.374421 -7.0363,23.542728 -4.93736,14.84425 -29.09402,85.12105 -30.30907,88.17487 -1.07725,2.70793 -1.62093,3.51477 -2.20493,3.28486 -1.21763,-0.47928 -2.58525,-5.19053 -2.59675,-8.94455 0,-1.80331 0.47743,-3.51956 3.98341,-14.20069 5.71313,-17.40448 6.27775,-19.95039 5.03576,-22.63472 -0.61748,-1.33512 -1.47831,-1.76461 -11.63925,-5.82514 -10.48271,-4.1891 -26.60581,-10.14544 -74.45661,-27.50346 -55.49429,-20.13072 -71.1396,-25.671774 -78.12939,-27.668938 -2.93981,-0.840034 -4.19535,-0.594983 -5.8324,1.13394 -1.93327,2.041728 -3.1823,4.923168 -8.256,19.063378 -4.22744,11.78217 -5.20153,13.907 -7.23091,15.7624 -2.75429,2.51798 -6.54463,4.295 -6.54463,3.06894 0,-1.67511 32.96594,-97.961541 36.74941,-107.3364 2.23223,-5.531126 4.9443,-8.857018 8.7161,-10.689851 1.84866,-0.89819 2.36471,-1.004818 4.83909,-1.004818 2.35013,0 3.35151,0.183876 6.6155,1.222721 4.9115,1.563282 21.86058,7.618899 57.07334,20.391035 29.12669,10.564544 51.08733,18.389861 56.95543,20.294183 3.06165,0.993607 3.57461,1.076598 4.88028,0.790947 2.07605,-0.454161 4.23088,-2.636974 4.89813,-4.963585 0.6058,-2.112194 0.61027,-2.654577 0.0395,-4.626613 -0.5919,-2.041303 -2.23223,-3.670008 -4.75946,-4.723345 C 444.56067,42.740906 377.35986,18.307411 348.79161,8.2763771 343.63023,6.4641407 338.87455,4.7675343 338.22428,4.5072839 337.57403,4.2470628 335.56644,3.6074304 333.76293,3.0848071 331.14353,2.3257302 328.59828,1.9278037 326.1148,1.894353 Z M 307.03349,114.68166 c 2.48089,0.54149 12.07703,3.69238 22.05503,7.24159 20.31603,7.22652 95.48829,34.58683 109.53601,39.86803 11.64782,4.37899 11.99912,4.53283 11.99912,5.26825 0,1.01451 -1.10778,4.91757 -3.08825,10.88357 -2.55623,7.70087 -3.37536,11.52698 -3.58405,16.72686 -0.37069,9.23557 1.98424,15.17613 8.98965,22.67509 1.77126,1.896 3.22023,3.54895 3.22023,3.67425 0,0.12527 -1.78774,5.43134 -3.97363,11.79152 -14.83801,43.17405 -17.95716,50.83173 -24.13434,59.27039 -8.52269,11.64306 -20.7607,20.61842 -34.5364,25.32637 -5.89402,2.01438 -8.77496,2.48874 -17.35171,2.86514 -3.80749,0.16715 -7.54566,0.28501 -8.30712,0.26233 -4.89967,-0.14595 -9.13227,-0.588 -11.53696,-1.20457 -5.05069,-1.29499 -57.28391,-20.03241 -65.68938,-23.56491 -21.08522,-8.86139 -38.21879,-30.25638 -42.16478,-52.65227 -1.73197,-9.83001 -1.26843,-23.576 1.09559,-32.53363 1.17404,-4.44792 6.61979,-20.79022 12.77055,-38.31845 3.07573,-8.76554 5.86382,-16.74022 6.19623,-17.7236 l 0.60393,-1.78971 2.67329,-0.20579 c 8.56849,-0.66332 14.62006,-3.29125 20.29269,-8.80936 4.09444,-3.98291 5.78092,-7.21483 10.06569,-19.28329 1.47882,-4.16582 2.95833,-8.11648 3.28681,-8.77908 0.55278,-1.11471 0.67205,-1.18721 1.5818,-0.98869 z m -72.64898,53.27981 c 1.74861,-0.16116 3.50958,0.22063 5.38775,1.16018 2.97911,1.49012 5.00813,4.25374 5.01414,6.82997 0,1.80066 -6.20893,20.85699 -9.21584,28.26416 -1.09749,2.70365 -1.44638,2.90691 -2.97035,1.73522 -3.12652,-2.40388 -6.67076,-8.35331 -7.84874,-13.17567 -0.68955,-2.82362 -0.53219,-10.93815 0.26962,-13.92224 1.52551,-5.67826 4.33471,-9.5726 7.61465,-10.55063 0.58419,-0.17421 1.16579,-0.28725 1.74877,-0.34099 z m 233.02262,84.42927 c 3.92419,0 6.37454,1.32485 7.93523,4.29167 0.57818,1.09919 0.66226,1.75273 0.64905,5.05034 -0.0172,3.47516 -0.0978,4.00574 -1.00122,6.45064 -1.84179,4.98258 -4.77163,9.26028 -8.12606,11.86214 -2.51642,1.95189 -6.84547,4.08493 -9.90625,4.88085 -1.57854,0.4105 -3.44591,0.63355 -5.3131,0.63355 h -2.87785 l 0.76901,-1.55969 c 1.10246,-2.23168 2.31272,-5.41789 5.45485,-14.37824 5.37283,-15.32135 6.74833,-17.23129 12.41634,-17.23129 z m -178.8999,91.26529 c 0.63672,0.04 1.21575,0.1369 1.68187,0.2946 1.61061,0.54524 3.95834,2.87893 5.21079,5.1815 1.81521,3.33712 2.66849,6.95525 2.84457,12.05382 0.17539,5.07961 -0.15961,7.67627 -1.4203,10.99655 -0.99127,2.61073 -3.20084,6.14516 -5.34468,8.55109 -0.84196,0.94496 -1.89911,1.98851 -2.35063,2.31835 l -0.82223,0.59923 -3.952,-11.01269 c -4.13958,-11.53661 -6.64484,-19.3466 -6.64484,-20.71184 0,-2.5835 2.22347,-5.78448 5.04383,-7.26176 1.41927,-0.74359 3.84353,-1.12935 5.75362,-1.00885 z" />
    <path
       style="display:inline;fill:#c38959;fill-opacity:1;fill-rule:evenodd;stroke-width:1.57425;stroke-linecap:round;stroke-linejoin:round;stroke-dasharray:1.57425, 18.8911"
       d="m 434.31625,278.86956 c 0,-1.57985 0.12185,-1.89982 1.28369,-3.36456 0.70604,-0.89027 1.32952,-1.57175 1.38547,-1.51442 0.0961,0.0996 -2.30841,6.22018 -2.55194,6.49334 -0.0635,0.0723 -0.1167,-0.65415 -0.1167,-1.61436 z"
       id="path87827" />
    <path
       style="display:inline;fill:#c38959;fill-opacity:1;fill-rule:evenodd;stroke-width:1.57425;stroke-linecap:round;stroke-linejoin:round;stroke-dasharray:1.57425, 18.8911"
       d="m 362.47422,319.96175 c -1.86152,-0.14185 -4.28442,-0.47503 -5.38431,-0.74058 -2.3666,-0.57133 -19.09121,-6.39739 -37.99792,-13.2366 -31.91065,-11.54318 -34.27315,-12.6039 -43.09718,-19.35085 -14.27151,-10.91211 -24.52083,-27.52275 -27.36796,-44.3541 -0.79184,-4.682 -1.11603,-12.17793 -0.76867,-17.7754 0.58641,-9.44951 1.30206,-12.48683 6.8434,-29.04602 2.6302,-7.85966 13.49752,-39.14179 14.54559,-41.87016 0.15445,-0.40204 0.76472,-0.5752 2.56344,-0.72756 1.29846,-0.10989 3.15003,-0.31011 4.11452,-0.4448 1.72304,-0.2406 1.75581,-0.23065 1.87681,0.5698 l 0.12356,0.81464 0.0463,-0.85571 c 0.0395,-0.72421 0.24456,-0.91051 1.3369,-1.21223 2.29075,-0.6327 6.5551,-2.67039 8.81872,-4.21408 6.50876,-4.43836 9.34301,-8.83919 13.83937,-21.49007 3.10936,-8.74796 4.06305,-11.20351 4.35154,-11.20351 0.65352,0 8.36153,2.46599 16.62009,5.31719 8.44785,2.91645 18.55009,6.56469 76.76503,27.7219 31.30468,11.37715 50.07924,18.38136 50.54125,18.85529 0.30702,0.31492 -0.58968,3.70523 -2.59211,9.80093 -3.51128,10.68857 -4.30021,14.87419 -4.00967,21.27488 0.20595,4.53674 0.69661,6.68615 2.36026,10.34189 1.50851,3.31443 2.45961,4.71081 5.84923,8.58766 l 2.7711,3.16929 v 2.39966 c 0,2.26438 -0.21556,3.02552 -3.82174,13.50308 -5.50686,16.00017 -7.48028,21.59991 -10.3245,29.29804 -2.35767,6.38168 -2.65713,7.00332 -4.5312,9.40572 -1.98012,2.53855 -2.50115,3.99326 -0.67617,1.88775 0.51726,-0.59667 0.87833,-0.87179 0.80248,-0.61145 -0.54608,1.87438 -1.33209,3.96227 -1.52482,4.05008 -0.127,0.0581 -0.23065,0.36012 -0.23065,0.67168 0,0.5962 -2.09991,4.64857 -3.93089,7.58632 -3.64705,5.85054 -9.33203,12.124 -15.95936,17.61089 -4.20497,3.48142 -13.71599,8.89882 -15.623,8.89882 -0.74241,0 -1.10006,0.14494 -1.10006,0.44576 0,1.07889 -9.6739,4.00294 -15.07607,4.5569 -4.51832,0.46334 -16.10557,0.67316 -20.15264,0.36495 z m -14.80609,-28.88131 c 13.15239,-2.35257 24.73072,-11.29901 30.50426,-23.56983 1.56411,-3.32476 2.19001,-5.86488 1.87252,-7.60074 -0.26258,-1.43564 -1.78157,-3.08398 -3.81266,-4.13727 -3.95938,-2.05342 -57.77697,-21.26388 -66.43435,-23.71422 -3.59367,-1.01711 -5.97194,0.007 -7.32944,3.15497 -4.18729,9.71193 -3.12376,23.58339 2.63811,34.40894 3.76288,7.06966 8.61741,12.13975 16.33761,17.06226 2.40778,1.53532 3.50699,2.0068 6.72413,2.88444 2.11535,0.57703 4.88439,1.2474 6.1535,1.48973 3.14437,0.60033 10.04887,0.61156 13.34632,0.0219 z m -56.30432,-8.12438 c 0.11154,-0.47736 0.0772,-0.86789 -0.0738,-0.86789 -0.3113,0 -0.65866,1.47121 -0.40792,1.72835 0.21194,0.21741 0.24368,0.16065 0.48258,-0.86046 z m -1.07158,-6.29446 c -0.50867,-0.97506 -0.69813,-0.27104 -0.23718,0.88158 0.27459,0.68646 0.39729,0.78157 0.49101,0.37994 0.0686,-0.29467 -0.0446,-0.86234 -0.25383,-1.26152 z m -7.63284,-7.11416 c -0.25949,-0.45707 -0.31681,-0.35926 -0.3211,0.54821 0,0.60751 0.0961,1.45961 0.22139,1.89355 0.1941,0.67576 0.24025,0.59711 0.32109,-0.54821 0.0532,-0.73547 -0.0481,-1.58756 -0.22138,-1.89355 z m 140.20828,-23.08757 c 2.97258,-1.55618 3.90326,-4.8823 2.409,-8.60893 -2.52381,-6.29391 -11.20472,-13.86657 -18.21099,-15.88616 -2.35029,-0.67746 -11.40774,-1.00073 -14.43934,-0.51533 -6.69874,1.07251 -10.61487,4.05376 -10.61487,8.08088 0,1.87524 1.06316,3.85683 2.64187,4.92434 1.27426,0.8617 4.26812,0.79554 8.18408,-0.18087 4.51645,-1.12605 6.75965,-1.28791 9.14874,-0.66012 3.4253,0.90011 5.01911,2.07931 10.48529,7.75764 2.79204,2.90054 5.28427,5.3553 5.53808,5.45502 1.0594,0.41623 3.75087,0.21322 4.85814,-0.36643 z m -61.85065,-10.46002 c 2.25042,-1.32373 3.45707,-3.10409 3.45707,-5.10057 0,-3.73058 -2.20391,-5.25345 -13.82274,-9.5516 -10.18342,-3.76722 -12.226,-4.19035 -14.4953,-3.00281 -2.55331,1.33608 -3.74261,5.02534 -2.60497,8.08067 0.53116,1.42682 0.63395,1.50773 3.96556,3.12293 6.0912,2.95298 18.59042,7.36178 20.95771,7.39226 0.50764,0.007 1.65181,-0.41689 2.54267,-0.94088 z M 318.509,209.62287 c 1.37981,-0.67153 3.97843,-3.61241 4.42859,-5.01173 0.49511,-1.53873 -0.1476,-3.38066 -2.46082,-7.04922 -4.0306,-6.39303 -9.83624,-10.71631 -17.72222,-13.19719 -2.50955,-0.7895 -3.1756,-0.86305 -7.96887,-0.88025 -5.8506,-0.0206 -7.13223,0.24127 -11.15786,2.28305 -2.90273,1.4722 -4.22813,2.73415 -4.68017,4.45595 -0.71891,2.73803 0.37121,5.34197 2.75257,6.576 1.68167,0.87141 3.12996,0.89156 7.39344,0.10289 7.20363,-1.33259 9.07151,-1.19569 13.5284,0.99149 2.73318,1.34132 5.45245,3.81677 8.66358,7.88682 1.79221,2.27165 3.07298,3.38001 4.51663,3.90882 1.46234,0.53561 1.47006,0.53542 2.70673,-0.0667 z"
       id="path87983" />
    <path
       style="display:inline;fill:#c38959;fill-opacity:1;fill-rule:evenodd;stroke-width:1.57425;stroke-linecap:round;stroke-linejoin:round;stroke-dasharray:1.57425, 18.8911"
       d="m 362.57806,319.96044 c -1.80422,-0.14322 -4.08861,-0.43182 -5.07661,-0.64117 -2.09047,-0.44299 -19.08211,-6.34165 -38.40946,-13.33404 -31.92045,-11.54827 -34.27349,-12.60485 -43.09718,-19.35151 -14.27151,-10.91213 -24.52083,-27.52277 -27.36796,-44.3541 -0.79184,-4.682 -1.11603,-12.17793 -0.76867,-17.7754 0.58641,-9.44951 -45.85147,-33.22491 -29.73113,-48.47142 6.03217,-5.7052 50.07205,-19.71639 51.12012,-22.44476 0.15445,-0.40204 0.76472,-0.57522 2.56344,-0.72756 1.29846,-0.10989 3.15038,-0.3102 4.11538,-0.44494 1.62744,-0.2273 1.76371,-0.19746 1.88092,0.41199 0.12185,0.62734 0.12871,0.62553 0.16819,-0.0407 0.0326,-0.53929 0.33534,-0.77895 1.33277,-1.05443 2.29058,-0.63269 6.55493,-2.67037 8.81873,-4.21408 6.50874,-4.43834 9.34283,-8.83918 13.83937,-21.49006 3.10918,-8.74798 4.06286,-11.20352 4.35152,-11.20352 0.65318,0 8.36137,2.466 16.6201,5.31718 8.44768,2.91647 18.5501,6.5647 76.76503,27.72192 31.30451,11.37714 50.07907,18.38136 50.54124,18.85529 0.30703,0.3149 -0.58967,3.70522 -2.59227,9.80092 -3.51128,10.68856 -4.30021,14.87421 -4.00949,21.27488 0.20594,4.53673 0.69643,6.68616 2.36025,10.34191 1.50851,3.31442 2.45944,4.71078 5.84906,8.58764 l 2.7711,3.16931 v 2.39965 c 0,2.2635 -0.21658,3.02963 -3.81694,13.50306 -4.79378,13.9454 35.87811,1.16544 28.70812,47.01087 -0.71221,4.55362 -35.50759,5.57643 -37.20455,7.84628 -1.95832,2.61957 -8.83055,-12.16077 -7.07628,-14.26564 1.20578,-1.44668 1.15687,-0.80468 -0.17693,2.32005 -0.60839,1.42527 -1.31134,3.08844 -1.56258,3.69595 -0.84573,2.04693 -3.30998,6.13332 -5.61361,9.30867 -3.29452,4.54162 -8.16759,9.60612 -13.45408,13.9829 -4.20497,3.48142 -13.71599,8.89882 -15.62283,8.89882 -0.74258,0 -1.10024,0.14493 -1.10024,0.44575 0,1.0789 -9.67389,4.00295 -15.07606,4.55692 -4.52776,0.4643 -16.13132,0.67475 -20.04864,0.3636 z m -14.90993,-28.88 c 13.15239,-2.35257 24.73072,-11.29901 30.50426,-23.56983 1.56411,-3.32476 2.19001,-5.86488 1.87252,-7.60074 -0.26258,-1.43564 -1.78157,-3.08398 -3.81266,-4.13727 -3.95938,-2.05342 -57.77697,-21.26388 -66.43435,-23.71422 -3.59367,-1.01711 -5.97194,0.007 -7.32944,3.15497 -4.18729,9.71193 -3.12376,23.58339 2.63811,34.40894 3.76288,7.06966 8.61741,12.13975 16.33761,17.06226 2.40778,1.53532 3.50699,2.0068 6.72413,2.88444 2.11535,0.57703 4.88439,1.2474 6.1535,1.48973 3.14437,0.60033 10.04887,0.61156 13.34632,0.0219 z m -56.30432,-8.12438 c 0.11154,-0.47736 0.0772,-0.86789 -0.0738,-0.86789 -0.3113,0 -0.65866,1.47121 -0.40792,1.72835 0.21194,0.21741 0.24368,0.16065 0.48258,-0.86046 z m -1.07158,-6.29446 c -0.50867,-0.97506 -0.69813,-0.27104 -0.23718,0.88158 0.27459,0.68646 0.39729,0.78157 0.49101,0.37994 0.0686,-0.29467 -0.0446,-0.86234 -0.25383,-1.26152 z m -7.63284,-7.11416 c -0.25949,-0.45707 -0.31681,-0.35926 -0.3211,0.54821 0,0.60751 0.0961,1.45961 0.22139,1.89355 0.1941,0.67576 0.24025,0.59711 0.32109,-0.54821 0.0532,-0.73547 -0.0481,-1.58756 -0.22138,-1.89355 z m 140.20828,-23.08757 c 2.97258,-1.55618 3.90326,-4.8823 2.409,-8.60893 -2.52381,-6.29391 -11.20472,-13.86657 -18.21099,-15.88616 -2.35029,-0.67746 -11.40774,-1.00073 -14.43934,-0.51533 -6.69874,1.07251 -10.61487,4.05376 -10.61487,8.08088 0,1.87524 1.06316,3.85683 2.64187,4.92434 1.27426,0.8617 4.26812,0.79554 8.18408,-0.18087 4.51645,-1.12605 6.75965,-1.28791 9.14874,-0.66012 3.4253,0.90011 5.01911,2.07931 10.48529,7.75764 2.79204,2.90054 5.28427,5.3553 5.53808,5.45502 1.0594,0.41623 3.75087,0.21322 4.85814,-0.36643 z m -61.85065,-10.46002 c 2.25042,-1.32373 3.45707,-3.10409 3.45707,-5.10057 0,-3.73058 -2.20391,-5.25345 -13.82274,-9.5516 -10.06741,-3.72429 -12.37153,-4.21019 -14.48826,-3.0553 -2.5499,1.39125 -3.74124,5.1007 -2.61201,8.13316 0.53116,1.42682 0.63395,1.50773 3.96556,3.12293 6.0912,2.95298 18.59042,7.36178 20.95771,7.39226 0.50764,0.007 1.65181,-0.41689 2.54267,-0.94088 z M 318.509,209.62287 c 1.37981,-0.67153 3.97843,-3.61241 4.42859,-5.01173 0.49511,-1.53873 -0.1476,-3.38066 -2.46082,-7.04922 -4.0306,-6.39303 -9.83624,-10.71631 -17.72222,-13.19719 -2.50955,-0.7895 -3.1756,-0.86305 -7.96887,-0.88025 -5.8506,-0.0206 -7.13223,0.24127 -11.15786,2.28305 -2.90273,1.4722 -4.22813,2.73415 -4.68017,4.45595 -0.71891,2.73803 0.37121,5.34197 2.75257,6.576 1.68167,0.87141 3.12996,0.89156 7.39344,0.10289 7.20363,-1.33259 9.07151,-1.19569 13.5284,0.99149 2.73318,1.34132 5.45245,3.81677 8.66358,7.88682 1.79221,2.27165 3.07298,3.38001 4.51663,3.90882 1.46234,0.53561 1.47006,0.53542 2.70673,-0.0667 z"
       id="path88022"
       sodipodi:nodetypes="csssssscssssssssssscscccsssssscssssscccsssscsssscccsscccsccccsccssssssssscsssssscscssssscssssscsss" />
    <path
       style="display:inline;fill:#c38959;fill-opacity:1;fill-rule:evenodd;stroke-width:5.1532;stroke-linecap:round;stroke-linejoin:round;stroke-dasharray:5.1532, 61.8385"
       id="path88133"
       d="m 449.35609,220.73281 c -0.24061,0.5712 -0.81192,0.91735 -1.09561,1.45735 -0.13043,0.2478 -0.19031,0.52858 -0.26617,0.79899 -0.0618,0.2213 -0.13559,0.44422 -0.14759,0.67421 -0.0275,0.52496 0.11326,0.73379 0.30015,1.19313 0.0978,0.1586 0.15961,0.34712 0.2921,0.47566 0.0412,0.04 0,-0.11878 0.0189,-0.17446 0.0172,-0.0265 0.0378,-0.0407 0.0566,-0.0613 0.0172,-0.10186 0,-0.20658 0.0275,-0.30572 0.0789,-0.31703 0.0309,-0.7397 0.28506,-0.93772 1.79597,-1.39914 3.80372,-2.48625 5.70558,-3.72939 3.36216,-6.14721 3.99163,3.94798 6.45726,3.74942 0.28695,-0.0233 0.47796,-0.35049 0.63997,-0.59452 0.55037,-0.82951 0.54934,-2.09342 0.56753,-3.04369 -0.1064,-0.98297 -0.12356,-1.97995 -0.41771,-2.93135 -0.2116,-0.68531 -0.53322,-1.24482 -0.9372,-1.8199 -3.99937,-2.33163 -1.09904,-0.78052 -12.57164,1.39911 -0.27802,0.053 -0.87165,1.28927 -0.97171,1.47825 0.1167,1.01736 14.14246,-0.66571 14.02645,-1.68306 v 0 c -0.21075,-0.30734 -0.44123,-0.85941 -0.93943,-0.81631 -6.78368,0.58691 -8.26646,0.79909 -12.53766,1.39614 -0.10641,0.12767 -0.225,0.24534 -0.31887,0.38287 -0.85963,1.26028 -1.02919,2.80309 -1.22448,4.285 -0.0172,0.40332 -0.0549,0.80686 -0.0378,1.21006 0.0343,0.81494 0.18363,1.72629 0.51107,2.47718 0.18637,0.4276 0.45135,0.81472 0.69505,1.21077 0.34581,0.56197 0.56445,1.25071 1.07312,1.66232 1.77366,1.43527 3.78416,2.53271 5.67625,3.79907 5.1703,-3.28034 5.2556,-1.68843 6.42052,-5.01376 0.0841,-0.23841 0.12185,-0.49111 0.19617,-0.73283 0.0549,-0.18099 0.14245,-0.35127 0.19101,-0.53426 0.0653,-0.24609 0.024,-0.5298 0.14931,-0.7496 0.0721,-0.12424 0.25571,-0.11946 0.38356,-0.17912 0.12872,-0.14545 0.28266,-0.27148 0.38751,-0.43613 0.31955,-0.50144 0.37653,-0.84453 0.40948,-1.44427 0.0172,-0.21884 0.0189,-0.44278 -0.0275,-0.65689 -0.0498,-0.23616 -0.0995,-0.49665 -0.2564,-0.67581 -0.10297,-0.11673 -0.29707,-0.0793 -0.44551,-0.11878 0.0704,-0.89021 -12.20386,-1.90102 -12.27372,-1.01082 z" />
    <path
       style="display:inline;fill:#c38959;fill-opacity:1;fill-rule:evenodd;stroke-width:5.1532;stroke-linecap:round;stroke-linejoin:round;stroke-dasharray:5.1532, 61.8385"
       id="path88135"
       d="m 458.3562,218.94385 c 0.22981,-0.20909 0.51039,-0.37127 0.68939,-0.62732 0.46113,-0.65889 0.65645,-1.35242 0.66227,-2.1494 9.8e-4,-0.1569 -0.0788,-0.60305 -0.12356,-0.45307 -0.31269,1.0499 0.0961,2.47957 -0.69848,3.21454 -2.18298,2.01809 -5.09788,3.00034 -7.64657,4.50049 -0.58693,0.11126 -1.23445,0.0453 -1.76097,0.3335 -0.40655,0.22247 0.22825,0.99397 0.3223,1.08349 0.0875,0.083 0.20303,0.19068 0.31938,0.16441 0.0961,-0.0219 0.12356,-0.16868 0.14244,-0.2689 0.0429,-0.22872 0.0257,-0.46514 0.0377,-0.69767 -6.8e-4,-0.78996 -0.14416,-2.34333 0.36641,-3.01245 0.81672,-1.06875 1.78447,-2.00844 2.73352,-2.95524 0.0395,-0.0388 0.1064,0.0882 0.0875,0.14049 -0.0463,0.1304 -0.1699,0.2164 -0.25468,0.32465 -0.9499,0.8105 -3.43079,3.42559 -3.68016,3.45063 -1.03433,0.10391 1.39937,-1.58618 1.97891,-2.4709 0.0772,-0.11861 -0.27372,0.0537 -0.41118,0.078 -0.10813,0.0188 -0.21505,0.0348 -0.32248,0.0523 -0.55981,0.28473 -0.81003,0.33163 -1.20526,0.88365 -0.12355,0.17349 -0.16819,0.39414 -0.25297,0.59122 -0.93102,0.33782 3.72701,13.84389 4.65821,13.50604 v 0 c 0.26824,-0.0265 0.54351,-0.0119 0.80455,-0.0803 0.71512,-0.18726 0.93702,-0.49028 1.51486,-0.96851 1.59826,-1.43617 0.4148,-0.27472 1.61216,-1.67742 0.9233,-1.08144 2.14883,-1.94542 2.79617,-3.22039 0.44998,-0.8867 -1.44948,1.33694 -2.17748,2.00157 -0.14416,0.13125 -0.3108,0.23908 0,0.0199 0.28951,-0.12527 0.9904,-0.41907 1.13352,-0.55518 2.05066,-1.95025 3.49122,-3.03205 4.38569,-5.52296 0.61781,-1.72055 0.52875,-2.74394 0.62794,-4.57788 -0.0807,-0.80869 -0.0858,-1.62875 -0.24113,-2.42603 -0.42714,-2.2039 -1.49804,-4.58314 -3.20339,-6.06167 -1.95987,-1.69922 -3.20667,-1.66491 -5.81955,-2.41866 -3.04757,1.39698 -6.50189,2.09687 -9.14273,4.19094 -1.12409,0.89133 -0.9722,2.74128 -1.36589,4.14155 -0.15961,0.56641 -0.25606,1.46466 0.0754,2.03273 0.21882,0.37516 0.9372,0.78305 1.26962,0.99938 0.10813,0.87631 12.18997,-0.68928 12.08202,-1.56559 z" />
    <path
       style="display:inline;fill:#c38959;fill-opacity:1;fill-rule:evenodd;stroke-width:5.1532;stroke-linecap:round;stroke-linejoin:round;stroke-dasharray:5.1532, 61.8385"
       id="path88137"
       d="m 461.56803,220.21512 c 0.31062,-0.47882 0.68869,-0.91834 0.93188,-1.43655 0.8126,-1.73129 1.16664,-3.97814 0.0566,-5.68975 -0.92502,-1.42553 -4.54151,-2.96845 -5.22111,-3.33899 -3.89743,2.02001 -8.05982,3.57419 -11.69228,6.05995 -1.00446,0.6874 -1.34753,2.06987 -1.84042,3.20057 -0.80883,1.85529 -1.29108,3.86587 -0.73487,5.88646 0.21179,0.76928 0.51777,1.62945 1.16013,2.08202 0.57767,0.40706 1.39525,0.13981 2.0927,0.20981 -1.60547,-14.06069 10.93974,-2.79185 14.87046,-6.58891 0.63395,-0.61229 0.76696,-1.6369 0.88108,-2.52231 0.19376,-1.50261 -0.22276,-3.34235 -1.48912,-4.31048 -0.63618,-0.48646 -1.49135,-0.55674 -2.23703,-0.83509 -13.30444,3.15666 -12.57902,-0.91116 -16.04293,7.89877 -0.73745,1.87556 -1.47249,3.84155 -0.14932,5.72451 1.03194,1.46941 4.26538,2.07404 5.55834,2.46512 5.68482,-3.00288 12.08443,-3.2269 13.93411,-9.43482 0.25778,-0.86538 0.15789,-1.80245 0.23769,-2.70367 -0.4105,-1.42772 -20.09517,4.52686 -19.68448,5.95458 v 0 c 0.3616,0.59083 0.56805,1.31918 1.08513,1.77244 4.08843,3.58401 13.64836,-3.37942 14.69643,-3.76735 0.9983,0.13586 2.03178,0.70913 2.9949,0.40765 0.65111,-0.20373 1.04034,-1.02844 1.17506,-1.7127 0.2461,-1.24964 -0.88469,-3.68514 -2.30637,-3.82464 -1.00224,-0.0984 -1.7843,1.01295 -2.76492,1.2474 -4.54425,1.0865 -9.16538,1.80055 -13.74791,2.70082 -0.47572,0.50305 -1.17385,0.85825 -1.42699,1.50913 -0.277,0.7117 -0.22928,1.55329 -0.0532,2.2981 0.47641,2.02168 1.69901,3.06055 3.32285,4.15083 6.8089,4.57142 4.70763,1.5286 16.21026,-3.23475 0.65696,-0.57805 1.45412,-1.02189 1.97086,-1.73423 1.20613,-1.66281 0.96964,-4.69333 -0.65317,-6.01669 -3.56364,-2.90625 -14.37089,5.43434 -13.21007,3.55856 -1.13027,-0.57754 -2.13834,-1.56636 -3.39064,-1.73261 -0.42355,-0.0562 -0.44586,0.78207 -0.47932,1.21882 -0.12527,1.64085 1.14966,3.07134 2.49016,3.72283 0.40725,0.19793 0.87147,0.23668 1.30721,0.35502 0.24387,0.88127 12.39436,-2.6586 12.15033,-3.53987 z" />
    <path
       style="display:inline;fill:#c38959;fill-opacity:1;fill-rule:evenodd;stroke-width:5.1532;stroke-linecap:round;stroke-linejoin:round;stroke-dasharray:5.1532, 61.8385"
       id="path88139"
       d="m 430.56625,268.60845 c -1.90994,0.92056 -3.51386,1.88105 -4.94481,3.51689 -0.52085,0.59568 -1.03743,1.21138 -1.4179,1.90999 -0.74292,1.36392 -0.89052,2.66271 -1.18467,4.15079 0.0223,0.57062 -0.0446,1.15229 0.0669,1.71198 0.0978,0.49381 0.2878,0.97641 0.55037,1.40231 0.23186,0.3758 0.48792,0.83663 0.90494,0.95802 4.58406,1.33432 9.16385,2.99294 13.91575,3.35595 2.83991,0.21696 7.44286,-3.46446 9.52613,-4.89342 1.04874,-1.32324 2.32454,-2.48718 3.14626,-3.96975 1.26017,-2.27403 1.95573,-5.66868 1.358,-8.28239 -0.25846,-1.13024 -0.80918,-2.22687 -1.56566,-3.09038 -2.3757,-2.71206 -4.20737,-7.09124 -7.73634,-7.52817 -4.64671,-0.57528 -8.79366,3.29151 -13.19067,4.93727 -1.69608,1.05662 -3.53136,1.90761 -5.08809,3.16984 -5.34674,4.33524 -9.77018,11.8142 -8.233,19.05034 0.24696,1.16268 0.93188,2.17958 1.39766,3.26939 2.72081,2.72035 1.22723,1.67804 4.40352,3.24013 -0.14072,0.93121 12.69864,2.96525 12.83885,2.03406 v 0 c 3.67055,0.55144 1.71497,0.61751 5.84356,-0.56578 3.25095,-2.12509 4.55266,-2.56955 6.95821,-5.92176 2.07744,-2.89462 3.39717,-6.14422 3.72016,-9.74305 0.15101,-1.67502 0.10639,-3.40463 -0.28609,-5.0378 -0.35457,-1.47517 -1.27598,-2.74241 -1.91405,-4.11363 -3.75241,0.31303 -7.69068,2.17548 -11.2574,0.93906 -3.28835,-1.13994 -4.48041,-5.63781 -7.4777,-7.43371 -0.94561,-0.56667 -2.15775,0.53368 -3.10918,1.0902 -2.01908,1.18103 -4.10166,3.59871 -5.01002,5.76574 -0.5339,1.27376 -0.60187,2.70337 -0.90288,4.05505 0.21554,1.32524 0.0823,2.76352 0.64682,3.97566 0.52841,1.13381 1.3877,2.2318 2.496,2.76751 4.13031,1.99641 8.56678,3.25201 12.91471,4.68158 0.78634,0.25858 1.87749,-0.22361 2.47266,-0.66279 0.4486,-0.33104 0.79183,-0.79115 1.18777,-1.18673 0.63137,-0.91683 1.50559,-2.05232 1.87147,-3.1327 0.2075,-0.6126 0.29021,-1.26614 0.35508,-1.91127 0.12185,-1.20548 0.12871,-2.16185 -0.4692,-3.23408 -0.17213,-0.30878 -0.48928,-0.50411 -0.73384,-0.75619 0.31149,-0.87418 -11.74101,-5.39237 -12.0525,-4.51818 z" />
    <path
       style="display:inline;fill:#c38959;fill-opacity:1;fill-rule:evenodd;stroke-width:5.1532;stroke-linecap:round;stroke-linejoin:round;stroke-dasharray:5.1532, 61.8385"
       id="path88141"
       d="m 397.66827,308.69675 c -0.38545,-0.10732 -0.78635,-0.16765 -1.15635,-0.32213 -1.21625,-0.50778 -0.84264,-0.95683 -2.43422,-0.60764 -0.80729,0.17712 -1.79324,0.90368 -2.27891,1.58557 -0.24283,0.34094 -0.35112,0.76387 -0.52669,1.14583 0.0944,0.39162 -0.0257,0.92261 0.28025,1.17497 4.59882,3.78582 6.16208,0.88932 6.85147,9.52705 0.1167,1.45844 -1.68854,2.51918 -1.81228,3.97697 -0.0429,0.51281 0.93738,0.40087 1.4349,0.46734 0.83508,0.1116 1.68373,0.0414 2.52568,0.0613 2.17336,-1.03301 3.05668,-1.08504 4.47252,-3.20296 0.50267,-0.75196 0.68681,-1.68307 1.07742,-2.50211 0.95452,-2.00162 3.56002,-3.81663 2.95661,-5.95723 -2.42581,-8.60705 -5.47596,-9.69667 -10.84912,-12.67347 -1.05511,-0.23028 -2.08653,-0.68683 -3.1653,-0.69076 -2.31375,-0.009 -4.13821,0.90761 -5.79775,2.48738 -0.70072,0.66708 -1.16665,1.5539 -1.74998,2.33087 -1.44399,0.25521 2.07451,21.20098 3.5185,20.94577 v 0 c 0.83766,0.24043 1.64443,0.66964 2.51265,0.72132 2.38376,0.14185 4.29832,-0.66993 6.12381,-2.2428 1.00173,-0.86321 1.71891,-2.0238 2.5782,-3.03569 2.61219,-9.5881 -0.49408,4.86761 -5.07437,-14.89732 -0.41944,-1.81041 2.10196,-3.26309 2.16288,-5.1229 0.0223,-0.69143 -1.31046,-0.49014 -1.98148,-0.4205 -2.19139,0.22735 -3.03831,1.46465 -4.60603,2.85898 -1.21197,1.90998 -2.3987,3.83707 -3.62971,5.73414 -1.22707,1.89083 -3.4248,3.39779 -3.71448,5.64972 -0.35611,2.76817 0.52446,5.75217 1.94116,8.13638 0.6125,1.03089 4.69356,2.91808 6.43445,3.75812 0.66055,0.0917 1.31543,0.30411 1.98148,0.27544 1.45411,-0.0627 3.12979,-0.66803 4.27327,-1.59707 0.67222,-0.54608 1.20973,-1.25311 1.73454,-1.94852 0.52016,-0.68916 1.04994,-1.39303 1.39078,-2.19143 0.19135,-0.44809 0.11155,-0.97162 0.16648,-1.45744 0.82513,-0.40913 -4.81593,-12.37673 -5.64089,-11.96759 z" />
    <path
       style="display:inline;fill:#c38959;fill-opacity:1;fill-rule:evenodd;stroke-width:5.1532;stroke-linecap:round;stroke-linejoin:round;stroke-dasharray:5.1532, 61.8385"
       id="path88143"
       d="m 411.52927,316.0399 c 1.0206,0.62546 1.94443,1.46103 3.06233,1.87638 1.34617,0.50015 2.78725,0.86416 4.2187,0.82874 3.18899,-0.0787 5.91599,-1.44949 8.19368,-3.66551 2.54955,-2.48062 2.72906,-3.96403 3.91082,-7.13418 1.00138,-2.64179 3.85486,-5.22857 3.00415,-7.92536 -1.69574,-5.37552 -7.159,-9.71861 -12.41135,-11.06753 -1.51692,-0.38963 -3.08429,-0.71995 -4.64722,-0.66177 -4.25438,0.15825 -5.4001,1.38303 -8.96322,3.42608 -2.69387,2.8915 -3.59349,3.27647 -5.03455,6.97565 -2.53685,6.51207 0.8356,12.91696 3.70057,18.87092 0.27288,0.56713 1.19498,0.31218 1.79255,0.4683 1.2413,-0.2253 1.46234,-0.0581 2.37843,-1.04267 0.36143,-0.38826 0.60668,-0.87483 0.9101,-1.31225 0.92244,-0.48767 -5.801,-13.87114 -6.72379,-13.38347 v 0 c -0.0961,-0.0803 -0.16991,-0.26993 -0.29038,-0.24087 -0.71856,0.17234 -0.9106,0.93066 -1.19652,1.48752 1.25178,5.50196 0.81776,3.75772 4.31652,14.33073 0.58075,1.7546 1.18966,2.76527 3.02253,3.4459 2.71995,1.01 3.92865,0.23997 6.67659,-0.41941 1.19909,-0.77825 2.51589,-1.39245 3.59744,-2.33475 2.4373,-2.12353 4.14334,-4.7044 5.27499,-7.76268 0.42836,-1.15785 1.2087,-2.48458 0.75717,-3.63315 -6.20172,-15.77771 -8.39208,-4.2928 -3.57426,-17.22924 -0.5552,-0.46896 -0.99486,-1.14041 -1.66538,-1.40681 -1.88779,-0.74991 -4.06355,-0.17375 -5.71039,0.85349 -2.48811,1.55198 -4.23139,4.00674 -5.64671,6.54011 -0.67138,1.20179 -1.11226,2.52443 -1.6683,3.78665 -1.1258,0.19694 1.58968,16.52615 2.7155,16.3292 z" />
    <path
       style="display:inline;fill:#c38959;fill-opacity:1;fill-rule:evenodd;stroke-width:5.1532;stroke-linecap:round;stroke-linejoin:round;stroke-dasharray:5.1532, 61.8385"
       id="path88145"
       d="m 410.44807,297.63669 c 1.38891,-2.15704 2.71259,-2.90955 0.65868,-2.32301 -0.20576,0.0588 -0.41017,0.13741 -0.5907,0.25437 -0.26842,0.17396 -0.5267,0.37265 -0.74329,0.61055 -0.54367,0.59678 -0.69744,1.16475 -1.01081,1.91054 0.13042,12.50389 -3.26554,10.34982 5.21424,13.93448 1.62316,0.68614 2.77763,1.04019 4.47767,0.41514 1.82582,-0.67128 1.89653,-1.39885 2.85004,-2.9822 5.32631,-8.55096 5.50033,-4.96173 -4.53138,-15.37278 -0.72457,-0.75193 -1.79682,-1.10987 -2.80285,-1.3394 -0.95814,-0.21858 -1.96312,0.0188 -2.94478,0.0284 -1.55537,0.39757 3.92625,22.96058 5.48162,22.56301 v 0 c 0.77606,-0.90974 3.75566,-3.83047 3.15039,-5.51433 -5.42414,-15.09087 -9.05591,-5.78169 -2.80544,-15.86916 -0.24868,-0.28009 -0.38992,-0.7401 -0.74602,-0.84017 -0.88983,-0.25003 -2.16838,0.75562 -2.58215,1.36288 -0.36161,0.5305 -1.00294,1.23633 -0.70002,1.80418 0.68423,1.28292 2.9132,1.46973 3.20906,2.90024 0.75718,3.66336 -0.19187,7.48703 -0.28779,11.23055 0.13214,0.0791 0.24506,0.25591 0.39711,0.23731 0.56977,-0.0695 1.18364,-0.73656 1.51917,-1.11132 0.30255,-0.33803 0.64355,-0.65645 0.85636,-1.06016 0.15788,-0.30146 0.0498,-0.71178 0.22962,-1.00071 0.72732,-1.16994 1.63585,-2.21038 2.45379,-3.31557 0.4498,-0.77987 -10.30287,-7.30256 -10.75252,-6.52269 z" />
    <path
       id="path78849"
       style="display:inline;fill:#f25042;fill-opacity:1;fill-rule:evenodd;stroke-width:4.67681;stroke-linecap:round;stroke-linejoin:round;stroke-dasharray:4.67681, 56.1219"
       d="m 176.57529,194.11307 c -20.52472,0.0368 -39.70328,7.18661 -51.26066,19.10978 -52.658494,2.80651 -92.291756,22.57527 -92.327796,46.05235 0.07551,1.86673 0.405188,3.7298 0.987485,5.57897 -19.466704,7.28174 -31.4351065,20.61629 -31.4460982,35.03561 0.030912,7.4898 3.3008874,14.82827 9.4480422,21.20416 -1.072264,5.31205 -1.615261,10.78768 -1.614918,16.287 0.05663,24.61084 10.921887,46.91887 27.808841,57.09932 -1.114481,2.85624 -1.701583,6.09911 -1.701583,9.40054 -5.16e-4,10.35353 5.649464,18.747 12.619007,18.74658 6.968686,-9.8e-4 14.155839,1.38914 14.155326,-8.96324 -6.87e-4,-1.32752 -1.634655,-12.43452 -1.823605,-13.73202 3.40866,-0.31787 6.781452,-1.12354 10.059681,-2.40309 0.367605,0.0395 0.735552,0.0735 1.103671,0.10288 19.517501,-0.0693 37.510007,-13.69241 47.147357,-35.69741 2.61715,-2.71804 4.95115,-5.68459 6.96747,-8.85576 2.75463,1.11076 5.63831,1.68694 8.5431,1.70698 6.66168,-0.007 13.09354,-2.93466 18.09343,-8.23832 13.07653,-7.99286 21.44493,-25.05953 21.49847,-43.84496 4.17133,-0.69507 8.23831,-1.50718 12.17624,-2.43134 6.26419,14.71016 28.8739,25.04216 54.83494,25.058 8.39636,-0.04 14.66347,2.82962 22.21806,0.6897 0.50525,10.74268 4.70197,14.46856 7.24328,14.48554 2.88814,-0.0193 5.25131,-9.92439 5.33866,-22.37646 9.30319,-4.28233 16.06886,-10.16202 19.34245,-16.8096 -0.17453,0.002 -0.34837,-0.0154 -0.52326,-0.0137 -2.85828,4.63744 -10.27815,6.2086 -19.84409,0.5024 -0.14931,-0.0889 -0.28883,-0.17595 -0.43659,-0.26432 -1.00962,-4.58533 -2.41122,-7.18272 -3.87717,-7.18507 -0.88933,0.003 -1.76405,0.9651 -2.5456,2.79453 -0.99846,-0.84508 -1.95455,-1.74175 -2.80491,-2.79453 -0.12356,-0.0761 -0.22447,-0.13195 -0.39747,-0.25018 -2.10831,-1.44161 -3.3165,-2.61041 -4.97466,-4.57416 -1.29709,-2.20128 -2.91475,-4.09437 -4.20188,-6.33159 -0.3144,-0.54654 -0.8356,-1.05222 -0.88314,-1.67875 -0.75597,-1.08263 -1.48364,-2.18477 -2.16186,-3.31914 -0.0498,-0.0824 -0.21898,-0.65832 -0.36589,-1.13194 -0.0172,-0.0193 -0.0395,-0.0627 -0.0515,-0.0807 -0.13901,-0.48349 -0.0172,-0.0414 -0.0532,-0.18765 -0.4699,-0.65515 -0.90461,-1.31814 -1.15653,-2.0278 -0.0961,-0.10972 -0.0583,-0.0627 -0.18106,-0.20379 0.0172,-0.19463 0.0172,-0.22854 0.0583,-0.15535 0,-0.0226 -0.0172,-0.0439 -0.0172,-0.0667 -0.75341,-1.08517 -1.86462,-2.75304 -2.85229,-4.68917 -0.37944,-0.74374 -1.38323,-2.6419 -0.78292,-2.54634 -0.67137,-1.58853 -1.34941,-3.17343 -2.01632,-4.76383 -0.37911,-0.6551 -0.26,-1.74671 -0.179,-2.86316 -1.00448,-0.0824 -2.01272,-0.14902 -3.02339,-0.19978 v -0.002 -0.002 -0.002 -0.002 -0.002 -0.002 c 0,-4.76517 -1.66227,-9.50177 -4.92162,-14.04329 0.63137,-2.43519 0.96756,-4.90364 1.00515,-7.3788 8.7e-4,-24.15714 -27.85791,-43.74057 -62.2234,-43.74004 z m 75.01145,80.30305 c 0.0309,0.12254 0.0789,0.23983 0.12184,0.35914 0.12185,0.13929 0.14759,0.1692 0.22808,0.26033 -0.17969,-0.30141 -0.30943,-0.54738 -0.3501,-0.61947 z m 1.27854,2.38695 c 0.0172,0.0137 0.0189,0.0272 0.0292,0.0407 -0.19753,-0.64725 -0.13902,-0.41651 -0.0292,-0.0407 z m 0.0292,0.0407 c 0.0292,0.095 0.0446,0.13246 0.0754,0.22801 0.47211,0.72928 1.59809,2.67992 1.28644,1.95113 -0.32796,-0.76699 -0.85362,-1.47275 -1.36127,-2.17914 z m -4.22521,-7.9498 c 0.0275,0.29107 0.0669,0.57451 0.1596,0.81113 0.10983,0.28266 0.6034,1.04274 0.49185,0.76068 -0.20886,-0.5276 -0.4354,-1.04718 -0.65112,-1.57181 z m 33.78677,0.46611 c 0.048,1.11448 0.091,2.21523 0.26378,3.22634 0.0788,-0.0421 0.15617,-0.0867 0.23597,-0.12715 -0.079,-0.80502 -0.20886,-1.90652 -0.33448,-2.98017 -0.0549,-0.04 -0.10984,-0.0795 -0.16475,-0.11912 z m -30.40541,5.69803 c 0,0.0304 -0.0172,0.0606 -0.0172,0.0908 0.25485,0.2886 0.27493,0.27298 0.0172,-0.0908 z m 37.67785,1.05325 c 0.0172,0.13108 0.0309,0.26033 0.0429,0.39144 0.18192,0.50494 0.37996,1.00133 0.61371,1.48301 0.21126,0.43478 0.15444,-0.0555 -0.0172,-0.7647 v -0.002 c -0.19754,-0.3784 -0.41325,-0.74899 -0.65112,-1.10773 z m 1.55211,6.01077 c -0.12528,0.38556 -0.26789,0.88449 -0.40912,1.37809 0.26892,0.78757 0.40569,-0.0983 0.40912,-1.37809 z m -35.28396,0.0887 c 0.13558,0.29888 0.2799,0.62929 0.37978,0.80304 0.1167,0.0728 0.24165,0.13348 0.35989,0.20381 -0.24662,-0.33564 -0.49752,-0.66789 -0.73967,-1.00685 z"
       sodipodi:nodetypes="ccccccccccccccccccccccccccsccccscscscccccccscccccccccscccccccccccscssscsscccccccccccscccccccccccsc" />
    <path
       id="path82633"
       style="display:inline;fill:#fff0e9;fill-opacity:1;fill-rule:evenodd;stroke-width:5.14074;stroke-linecap:round;stroke-linejoin:round;stroke-dasharray:5.14074, 61.6889"
       d="m 190.6928,299.08918 c -5.12028,0.0254 -18.16865,3.81652 -20.72297,16.23414 -29.03868,27.54126 -13.87577,13.20421 -19.22976,22.71382 -19.60685,21.47042 -15.91278,7.14214 -29.72218,25.42186 -7.0656,0.0334 -8.33636,2.53611 -13.08728,11.75163 -2.39947,-3.54514 -3.03292,0.12207 -5.79446,0.12003 -4.748065,0.0236 -9.244184,5.54297 -12.261037,15.05151 -0.41124,-0.0564 -0.823275,-0.0862 -1.235467,-0.0893 -2.967378,0.0289 -12.871618,10.99566 -15.522882,13.67536 -91.356866,44.189 13.677715,60.70134 58.182096,90.34817 11.41084,-0.0233 22.59185,-2.69768 32.30734,-7.72758 3.44934,8.57532 7.49401,13.16253 11.63211,13.19239 5.07761,-0.019 9.9836,-6.89632 13.82012,-19.3733 0.58163,0.038 1.16378,0.071 1.74634,0.099 2.64064,4.29296 5.45239,6.50586 8.29005,6.5244 2.8414,-0.0201 5.65673,-2.24033 8.30021,-6.54574 40.38208,-3.39382 59.32705,-24.29616 59.4054,-56.16686 -0.006,-0.72215 -0.34858,-41.94387 7.15508,-32.43041 22.86501,-50.25269 35.62369,-29.88202 35.62696,-38.75522 3.7e-4,-36.88063 -60.1986,-17.505 -62.4785,-25.25443 -15.15509,-3.36718 -17.22895,-1.32513 -35.2779,-12.68615 -5.99731,4.25183 -10.09911,-16.82302 -16.91389,-14.32767 -1.36692,-1.17741 -2.7891,-1.77592 -4.21931,-1.77566 z"
       clip-path="url(#clipPath84287)"
       sodipodi:nodetypes="scccccccccccccccccccccss"
       transform="matrix(1.135186,0,0,1.0330701,-20.654505,-4.9426005)" />
    <path
       id="rect92265"
       style="display:inline;fill:#4f3118;fill-opacity:1;fill-rule:evenodd;stroke-width:5.48571;stroke-linecap:round;stroke-linejoin:round;stroke-dasharray:5.48571, 65.8281"
       d="m 316.83935,2.1658124 -27.1066,68.9392676 3.58406,1.31354 -10.98041,27.92718 198.23256,72.59337 27.10469,-68.93928 -3.58405,-1.31353 8.93061,-22.715444 c -0.0172,-0.01367 -0.0206,-0.03298 -0.0275,-0.04256 -0.20509,-0.278866 -0.41172,-0.56132 -0.57047,-0.871649 -0.14587,-0.282933 -0.26737,-0.523276 -0.36776,-0.813147 -0.16133,-0.216196 -0.29415,-0.487558 -0.40331,-0.718313 -0.0378,-0.07828 -0.0669,-0.159967 -0.0995,-0.240087 -0.0377,-0.128178 -0.0772,-0.256375 -0.11155,-0.385373 -8.7e-4,-0.0034 -6.9e-4,-0.0085 0,-0.01367 -0.0858,-0.158257 -0.17402,-0.394858 -0.22619,-0.526642 -0.20234,-0.592066 -0.35543,-1.193343 -0.54284,-1.789715 -0.14071,-0.552927 -0.1064,-0.375802 -0.19084,-0.841381 -0.0189,-0.105106 -0.0172,-0.215545 -0.0549,-0.314772 -0.0601,-0.156377 -0.16647,-0.292281 -0.23804,-0.443891 z M 512.92188,79.014516 c -0.0669,-7.17e-4 0.0498,0.609054 0.0532,0.843415 0.0172,0.02769 0.0378,0.05298 0.0583,0.07862 l 0.139,-0.35514 c -0.048,-0.187055 -0.10811,-0.367992 -0.21057,-0.526626 -0.0189,-0.02786 -0.0309,-0.03999 -0.0412,-0.03999 z" />
    <rect
       style="display:inline;fill:#4f3118;fill-opacity:1;fill-rule:evenodd;stroke-width:5.15318;stroke-linecap:round;stroke-linejoin:round;stroke-dasharray:5.15318, 61.8381"
       id="rect92659"
       width="16.386963"
       height="48.613846"
       x="277.00027"
       y="89.444313" />
    <rect
       style="display:inline;fill:#4f3118;fill-opacity:1;fill-rule:evenodd;stroke-width:5.15318;stroke-linecap:round;stroke-linejoin:round;stroke-dasharray:5.15318, 61.8381"
       id="rect92767"
       width="5.4926505"
       height="30.171408"
       x="291.44754"
       y="89.229744" />
    <rect
       style="display:inline;fill:#4f3118;fill-opacity:1;fill-rule:evenodd;stroke-width:5.15318;stroke-linecap:round;stroke-linejoin:round;stroke-dasharray:5.15318, 61.8381"
       id="rect92769"
       width="16.27696"
       height="11.719391"
       x="271.43213"
       y="129.84433" />
    <rect
       style="display:inline;fill:#4f3118;fill-opacity:1;fill-rule:evenodd;stroke-width:5.15318;stroke-linecap:round;stroke-linejoin:round;stroke-dasharray:5.15318, 61.8381"
       id="rect92771"
       width="6.5019703"
       height="11.719395"
       x="271.43213"
       y="129.84433" />
    <rect
       style="display:inline;fill:#4f3118;fill-opacity:1;fill-rule:evenodd;stroke-width:5.15318;stroke-linecap:round;stroke-linejoin:round;stroke-dasharray:5.15318, 61.8381"
       id="rect92773"
       width="14.793949"
       height="43.738796"
       x="458.53214"
       y="161.97888" />
    <rect
       style="display:inline;fill:#4f3118;fill-opacity:1;fill-rule:evenodd;stroke-width:5.15318;stroke-linecap:round;stroke-linejoin:round;stroke-dasharray:5.15318, 61.8381"
       id="rect92775"
       width="17.684771"
       height="24.349665"
       x="462.8833"
       y="148.58951" />
    <path
       style="display:inline;fill:#ffffff;fill-opacity:1;stroke:none;stroke-width:1.42952px;stroke-linecap:butt;stroke-linejoin:miter;stroke-opacity:1"
       d="m 318.49135,240.67652 c 11.92821,-2.45214 37.34024,7.35317 45.29487,18.25283 7.95462,10.89966 -1.54586,22.89355 -13.4726,25.34547 -11.92674,2.45193 -26.28065,-4.63879 -34.2371,-15.53832 -7.95645,-10.89953 -9.51339,-25.60784 2.41483,-28.05998 z"
       id="path93565"
       inkscape:path-effect="#path-effect93567"
       inkscape:original-d="m 305.006,228.41848 c 25.41323,9.80677 50.82527,19.61205 76.23593,29.41587 -9.49951,11.99591 -18.9999,23.98987 -28.50217,35.9826 -14.3532,-7.08956 -28.70708,-14.18033 -43.06287,-21.2727 -1.5557,-14.7074 -3.11261,-29.41571 -4.67089,-44.12577 z" />
    <path
       style="display:inline;fill:#ffffff;fill-opacity:1;stroke:none;stroke-width:1.42952px;stroke-linecap:butt;stroke-linejoin:miter;stroke-opacity:1"
       d="m 157.74758,438.05209 c 7.31133,-9.97358 32.63947,-20.00432 45.64882,-17.3002 13.00936,2.70412 13.70148,18.14158 6.39117,28.1139 -7.31031,9.97232 -22.62422,14.47975 -35.63485,11.77696 -13.01064,-2.70278 -23.71648,-12.61708 -16.40514,-22.59066 z"
       id="path93565-7"
       inkscape:path-effect="#path-effect93741"
       inkscape:original-d="m 139.72891,438.10999 c 25.33034,-10.03062 50.65846,-20.06141 75.98469,-30.09234 0.69419,15.43827 1.38633,30.87573 2.0764,46.31337 -15.31254,4.50778 -30.62645,9.0152 -45.94277,13.5226 -10.70427,-9.9146 -21.41009,-19.82892 -32.11832,-29.74363 z" />
    <path
       style="display:inline;fill:#000000;stroke-width:1.02002"
       d="m 138.44385,514.17967 c -19.28016,-3.5887 -35.84379,-12.75325 -48.348669,-26.75117 l -5.950309,-6.66079 -4.891431,0.93732 c -10.95415,2.09912 -25.038425,-2.68679 -33.868298,-11.50855 -12.626389,-12.61494 -15.86017,-34.30319 -6.464647,-43.35693 1.370878,-1.32103 2.492568,-2.7595 2.492568,-3.19663 0,-0.4371 -3.127894,-5.72347 -6.950837,-11.74751 -10.604395,-16.70997 -12.828381,-21.47976 -11.636844,-24.95542 0.543855,-1.58649 2.198416,-3.58086 3.676726,-4.43197 4.357875,-2.50893 7.730322,-0.57347 11.939404,6.85223 5.563484,9.81483 16.231206,23.4693 17.035919,23.47162 0.395748,9.7e-4 1.088052,2.60396 0,0 -2.574945,-6.16134 -2.498917,-9.31274 0.287458,-11.93451 1.246455,-1.1727 11.103972,-7.4844 21.905726,-14.02602 49.801234,-30.16007 84.565544,-61.23844 98.907064,-88.42067 5.43803,-10.30712 7.05587,-12.08424 11.00049,-12.08424 2.55744,0 4.30725,1.24277 9.31607,6.61661 8.1688,8.76425 15.70674,14.77669 24.29601,19.37926 11.34458,6.07908 17.28081,7.42068 30.08088,6.79836 10.325,-0.50195 11.1661,-0.39401 13.20251,1.69475 1.19616,1.22698 3.02681,4.66119 4.06818,7.63157 2.03486,5.80427 2.57014,6.25704 4.53189,3.83255 1.02404,-1.26565 4.19106,0.14715 2.81555,-11.30267 -1.59467,-13.27461 -5.12981,-18.76845 -7.66974,-20.67029 -5.62784,-4.21391 -15.69439,-14.72669 -19.97469,-20.8601 -9.37287,-13.43128 -15.45172,-31.92213 -15.46528,-47.04273 l -0.0172,-7.95107 -5.52436,-3.76128 c -5.24187,-3.5689 -9.96838,-8.70911 -12.41495,-13.50149 -0.7867,-1.54091 -2.78175,-2.51732 -6.86023,-3.35747 -14.49873,-2.9867 -31.7955,0.0947 -49.1659,8.75887 -6.2575,3.12113 -7.89267,3.48847 -15.6108,3.50651 -29.87374,0.0699 -62.017118,9.8688 -85.668705,26.11604 -9.125571,6.26889 -24.333251,21.68583 -29.684273,30.09287 -14.167682,22.25889 -16.229318,48.20735 -6.309505,79.41083 2.990085,9.40514 3.110217,10.31856 1.697809,12.89973 -2.093558,3.82602 -6.350006,5.25456 -9.7772,3.28142 C 6.7016099,364.05679 -0.80629591,330.67922 0.44016238,310.12703 1.5577328,291.69873 8.2933584,273.05829 19.116566,258.44082 30.631904,242.88855 51.223044,226.041 69.029693,217.6021 c 21.160736,-10.02837 50.578827,-16.94449 72.191947,-16.97202 5.50411,-0.007 8.01144,-0.65062 14.48398,-3.71809 13.32812,-6.31647 25.14344,-8.9752 40.43024,-9.09774 l 13.22723,-0.10613 0.4704,-6.71495 c 0.89669,-12.80194 9.40049,-25.2665 19.06117,-27.93926 5.75741,-1.59285 13.08666,-0.61932 18.43923,2.44927 l 4.32406,2.47894 21.90727,-63.650336 c 28.47747,-82.738515 26.79974,-78.356413 31.9522,-83.459632 8.30764,-8.228327 17.90155,-11.07793631 27.96295,-8.3056255 6.42002,1.7690339 116.24762,41.4963515 119.53116,43.2374095 6.55183,3.473963 4.08725,14.320055 -3.25403,14.320055 -0.92982,0 -24.0578,-8.12722 -51.39572,-18.060476 -73.47824,-26.698325 -70.38329,-25.66295 -74.40239,-24.889538 -5.42225,1.043391 -9.14686,4.980539 -12.06657,12.755132 -5.32872,14.18945 -36.73123,106.054241 -36.37701,106.417481 0.78069,0.80085 6.65395,-3.03554 8.09089,-5.285 0.83166,-1.30205 3.7301,-8.75137 6.44079,-16.55405 5.32237,-15.319806 7.08831,-18.226095 11.07532,-18.226095 1.42047,0 19.81903,6.251665 40.88538,13.892605 21.06669,7.64093 57.56468,20.88804 81.10695,29.43805 24.65211,8.95307 43.33796,16.28822 44.06287,17.29696 2.05665,2.86108 1.49753,6.28442 -3.27909,20.07819 -2.49583,7.20782 -4.81042,14.50282 -5.14353,16.21109 -0.63379,3.2507 1.17488,10.5224 2.61733,10.5224 0.45993,0 1.7359,-2.67306 2.83511,-5.94017 1.09921,-3.26705 9.75196,-28.38871 19.2285,-55.82587 9.47635,-27.43715 17.22967,-51.044805 17.22967,-52.461485 0,-3.970886 -2.583,-9.398598 -5.36131,-11.265902 -1.37964,-0.927142 -6.9529,-3.403927 -12.38511,-5.50397 -7.55475,-2.920522 -10.23301,-4.469672 -11.39108,-6.588873 -1.95575,-3.578642 -0.5871,-7.926236 3.17731,-10.093581 2.54749,-1.466585 3.39614,-1.320563 13.58333,2.336883 5.97641,2.145674 12.56925,5.052388 14.65078,6.459378 7.99874,5.406724 13.63053,17.674145 12.52171,27.276068 -0.30376,2.631369 -11.23526,35.798062 -24.29206,73.703752 -13.05681,37.90567 -23.73962,69.37902 -23.73962,69.94072 0,0.56172 0.96705,1.0213 2.14915,1.0213 7.37799,0 16.87546,6.5551 20.12298,13.88879 4.93055,11.1346 -0.25367,29.05368 -11.39196,39.37529 -2.24681,2.08216 -7.08692,5.24465 -10.75593,7.02775 -5.94292,2.88821 -7.71591,3.25316 -16.2482,3.34442 l -9.57742,0.10254 -9.55857,9.71173 c -11.00307,11.17937 -19.65788,16.66368 -34.23384,21.6929 -8.17328,2.82006 -11.40294,3.36882 -22.15732,3.76465 -16.68393,0.6141 -20.96303,-0.40428 -57.40113,-13.66022 -16.42891,-5.9767 -30.20393,-10.86674 -30.61135,-10.86674 -0.67497,0 -0.35816,4.24803 0.98199,13.16333 0.38923,2.5897 1.12135,3.50141 3.22881,4.0206 8.17653,2.01432 13.8591,7.25839 18.08638,16.69065 8.18271,18.2587 2.07091,40.27915 -14.40743,51.90833 l -4.19792,2.96246 -0.54163,12.1879 c -0.61267,13.78574 -2.70743,21.95492 -8.83846,34.46753 -7.65549,15.624 -21.56437,30.06693 -36.27178,37.66394 -3.70591,1.91439 -21.02105,9.07209 -38.47759,15.90606 -40.12324,15.70755 -49.59994,17.64002 -68.8945,14.04875 z m 31.38138,-16.38789 c 7.96647,-2.2517 63.86372,-24.34282 70.03903,-27.68012 16.38823,-8.85652 29.05631,-25.41987 34.29768,-44.84386 2.733,-10.128 2.98494,-25.77501 0.56547,-35.12278 -1.23443,-4.76903 -12.89823,-37.04172 -19.30555,-53.41643 -0.58831,-1.50337 -2.01925,-1.80786 -8.49574,-1.80786 -9.69413,0 -20.9227,-2.86669 -30.46101,-7.77685 -8.36411,-4.30561 -10.83213,-5.97325 -20.38314,-13.77276 -6.33215,-5.17096 -7.07938,-5.52758 -8.05724,-3.84538 -8.16161,14.04046 -32.5508,40.35767 -50.94061,54.96742 -14.30926,11.36796 -33.19744,24.47579 -50.550165,35.08045 -7.921503,4.84091 -14.766625,9.17427 -15.211457,9.62967 -0.44483,0.45537 2.811776,10.54255 7.237095,22.41595 10.730533,28.79195 10.744778,28.82485 15.887975,36.78846 9.988802,15.46623 27.818782,27.37543 46.032182,30.74624 6.63454,1.22786 22.84412,0.47547 29.34548,-1.36215 z m 5.71692,-28.58622 c -11.81206,-2.54177 -22.68246,-10.87595 -28.3091,-21.70425 -3.49413,-6.7244 -3.43594,-9.36944 0.25931,-11.80466 3.47628,-2.29069 66.40193,-26.61062 68.91063,-26.63298 3.30345,-0.0297 4.86912,1.7363 6.41196,7.23095 5.69323,20.27641 -5.6529,43.35567 -24.99004,50.8323 -6.28701,2.43088 -16.30362,3.36526 -22.28276,2.07864 z m 19.18576,-14.21693 c 6.34744,-2.88001 11.39349,-7.832 14.39663,-14.12818 3.0021,-6.29391 4.58234,-17.09569 2.50114,-17.09569 -1.33965,0 -51.47468,19.39302 -52.28574,20.2249 -0.25433,0.26095 1.28508,2.31014 3.42101,4.55379 8.5172,8.94693 20.93524,11.45062 31.96696,6.44518 z m -92.6796,-28.24865 c -1.23015,-0.46682 -2.729055,-1.95702 -3.330741,-3.31162 -2.215924,-4.98868 6.228681,-16.05129 15.576141,-20.40509 5.1523,-2.39978 17.2501,-2.66536 22.32551,-0.49013 4.70625,2.01698 6.37162,5.78141 4.11829,9.30899 -1.8569,2.90666 -4.72187,3.31081 -10.93098,1.54202 -7.04008,-2.00546 -16.62867,2.87882 -20.42158,10.40264 -1.61217,3.19748 -4.07746,4.18986 -7.33664,2.95319 z m 58.7696,-13.53579 c -2.06798,-3.0286 -1.97977,-5.26587 0.2909,-7.37375 2.13233,-1.97942 21.55613,-9.95857 24.24228,-9.95857 4.42034,0 6.81578,7.49947 3.35837,10.51429 -2.39611,2.08933 -20.78025,9.11405 -23.85202,9.11405 -1.41241,0 -3.14369,-0.98402 -4.03953,-2.29602 z m 41.964,-27.20507 c -6.87309,-4.93798 4.39064,-20.75188 17.34156,-24.34686 5.94877,-1.65133 17.25526,-0.60189 20.54653,1.90713 6.23433,4.7526 2.23513,13.31556 -5.00917,10.72523 -8.49195,-3.03651 -18.14919,0.009 -22.5136,7.10105 -2.30858,3.75114 -5.19845,6.22164 -7.27776,6.22164 -0.46697,0 -1.85638,-0.7237 -3.08756,-1.60819 z M 75.64605,466.89544 c -0.08924,-2.25555 -11.348528,-29.41402 -12.8186,-30.92201 -2.877333,-2.95127 -8.758308,-2.78342 -12.022809,0.3431 -2.223301,2.12941 -2.4821,3.08851 -2.107117,7.80541 0.96672,12.16293 11.563219,21.98014 24.692618,22.87696 1.246455,0.0851 2.261571,0.0388 2.255908,-0.10339 z m 220.76863,-93.64013 c 4.28905,-9.08809 1.84025,-24.20388 -4.62491,-28.54912 -5.12484,-3.44433 -13.6954,1.02125 -13.6954,7.13589 0,1.19886 2.37948,8.76754 5.2877,16.81933 l 5.28751,14.63961 2.77232,-2.69148 c 1.52464,-1.4803 3.76236,-4.78972 4.97278,-7.35423 z m 98.62836,-56.57328 c 17.03317,-6.11406 31.68086,-19.15754 39.20594,-34.91258 2.18469,-4.57402 19.02307,-52.09336 13.02283,-34.64081 l 9.05039,-26.32442 -3.96109,-4.15116 c -9.58482,-10.04474 -10.97131,-21.7127 -4.65615,-39.18259 2.03538,-5.63077 3.34277,-10.59866 2.90514,-11.03975 -0.43763,-0.44111 -19.37781,-7.53659 -42.0891,-15.76777 -22.71131,-8.23116 -54.85004,-19.90043 -71.41933,-25.93172 -16.56929,-6.03126 -30.43356,-10.59963 -30.80939,-10.15192 -0.37586,0.4477 -2.38652,5.79804 -4.46823,11.88965 -2.77265,8.11401 -4.8451,12.31121 -7.75005,15.69632 -4.76205,5.54913 -12.63121,9.65827 -19.50464,10.18485 l -5.03576,0.38581 -8.86232,25.23418 c -4.87409,13.8788 -9.76896,28.72078 -10.87726,32.98221 -2.52433,9.70554 -2.72271,24.59188 -0.46096,34.60785 5.06407,22.42707 22.38299,42.54649 43.73267,50.80455 13.05922,5.05126 57.78332,21.10113 62.9097,22.57593 3.63622,1.04616 9.01093,1.40181 17.79876,1.17779 10.92755,-0.27859 13.73521,-0.73221 21.26885,-3.4364 z m -64.07291,-26.72398 c -2.76974,-0.78887 -5.32408,-1.45482 -5.67641,-1.47988 -0.35216,-0.0251 -3.41518,-1.9461 -6.80652,-4.26893 -14.32058,-9.80903 -21.55373,-29.59332 -16.77454,-45.88201 1.58368,-5.39765 2.80819,-6.67333 6.42929,-6.69771 1.92538,-0.0137 44.2544,14.81601 65.44157,22.92592 7.27158,2.78332 8.24071,5.41636 4.71501,12.80831 -8.69687,18.23306 -28.85434,27.85607 -47.3284,22.5943 z m 19.61944,-12.56131 c 5.29868,-1.75531 15.52328,-9.9569 14.88024,-11.93596 -0.18073,-0.55603 -12.0961,-5.28759 -26.47847,-10.51462 l -26.14999,-9.5037 -0.30685,3.87131 c -0.66434,8.3844 4.69098,19.37588 11.78769,24.193 8.49968,5.76964 16.85727,7.00732 26.26738,3.88997 z m 65.89239,-32.25436 c -9.61296,-11.76887 -13.95555,-13.85576 -23.28826,-11.19132 -6.19401,1.7684 -8.48733,1.2423 -10.37786,-2.38075 -1.68219,-3.22437 0.79304,-7.24484 5.56211,-9.03404 5.45399,-2.04611 16.14883,-1.94949 21.09603,0.19062 8.4089,3.63761 16.67226,12.69822 16.67226,18.28089 0,5.19111 -6.52196,7.98144 -9.66428,4.13462 z M 345.6947,232.6306 c -5.74969,-2.15169 -10.84156,-4.53914 -11.31506,-5.30546 -1.74174,-2.81909 -0.96225,-6.98008 1.63432,-8.72522 2.41928,-1.62595 3.03779,-1.51191 14.64185,2.69985 11.74324,4.26223 14.0539,5.86198 14.0539,9.72949 0,2.43245 -3.72547,5.7656 -6.29457,5.63165 -1.24646,-0.0649 -6.97058,-1.87864 -12.72044,-4.03031 z m -30.51936,-23.55879 c -0.93205,-0.38622 -3.11622,-2.71829 -4.85366,-5.18243 -2.0172,-2.86083 -4.82675,-5.2369 -7.77255,-6.57358 -4.58441,-2.08004 -6.43204,-2.10229 -16.18539,-0.19488 -3.86035,0.75496 -7.27159,-1.68456 -7.2467,-5.18229 0.0206,-2.98407 0.95128,-4.17269 4.88199,-6.23906 11.60303,-6.09996 28.9259,-0.6095 36.44445,11.551 3.61031,5.83954 3.66231,6.89013 0.50077,10.1329 -2.60926,2.67644 -3.06354,2.80939 -5.76908,1.68832 z m 146.22141,74.11182 c 6.08623,-2.82596 9.84567,-6.62164 12.70687,-12.82979 4.71605,-10.23226 1.91971,-18.07873 -6.44267,-18.07873 -5.41917,0 -7.25117,2.48109 -11.82323,16.01259 -2.11175,6.25007 -4.45586,12.64219 -5.20909,14.20471 l -1.36951,2.84095 3.8027,-0.0226 c 2.09151,-0.0119 5.8422,-0.96965 8.33493,-2.12704 z M 240.17368,191.49407 c 2.57666,-7.577 4.68463,-14.60374 4.68463,-15.615 0,-5.80293 -8.72793,-10.13324 -13.69521,-6.79481 -6.26507,4.21068 -8.70856,18.3453 -4.73751,27.40507 2.37347,5.41488 7.14838,11.00169 8.28054,9.68872 0.43058,-0.49918 2.89089,-7.10698 5.46755,-14.68398 z m 69.2276,312.56925 c -3.12617,-1.63027 -16.19945,-23.07371 -16.19945,-26.57108 0,-4.54122 2.62969,-7.23932 7.05587,-7.23932 4.48023,0 5.26727,0.86249 14.13936,15.49605 3.12446,5.15335 5.32442,9.97849 5.32529,11.67944 0,5.20317 -5.85112,8.96603 -10.32107,6.63491 z m 18.33661,-30.17357 c -7.86504,-5.3862 -14.77418,-10.70178 -15.35374,-11.81238 -2.68631,-5.14868 0.54645,-10.83294 6.16106,-10.83294 4.63092,0 31.50772,18.65834 32.45521,22.5311 1.22723,5.01526 -2.60635,9.9073 -7.76361,9.9073 -0.65936,0 -7.63389,-4.4069 -15.49892,-9.79308 z m 157.0652,-13.99009 c -1.17506,-1.40053 -1.9185,-4.54407 -2.25608,-9.54115 l -0.50368,-7.45247 -12.58949,-4.94159 -12.58933,-4.94157 -4.74177,5.15457 c -2.60808,2.83502 -5.93351,5.46131 -7.38967,5.83622 -3.87254,0.99698 -7.927,-2.40387 -8.31228,-6.97241 -0.28094,-3.33283 1.24149,-5.34803 23.48151,-31.08035 25.20147,-29.15868 26.5811,-30.32837 32.3991,-27.46696 5.17716,2.5462 5.32201,3.69462 5.33797,42.29054 0.0172,34.62501 -0.0515,35.84626 -2.07245,38.48186 -2.6381,3.44008 -8.13706,3.76362 -10.76383,0.6333 z m -2.29606,-45.17427 -0.0395,-11.10549 -7.43084,8.2636 c -4.08689,4.54499 -7.21462,8.48518 -6.95067,8.75598 0.73675,0.7556 11.77757,5.03622 13.20234,5.11861 0.93583,0.0542 1.24868,-2.77768 1.219,-11.0327 z m -145.99762,28.52618 c -8.60934,-1.62877 -10.99637,-2.48433 -12.84125,-4.60291 -3.61769,-4.15442 -2.87287,-8.80942 1.80678,-11.29162 2.53102,-1.34248 4.19124,-1.23666 16.11743,1.02724 8.17309,1.55142 14.02387,3.19961 15.1852,4.27765 2.53873,2.35653 2.47214,8.06721 -0.12528,10.73115 -2.4936,2.55782 -6.00506,2.53314 -20.14305,-0.14151 z m 85.93179,-7.26227 c -1.20698,-0.611 -2.70657,-2.37885 -3.33228,-3.92859 -0.98646,-2.44238 -0.50765,-4.57299 3.59348,-15.99594 3.67244,-10.22838 4.43939,-13.36345 3.42634,-14.00559 -3.65339,-2.31603 -24.39537,-9.44922 -25.15255,-8.65005 -0.47607,0.50222 -2.72254,6.00199 -4.99234,12.2217 -2.26981,6.21971 -4.86672,12.14694 -5.77064,13.17163 -3.78552,4.29051 -12.41048,0.91007 -12.41048,-4.86412 0,-4.42965 22.80534,-64.85472 25.2411,-66.87905 2.65801,-2.20903 5.83722,-2.31265 8.66306,-0.28234 3.81247,2.73915 3.69543,5.96105 -0.64665,17.77998 -2.22741,6.06304 -4.05,11.55406 -4.05,12.20227 0,1.51967 25.17248,11.3042 26.14245,10.16165 0.4033,-0.47471 2.45394,-5.6454 4.55729,-11.4904 4.22075,-11.72884 7.0974,-15.25846 11.55738,-14.18075 3.23808,0.7825 6.08641,4.18306 6.08641,7.26649 0,3.05251 -22.56062,64.3796 -24.33978,66.16328 -1.95677,1.96191 -6.0495,2.58723 -8.57279,1.30985 z M 19.965212,185.90034 C 18.128737,183.97773 16.462334,177.1085 10.325477,146.16073 5.7055436,122.8619 3.1537718,107.73391 3.5623885,106.06425 c 0.7178759,-2.93352 5.6705735,-5.71405 8.7207245,-4.8959 4.285967,1.14966 5.200344,3.66124 9.92891,27.27283 l 1.164937,5.81641 16.256091,-3.51268 c 8.94091,-1.93197 16.464434,-3.72633 16.719112,-3.98749 0.254509,-0.26115 -0.736751,-6.64396 -2.203049,-14.18402 -3.198772,-16.448704 -3.195683,-16.350641 -0.610956,-19.196308 2.868237,-3.15796 8.269372,-3.05581 10.768804,0.203667 1.319907,1.72108 4.080025,13.485961 9.149253,38.998421 3.992501,20.09359 7.253913,37.36848 7.247562,38.38863 -0.01716,2.75202 -4.576686,6.92628 -7.565397,6.92628 -5.128264,0 -6.844092,-3.42777 -9.953794,-19.88661 -2.154311,-11.40184 -3.253004,-15.23778 -4.363881,-15.23778 -1.566007,0 -31.814214,6.2667 -32.286504,6.68898 -0.151023,0.13536 1.094918,6.83729 2.769729,14.89333 1.674469,8.05605 3.044659,15.58199 3.044659,16.72434 0,2.93325 -4.454151,7.14843 -7.553727,7.14843 -1.435063,0 -3.608594,-1.04599 -4.82965,-2.3244 z M 89.56214,171.95391 c -0.832687,-0.99433 -1.772805,-2.56171 -2.089267,-3.48304 -0.572001,-1.66501 11.504527,-79.288446 12.884337,-82.816534 0.84812,-2.168644 5.5451,-4.86887 8.4693,-4.86887 1.12666,0 3.39871,1.278418 5.04932,2.840931 4.67038,4.421681 43.35991,68.229283 43.35991,71.510383 0,3.25774 -3.73848,7.26123 -6.78074,7.26123 -3.93587,0 -5.49262,-1.31202 -9.87228,-8.3206 l -4.36646,-6.9875 -13.9137,2.99203 c -7.65257,1.64563 -14.8701,3.22298 -16.03899,3.50521 -1.78396,0.43071 -2.32386,1.77488 -3.3606,8.36729 -0.7927,5.04041 -1.92554,8.56222 -3.162219,9.83072 -2.449154,2.51207 -8.137737,2.60635 -10.178611,0.16868 z m 29.34498,-36.96328 c 4.12345,-0.86589 7.68382,-1.766 7.91224,-2.00024 0.55278,-0.56713 -13.92313,-24.31202 -14.82188,-24.31202 -0.38511,0 -1.50766,5.2299 -2.49446,11.62202 -0.9868,6.39213 -2.04259,12.92515 -2.34618,14.51783 -0.50043,2.62558 -0.32778,2.84218 1.85073,2.32128 1.32145,-0.316 5.77629,-1.28298 9.89955,-2.14887 z m 66.0254,-22.33137 c -6.09326,-2.84251 -11.64508,-5.91968 -12.33756,-6.83813 -2.22896,-2.95654 -1.5418,-8.128437 1.39475,-10.497706 1.4596,-1.17762 3.38633,-2.141111 4.28166,-2.141111 2.57564,0 25.66037,11.194787 27.05614,13.120747 3.39132,4.67945 -0.30668,11.73129 -6.08229,11.59867 -1.77864,-0.0407 -8.21925,-2.39995 -14.3127,-5.24247 z m 27.50233,-16.045489 c -0.93787,-0.25359 -6.94311,-6.4959 -13.34494,-13.871703 -9.27489,-10.686177 -11.63942,-14.031004 -11.63942,-16.46467 0,-4.113062 3.18093,-7.186406 7.43805,-7.186406 3.59968,0 6.32015,2.558955 20.93798,19.695008 7.38538,8.657605 8.0679,11.264791 4.03318,15.403369 -2.97635,3.053021 -3.93862,3.367183 -7.42485,2.424402 z m 19.97469,-15.315165 c -0.83267,-0.854164 -3.46391,-7.61266 -5.84682,-15.018901 -4.07075,-12.651649 -4.24048,-13.634437 -2.80714,-16.253807 2.10814,-3.852586 6.34778,-5.2639 9.84087,-3.275885 2.18812,1.245314 3.50099,3.887296 6.91291,13.912328 4.83514,14.206813 5.13428,16.802838 2.29556,19.928327 -2.42341,2.668011 -8.1072,3.055076 -10.39538,0.707938 z"
       id="path53911-0"
       sodipodi:nodetypes="cscsssscsssccsssscssscssssccsssssscsssssscsscssscssssssscsssssssscsssssssssssssssssscssssssscscssssccsssssssssssscssssscscsssscscsscsssssssscssscscssscsssssscssscscssscssssssssscscssssssssssscsssscssscscsssssssssssssssccsssssssscssssscssssscscsscsssssssccssssscsscccssccsssssssssscsscssscsscsssscscccccsccccssssccsscccsscssscsscscscsccsssscscssscsscsssccscsscsscsssccscss" />
    <path
       style="display:inline;fill:#fff0e9;fill-opacity:1;stroke-width:24.4903;stroke-linecap:round;stroke-linejoin:round"
       id="path51530"
       d="m 154.48284,460.71748 c 0,0 -11.53507,-3.08294 -13.32933,-2.72339 -4.57342,3.4127 -7.29013,8.67596 -9.76947,13.6486 z"
       sodipodi:nodetypes="cccc" />
  </g>
</svg>
