<?xml version="1.0" encoding="UTF-8" standalone="no"?>
<!-- Created with Inkscape (http://www.inkscape.org/) -->

<svg
   version="1.1"
   id="svg80320"
   width="512"
   height="512"
   viewBox="0 0 512 512"
   sodipodi:docname="valises.svg"
   inkscape:version="1.1.1 (3bf5ae0d25, 2021-09-20)"
   xmlns:inkscape="http://www.inkscape.org/namespaces/inkscape"
   xmlns:sodipodi="http://sodipodi.sourceforge.net/DTD/sodipodi-0.dtd"
   xmlns="http://www.w3.org/2000/svg"
   xmlns:svg="http://www.w3.org/2000/svg">
  <defs
     id="defs80324" />
  <sodipodi:namedview
     id="namedview80322"
     pagecolor="#ffffff"
     bordercolor="#666666"
     borderopacity="1.0"
     inkscape:pageshadow="2"
     inkscape:pageopacity="0.0"
     inkscape:pagecheckerboard="0"
     showgrid="false"
     inkscape:zoom="0.81835938"
     inkscape:cx="158.85442"
     inkscape:cy="266.38663"
     inkscape:window-width="1493"
     inkscape:window-height="1030"
     inkscape:window-x="96"
     inkscape:window-y="0"
     inkscape:window-maximized="0"
     inkscape:current-layer="g80326" />
  <g
     inkscape:groupmode="layer"
     inkscape:label="Image"
     id="g80326">
    <rect
       style="fill:#ffffff;fill-opacity:1;stroke:none;stroke-width:13.9671;stroke-linecap:round;stroke-linejoin:round"
       id="rect76808"
       width="28.647951"
       height="77.021599"
       x="6.9653926"
       y="391.3978" />
    <rect
       style="fill:#ffffff;fill-opacity:1;stroke:none;stroke-width:15.7871;stroke-linecap:round;stroke-linejoin:round"
       id="rect77030"
       width="30.604403"
       height="23.615049"
       x="300.56387"
       y="478.94669" />
    <rect
       style="fill:#ffffff;fill-opacity:1;stroke:none;stroke-width:14.6355;stroke-linecap:round;stroke-linejoin:round"
       id="rect77188"
       width="17.560244"
       height="23.387634"
       x="436.1488"
       y="478.44537" />
    <path
       id="rect77598"
       style="fill:#ffffff;fill-opacity:1;stroke:none;stroke-width:14.6355;stroke-linecap:round;stroke-linejoin:round"
       d="m 404.11802,9.2212197 v 3.2788753 h -63.24807 v 7.65071 h -16.52867 v 44.453006 h 23.35771 V 37.275834 h 56.41903 v 25.868692 h 26.95091 V 9.2212197 Z" />
    <g
       id="g76466"
       style="display:inline"
       transform="matrix(0.98965945,0,0,1.1278883,-1794.0864,408.343)">
      <g
         id="g31091"
         transform="translate(322.44069,288.49957)">
        <rect
           style="display:inline;fill:#8c7851;fill-opacity:1;fill-rule:evenodd;stroke-width:4.88063;stroke-linecap:round;stroke-linejoin:round;stroke-dasharray:4.88063, 58.5677"
           id="rect53000"
           width="242.97772"
           height="297.16373"
           x="1754.3514"
           y="-536.4502" />
        <rect
           style="display:inline;fill:#ffffff;fill-opacity:1;fill-rule:evenodd;stroke-width:4.87735;stroke-linecap:round;stroke-linejoin:round;stroke-dasharray:4.87735, 58.5281"
           id="rect53202"
           width="22.542723"
           height="73.337723"
           x="1781.1621"
           y="-299.2392" />
        <rect
           style="display:inline;fill:#ffffff;fill-opacity:1;fill-rule:evenodd;stroke-width:4.87735;stroke-linecap:round;stroke-linejoin:round;stroke-dasharray:4.87735, 58.5281"
           id="rect53319"
           width="71.107735"
           height="45.622318"
           x="1582.9733"
           y="-303.31445" />
        <rect
           style="display:inline;fill:#f25042;fill-rule:evenodd;stroke-width:4.94473;stroke-linecap:round;stroke-linejoin:round;stroke-dasharray:4.94473, 59.3369"
           id="rect52895"
           width="234.05669"
           height="245.85947"
           x="1534.6936"
           y="-450.86871" />
        <rect
           style="display:inline;fill:#ffffff;fill-opacity:1;fill-rule:evenodd;stroke-width:3.78422;stroke-linecap:round;stroke-linejoin:round;stroke-dasharray:3.78422, 45.4106"
           id="rect53412"
           width="35.849155"
           height="101.26378"
           x="1570.4138"
           y="-450.28333" />
        <rect
           style="display:inline;fill:#ffffff;fill-opacity:1;fill-rule:evenodd;stroke-width:3.14225;stroke-linecap:round;stroke-linejoin:round;stroke-dasharray:3.14225, 37.7072"
           id="rect53438"
           width="11.711155"
           height="89.587692"
           x="1713.0096"
           y="-446.80286" />
        <rect
           style="display:inline;fill:#ffffff;fill-opacity:1;fill-rule:evenodd;stroke-width:4.87735;stroke-linecap:round;stroke-linejoin:round;stroke-dasharray:4.87735, 58.5281"
           id="rect53710"
           width="37.745956"
           height="5.3336463"
           x="1570.4138"
           y="-349.01956" />
        <rect
           style="display:inline;fill:#ffffff;fill-opacity:1;fill-rule:evenodd;stroke-width:4.87735;stroke-linecap:round;stroke-linejoin:round;stroke-dasharray:4.87735, 58.5281"
           id="rect53712"
           width="37.745953"
           height="5.3336358"
           x="1700.4276"
           y="-349.01953" />
        <rect
           style="display:inline;fill:#ffffff;fill-opacity:1;fill-rule:evenodd;stroke-width:4.87735;stroke-linecap:round;stroke-linejoin:round;stroke-dasharray:4.87735, 58.5281"
           id="rect53714"
           width="138.94859"
           height="56.967419"
           x="1582.9733"
           y="-303.31445" />
        <path
           style="display:inline;fill:#000000;stroke-width:0.965428"
           d="m 1549.4439,-196.06431 c -12.4707,-3.22779 -20.6376,-11.39927 -22.4908,-22.50339 l -0.7047,-4.22246 -7.0131,-0.009 c -8.8398,-0.0109 -15.8181,-2.61496 -21.7909,-8.13144 -7.6709,-7.08489 -7.9277,-8.37939 -7.5623,-38.12286 l 0.3216,-26.18536 2.8628,-4.12877 c 5.5196,-7.96035 13.9219,-12.21896 25.5837,-12.96673 l 7.7267,-0.49544 v -3.47159 c 0,-8.1841 6.4829,-12.08627 12.9331,-7.78466 l 2.7309,1.82122 0.2939,52.66628 c 0.3266,58.54065 -0.064,55.41921 7.4282,59.29251 3.2596,1.68505 6.0863,1.73221 104.0229,1.73544 95.5018,0.004 100.8557,-0.0801 104.2446,-1.62101 1.9648,-0.89338 4.4345,-2.98725 5.4882,-4.65306 1.8134,-2.86663 1.9159,-7.15677 1.9159,-80.15809 0,-42.42114 -0.1766,-77.12935 -0.3924,-77.12935 -0.2158,0 -2.3984,0.60003 -4.8501,1.33341 -2.4517,0.73337 -7.937,1.33341 -12.1895,1.33341 h -7.732 v 3.35652 c 0,3.07175 0.3738,3.50542 4.4056,5.1114 6.7389,2.68436 8.6331,5.53953 9.0178,13.59334 0.3835,8.02665 -1.5465,11.97379 -7.251,14.82972 -3.2744,1.63934 -5.4338,1.77788 -27.7127,1.77788 -21.5224,0 -24.477,-0.17521 -27.0489,-1.60394 -5.1476,-2.85956 -6.9729,-6.53345 -6.9773,-14.04328 0,-8.1647 2.3216,-11.85653 9.1705,-14.55372 4.0903,-1.61079 4.4561,-2.03044 4.4561,-5.1114 v -3.35652 h -44.0369 -44.037 v 3.48682 c 0,3.19881 0.3041,3.5719 3.6813,4.51686 5.888,1.64748 9.0896,6.02946 9.7013,13.27768 0.6259,7.41661 -1.9266,12.85805 -7.3315,15.62903 -3.1539,1.61699 -5.3737,1.75847 -27.5914,1.75847 -26.7827,0 -27.6947,-0.17221 -32.0339,-6.04864 -1.7605,-2.38423 -2.0473,-4.08157 -1.7848,-10.56171 0.2882,-7.11292 0.5496,-7.9304 3.3194,-10.38045 1.6536,-1.46272 4.3666,-3.13711 6.0288,-3.72087 2.5962,-0.9117 3.0224,-1.5476 3.0224,-4.50928 v -3.44791 l -7.6016,-0.039 c -4.1809,-0.0214 -9.489,-0.61547 -11.7957,-1.32003 -2.3067,-0.70455 -4.5478,-1.28702 -4.9803,-1.29438 -0.4325,-0.007 -0.7864,5.55789 -0.7864,12.36724 0,12.3162 -0.014,12.39022 -2.7627,14.22303 -3.1744,2.11702 -4.4827,2.24567 -8.2069,0.80704 -1.6894,-0.65263 -3.0904,-2.21349 -3.7898,-4.22246 -0.7356,-2.11272 -0.9974,-18.02041 -0.7767,-47.18959 0.331,-43.75252 0.3466,-44.02776 2.7457,-48.4472 3.0526,-5.6233 7.6838,-9.73331 14.3631,-12.74676 l 5.2425,-2.36521 34.7484,-0.26626 34.7484,-0.26625 0.4407,-9.51208 c 0.5209,-11.24255 2.7107,-16.04164 10.2392,-22.43971 7.6594,-6.50934 13.3522,-8.40771 25.1975,-8.40263 8.8584,0.004 10.5738,0.2777 15.5013,2.47503 13.6546,6.08906 20.1476,16.50184 20.1476,32.31066 v 5.65677 h 25.164 25.1639 v -31.84047 c 0,-35.74818 0.2659,-37.43514 7.1004,-45.05278 2.8885,-3.2194 5.9699,-5.30239 11.1776,-7.55598 l 7.1898,-3.11129 27.1091,-0.27687 27.1091,-0.27686 v -18.14579 -18.1458 l -3.0913,-1.3553 c -4.0249,-1.76461 -7.9453,-6.23205 -9.3819,-10.69104 -1.437,-4.45999 -1.4895,-15.58282 -0.1033,-21.87992 2.4771,-11.25311 12.1865,-22.35323 23.96,-27.39204 9.6206,-4.1174 15.6036,-4.68328 45.7596,-4.32797 25.1879,0.29676 27.6995,0.47062 33.0277,2.28617 11.6474,3.96875 21.902,12.68592 26.3778,22.42323 3.1623,6.87974 4.0323,24.96505 1.474,30.64431 -1.653,3.66962 -8.7642,10.2469 -11.0788,10.2469 -0.6608,0 -1.0455,6.68021 -1.0455,18.15782 v 18.15781 l 27.5231,0.28768 c 25.4974,0.2665 27.8798,0.42751 32.3697,2.18763 7.1882,2.8179 13.4314,8.05482 16.8105,14.10095 l 2.981,5.33364 8e-4,25.93695 8e-4,25.93696 -2.7626,1.8424 c -3.4852,2.32422 -5.6686,2.32422 -9.1537,0 l -2.7627,-1.8424 -0.025,-22.3812 c -0.014,-12.30966 -0.4542,-23.95033 -0.9789,-25.86816 -1.3123,-4.7974 -4.0642,-7.71342 -9.5025,-10.06936 l -4.6169,-2.00012 h -102.89 -102.89 l -4.621,2.0668 c -2.8809,1.28848 -5.503,3.38075 -6.9629,5.55587 -2.3031,3.43128 -2.3422,4.01973 -2.3592,35.52876 l -0.017,32.03967 4.4781,1.01544 c 6.4012,1.45153 13.4062,6.34651 17.0379,11.90579 l 3.1238,4.78183 0.2885,64.67034 0.2886,64.67033 h 6.2645 6.2646 v -100.45006 c 0,-99.26489 0.025,-100.47112 2.097,-102.22802 1.165,-0.98771 3.495,-1.77788 5.2425,-1.77788 1.7475,0 4.0775,0.79017 5.2425,1.77788 2.0728,1.75739 2.0971,2.96898 2.1071,105.11707 l 0.011,103.3392 3.6811,3.92613 c 6.4011,6.82722 6.9754,10.16182 6.5954,38.29798 l -0.3361,24.89217 79.4759,-6.8e-4 c 87.0816,-7.5e-4 82.558,0.27287 88.1187,-5.33 1.4882,-1.49949 3.1932,-4.21401 3.7888,-6.03226 0.7145,-2.18102 1.0849,-36.4562 1.0888,-100.72924 0.01,-91.65377 0.1145,-97.50634 1.8407,-98.82524 3.2515,-2.48425 6.8939,-2.71275 10.0192,-0.62851 l 2.8511,1.90137 -0.2752,101.48807 -0.2755,101.48808 -2.3869,4.10726 c -3.0311,5.21582 -9.691,10.82569 -15.8716,13.3693 -3.8518,1.58515 -7.1554,2.05225 -16.6041,2.34767 l -11.7956,0.36878 v 7.72998 c 0,6.56003 -0.4162,8.43814 -2.7501,12.4089 -3.7327,6.35063 -9.0145,9.27033 -17.5557,9.70467 -8.0442,0.40907 -14.3851,-2.16391 -18.9885,-7.70506 -2.8882,-3.47656 -3.1513,-4.45046 -3.527,-13.05361 l -0.4059,-9.29675 -42.0827,0.23223 -42.0827,0.23223 -0.5243,8.8894 c -0.347,5.88487 -1.1107,9.79075 -2.2595,11.55621 -7.2476,11.13855 -25.6429,12.51031 -35.2503,2.62865 -3.5065,-3.60666 -5.4786,-9.38965 -5.4786,-16.06554 0,-3.85326 -0.1161,-4.00415 -2.8742,-3.73424 -2.622,0.25659 -2.9461,0.70734 -3.6928,5.13463 -1.0567,6.26533 -5.5989,13.06125 -11.1489,16.68064 -8.8714,5.78542 -4.6643,5.58659 -116.4201,5.50226 -55.6886,-0.042 -102.4315,-0.38172 -103.8732,-0.75487 z m 264.9919,-16.05858 c 0.7894,-1.30681 1.2312,-4.60275 1.0724,-8.00045 l -0.2699,-5.77811 h -5.7667 -5.7668 l -0.3125,6.09123 c -0.3956,7.71336 1.4103,10.59529 6.382,10.18416 2.2905,-0.18941 3.7352,-0.96321 4.6615,-2.49683 z m 126.5475,1.26992 c 1.2207,-1.035 1.6476,-3.22289 1.6476,-8.44493 v -7.04801 h -5.7667 -5.7668 v 7.04801 c 0,5.22204 0.4269,7.40993 1.6477,8.44493 2.1129,1.79141 6.1252,1.79141 8.2382,0 z m -414.6064,-56.38415 v -32.00182 l -4.9804,0.002 c -6.3951,0.002 -11.6872,2.29113 -14.3811,6.2212 -1.9246,2.80769 -2.1664,4.93282 -2.4782,21.77901 -0.4404,23.7926 0.046,27.26599 4.3836,31.27852 3.3313,3.08186 7.5038,4.45776 14.0485,4.63253 l 3.4076,0.0906 z m 269.9884,29.47212 c 6.312,-3.07222 6.8123,-5.27022 6.8097,-29.91659 0,-20.60892 -0.1536,-22.43397 -2.0858,-25.12066 -3.0699,-4.26881 -7.9136,-6.42944 -14.4225,-6.43336 l -5.5046,-0.004 v 31.40919 c 0,17.27506 0.3539,31.71248 0.7864,32.08316 1.2197,1.04534 10.9095,-0.31127 14.4168,-2.01841 z m -188.2055,-108.58772 v -2.66682 h -18.873 -18.8729 v 2.66682 2.66682 h 18.8729 18.873 z m 130.0139,0 v -2.66682 h -18.873 -18.873 v 2.66682 2.66682 h 18.873 18.8729 z m -143.6444,-58.22553 v -42.22462 h -5.7667 -5.7668 v 42.22462 42.22462 h 5.7668 5.7667 z m 130.0139,0 v -42.22462 h -5.7668 -5.7667 v 42.22462 42.22462 h 5.7667 5.7668 z m -157.2748,-10.2228 v -32.00182 l -6.5531,0.002 c -7.5103,0.002 -12.6132,1.80342 -15.9151,5.61968 -2.0684,2.39011 -2.1716,3.63812 -2.1716,26.26241 0,21.39733 0.1877,23.9958 1.8919,26.20096 3.2516,4.20737 7.7667,5.91177 15.6705,5.91548 l 7.0774,0.004 z m 131.0623,0 v -32.00182 h -44.0369 -44.037 v 32.00182 32.00182 h 44.037 44.0369 z m 59.3273,30.57377 c 1.9523,-0.78543 4.5007,-2.73275 5.6631,-4.32739 1.9766,-2.7115 2.1135,-4.39085 2.1135,-25.92071 0,-20.5983 -0.2016,-23.34014 -1.9159,-26.0501 -2.7771,-4.39023 -7.6335,-6.27739 -16.1543,-6.27739 h -7.0938 v 32.00182 32.00182 h 6.919 c 4.1819,0 8.323,-0.56492 10.4684,-1.42805 z m -83.4486,-81.91002 c 0,-3.30018 -0.5008,-7.51136 -1.1057,-9.35815 -1.3686,-4.1782 -6.6769,-9.41015 -11.1583,-10.99763 -7.1608,-2.53665 -17.6518,-0.7465 -22.5528,3.84835 -3.445,3.22983 -5.0203,8.05207 -5.0203,15.36771 v 7.14006 h 19.9215 19.9214 l -0.01,-6.00034 z m 235.918,-99.92039 v -17.91575 l -4.2301,-3.06984 c -6.6161,-4.80133 -8.3518,-8.5264 -8.3518,-17.92409 0,-7.00412 -0.2535,-8.1196 -2.0281,-8.92481 -2.3148,-1.0503 -42.912,-1.26795 -44.7479,-0.23989 -0.6559,0.36723 -1.3919,4.39649 -1.6817,9.20556 -0.6047,10.03358 -3.1592,15.0095 -9.4908,18.48688 l -3.913,2.14905 v 18.07432 18.07431 h 37.2217 37.2217 z m -78.6374,-31.86486 c 1.7877,-1.51565 2.097,-2.96313 2.097,-9.81374 0,-9.06801 1.9252,-13.58582 7.1279,-16.72665 5.4175,-3.27062 11.2669,-3.85332 35.4628,-3.53277 25.1826,0.33361 26.8288,0.64369 32.2118,6.06748 3.5828,3.60992 4.8705,7.88874 4.8776,16.20697 0,6.34313 0.2064,6.98023 2.6271,8.32493 2.4342,1.35222 2.8146,1.34872 5.3307,-0.049 2.6851,-1.4916 2.7063,-1.59453 2.3591,-11.43622 -0.2932,-8.31081 -0.7505,-10.5837 -2.8034,-13.93129 -3.3202,-5.41421 -7.0273,-8.60262 -13.2744,-11.41686 l -5.2425,-2.3617 h -29.358 c -28.4642,0 -29.4927,0.0611 -33.7862,2.00614 -11.5267,5.22191 -16.2307,12.38356 -16.8651,25.67599 -0.3938,8.25262 -0.2433,9.17286 1.7815,10.8895 2.7659,2.34505 4.772,2.37121 7.4541,0.0972 z m -249.5352,363.938 c -4.4137,-1.62279 -8.0763,-4.40627 -10.0678,-7.65142 -2.163,-3.52452 -2.1576,-59.24724 0.01,-62.75851 1.986,-3.22303 6.7688,-6.96372 10.3847,-8.12199 1.9767,-0.6332 25.8005,-0.9455 72.1261,-0.9455 66.779,0 69.3147,0.0607 73.2275,1.75308 4.8541,2.09952 8.0494,5.34237 9.5591,9.70126 0.7129,2.05854 0.9953,13.13959 0.7859,30.83716 l -0.3269,27.62401 -2.8142,3.60341 c -1.6939,2.169 -4.643,4.35401 -7.4084,5.48899 -4.541,1.86373 -5.3888,1.88517 -73.202,1.85078 -58.9067,-0.0299 -69.1256,-0.22519 -72.27,-1.38127 z m 139.9671,-39.03068 v -26.66818 l -67.1039,-0.23139 c -62.1547,-0.21431 -67.2006,-0.11983 -68.4145,1.28108 -1.6847,1.94412 -1.886,48.38088 -0.2211,51.01823 1.0635,1.68483 2.6934,1.7205 68.4145,1.49719 l 67.325,-0.22875 z m 122.0042,1.41195 -2.4753,-1.69933 v -120.1639 -120.16389 l 2.4753,-1.69933 c 3.2091,-2.20314 7.9813,-2.16788 10.6309,0.0785 2.0763,1.7603 2.097,2.96313 2.097,121.62974 v 119.85185 l -2.4267,1.93283 c -2.9951,2.3856 -7.0331,2.47712 -10.3012,0.23349 z m 47.805,-0.48261 -2.5736,-2.18193 v -119.0384 -119.03839 l 2.1731,-2.34223 c 3.0052,-3.23919 8.3759,-3.23919 11.3812,0 l 2.1731,2.34223 v 118.8781 118.87811 l -2.1731,2.34223 c -2.8407,3.06185 -7.4785,3.12954 -10.9807,0.16028 z m 47.9371,0.12454 -2.2798,-2.0574 V -393.59108 -513.1634 l 2.4267,-1.93284 c 3.4338,-2.73497 8.3792,-2.55302 11.1277,0.4094 l 2.1731,2.34223 v 119.03839 119.0384 l -2.5736,2.18193 c -3.3024,2.79982 -7.852,2.85193 -10.8741,0.12454 z"
           id="path52750" />
      </g>
    </g>
  </g>
</svg>
